<svg width="1397" height="580" viewBox="0 0 1397 580" fill="none" xmlns="http://www.w3.org/2000/svg">
<g filter="url(#filter0_diiii_34_75)">
<path d="M1175.5 427H1191V481H1175.5H1201.5H1205.5" stroke="#5BECFF" stroke-width="10"/>
<path d="M1204.19 521H1199.77L1199.8 518.716H1204.19C1205.71 518.716 1206.97 518.4 1207.98 517.77C1208.98 517.129 1209.74 516.237 1210.25 515.092C1210.76 513.938 1211.02 512.59 1211.02 511.047V509.752C1211.02 508.54 1210.87 507.463 1210.58 506.522C1210.29 505.571 1209.86 504.771 1209.3 504.121C1208.74 503.461 1208.05 502.962 1207.23 502.622C1206.43 502.283 1205.5 502.113 1204.45 502.113H1199.68V499.814H1204.45C1205.84 499.814 1207.11 500.047 1208.25 500.513C1209.4 500.968 1210.38 501.633 1211.21 502.506C1212.04 503.369 1212.68 504.417 1213.13 505.649C1213.57 506.871 1213.8 508.249 1213.8 509.781V511.047C1213.8 512.58 1213.57 513.962 1213.13 515.194C1212.68 516.417 1212.03 517.459 1211.19 518.323C1210.36 519.186 1209.35 519.85 1208.16 520.316C1206.99 520.772 1205.67 521 1204.19 521ZM1201.27 499.814V521H1198.46V499.814H1201.27ZM1224.14 521.291C1223.05 521.291 1222.05 521.107 1221.16 520.738C1220.28 520.36 1219.51 519.831 1218.87 519.152C1218.24 518.473 1217.76 517.668 1217.42 516.737C1217.08 515.805 1216.91 514.787 1216.91 513.681V513.07C1216.91 511.789 1217.1 510.65 1217.48 509.65C1217.86 508.642 1218.37 507.788 1219.02 507.089C1219.67 506.391 1220.41 505.862 1221.23 505.503C1222.06 505.144 1222.91 504.965 1223.79 504.965C1224.92 504.965 1225.89 505.159 1226.7 505.547C1227.53 505.935 1228.2 506.478 1228.72 507.177C1229.25 507.865 1229.64 508.68 1229.89 509.621C1230.14 510.553 1230.27 511.571 1230.27 512.677V513.885H1218.51V511.688H1227.58V511.484C1227.54 510.785 1227.39 510.106 1227.14 509.447C1226.9 508.787 1226.51 508.244 1225.97 507.817C1225.44 507.39 1224.71 507.177 1223.79 507.177C1223.18 507.177 1222.62 507.308 1222.1 507.57C1221.59 507.822 1221.15 508.2 1220.78 508.705C1220.41 509.209 1220.13 509.825 1219.92 510.553C1219.72 511.28 1219.62 512.119 1219.62 513.07V513.681C1219.62 514.428 1219.72 515.131 1219.92 515.791C1220.13 516.441 1220.44 517.013 1220.84 517.508C1221.25 518.003 1221.74 518.391 1222.31 518.672C1222.89 518.953 1223.55 519.094 1224.29 519.094C1225.24 519.094 1226.04 518.9 1226.7 518.512C1227.36 518.124 1227.94 517.605 1228.43 516.955L1230.06 518.25C1229.72 518.764 1229.29 519.254 1228.77 519.72C1228.24 520.185 1227.6 520.563 1226.83 520.854C1226.08 521.146 1225.18 521.291 1224.14 521.291ZM1242.58 516.824C1242.58 516.436 1242.49 516.077 1242.32 515.747C1242.15 515.408 1241.81 515.102 1241.28 514.83C1240.77 514.549 1239.99 514.307 1238.95 514.103C1238.08 513.919 1237.29 513.7 1236.58 513.448C1235.88 513.196 1235.29 512.89 1234.79 512.531C1234.31 512.173 1233.93 511.751 1233.67 511.266C1233.41 510.781 1233.28 510.213 1233.28 509.563C1233.28 508.942 1233.41 508.355 1233.69 507.802C1233.97 507.25 1234.36 506.76 1234.87 506.333C1235.38 505.906 1236 505.571 1236.71 505.329C1237.43 505.086 1238.23 504.965 1239.11 504.965C1240.38 504.965 1241.45 505.188 1242.34 505.634C1243.24 506.081 1243.92 506.677 1244.4 507.424C1244.87 508.161 1245.11 508.981 1245.11 509.883H1242.42C1242.42 509.447 1242.29 509.025 1242.02 508.617C1241.77 508.2 1241.4 507.856 1240.9 507.584C1240.42 507.313 1239.82 507.177 1239.11 507.177C1238.37 507.177 1237.76 507.293 1237.3 507.526C1236.84 507.749 1236.5 508.035 1236.29 508.384C1236.09 508.734 1235.99 509.102 1235.99 509.49C1235.99 509.781 1236.03 510.043 1236.13 510.276C1236.24 510.499 1236.42 510.708 1236.68 510.902C1236.95 511.086 1237.31 511.261 1237.79 511.426C1238.27 511.59 1238.87 511.755 1239.61 511.92C1240.9 512.211 1241.96 512.561 1242.8 512.968C1243.63 513.375 1244.25 513.875 1244.66 514.467C1245.07 515.058 1245.27 515.776 1245.27 516.62C1245.27 517.309 1245.12 517.939 1244.83 518.512C1244.55 519.084 1244.14 519.579 1243.6 519.996C1243.06 520.403 1242.42 520.724 1241.67 520.956C1240.94 521.179 1240.11 521.291 1239.19 521.291C1237.8 521.291 1236.63 521.044 1235.67 520.549C1234.71 520.054 1233.98 519.414 1233.48 518.628C1232.99 517.842 1232.74 517.013 1232.74 516.14H1235.45C1235.49 516.877 1235.7 517.464 1236.09 517.901C1236.48 518.328 1236.95 518.633 1237.51 518.817C1238.08 518.992 1238.63 519.079 1239.19 519.079C1239.92 519.079 1240.54 518.982 1241.03 518.788C1241.54 518.594 1241.92 518.328 1242.18 517.988C1242.45 517.648 1242.58 517.26 1242.58 516.824ZM1258.73 517.944V498.65H1261.43V521H1258.96L1258.73 517.944ZM1248.14 513.303V512.997C1248.14 511.794 1248.28 510.703 1248.57 509.723C1248.87 508.734 1249.29 507.885 1249.84 507.177C1250.39 506.469 1251.05 505.925 1251.8 505.547C1252.57 505.159 1253.42 504.965 1254.36 504.965C1255.35 504.965 1256.22 505.14 1256.95 505.489C1257.7 505.828 1258.33 506.328 1258.84 506.988C1259.37 507.638 1259.78 508.423 1260.08 509.345C1260.38 510.266 1260.59 511.309 1260.71 512.473V513.812C1260.6 514.966 1260.39 516.004 1260.08 516.926C1259.78 517.847 1259.37 518.633 1258.84 519.283C1258.33 519.933 1257.7 520.433 1256.95 520.782C1256.21 521.121 1255.33 521.291 1254.33 521.291C1253.41 521.291 1252.57 521.092 1251.8 520.694C1251.05 520.297 1250.39 519.739 1249.84 519.021C1249.29 518.303 1248.87 517.459 1248.57 516.489C1248.28 515.51 1248.14 514.447 1248.14 513.303ZM1250.84 512.997V513.303C1250.84 514.088 1250.92 514.826 1251.07 515.514C1251.24 516.203 1251.49 516.809 1251.83 517.333C1252.17 517.857 1252.6 518.269 1253.13 518.57C1253.65 518.861 1254.28 519.007 1255 519.007C1255.9 519.007 1256.63 518.817 1257.2 518.439C1257.78 518.061 1258.25 517.561 1258.6 516.94C1258.95 516.319 1259.22 515.645 1259.41 514.918V511.411C1259.3 510.878 1259.13 510.363 1258.9 509.869C1258.69 509.364 1258.41 508.918 1258.06 508.53C1257.72 508.132 1257.3 507.817 1256.79 507.584C1256.3 507.351 1255.71 507.235 1255.03 507.235C1254.3 507.235 1253.66 507.39 1253.13 507.701C1252.6 508.001 1252.17 508.418 1251.83 508.952C1251.49 509.476 1251.24 510.087 1251.07 510.785C1250.92 511.474 1250.84 512.211 1250.84 512.997ZM1272.16 521.291C1271.06 521.291 1270.07 521.107 1269.18 520.738C1268.29 520.36 1267.53 519.831 1266.89 519.152C1266.26 518.473 1265.78 517.668 1265.44 516.737C1265.1 515.805 1264.93 514.787 1264.93 513.681V513.07C1264.93 511.789 1265.12 510.65 1265.49 509.65C1265.87 508.642 1266.39 507.788 1267.04 507.089C1267.69 506.391 1268.42 505.862 1269.25 505.503C1270.07 505.144 1270.93 504.965 1271.81 504.965C1272.93 504.965 1273.9 505.159 1274.72 505.547C1275.54 505.935 1276.22 506.478 1276.74 507.177C1277.27 507.865 1277.65 508.68 1277.91 509.621C1278.16 510.553 1278.28 511.571 1278.28 512.677V513.885H1266.53V511.688H1275.59V511.484C1275.55 510.785 1275.41 510.106 1275.16 509.447C1274.91 508.787 1274.53 508.244 1273.99 507.817C1273.46 507.39 1272.73 507.177 1271.81 507.177C1271.2 507.177 1270.64 507.308 1270.12 507.57C1269.61 507.822 1269.17 508.2 1268.8 508.705C1268.43 509.209 1268.14 509.825 1267.94 510.553C1267.74 511.28 1267.63 512.119 1267.63 513.07V513.681C1267.63 514.428 1267.74 515.131 1267.94 515.791C1268.15 516.441 1268.46 517.013 1268.86 517.508C1269.26 518.003 1269.75 518.391 1270.33 518.672C1270.91 518.953 1271.57 519.094 1272.3 519.094C1273.25 519.094 1274.06 518.9 1274.72 518.512C1275.38 518.124 1275.96 517.605 1276.45 516.955L1278.08 518.25C1277.74 518.764 1277.31 519.254 1276.79 519.72C1276.26 520.185 1275.62 520.563 1274.85 520.854C1274.09 521.146 1273.2 521.291 1272.16 521.291Z" fill="#5BECFF"/>
<path d="M1266.31 442.999C1266 418.5 1231 423 1224.31 439C1215.31 462 1229 473 1229 473C1239 482.5 1250 481 1250 481C1261.5 480 1268.5 473.5 1270.5 472.5" stroke="#5BECFF" stroke-width="10"/>
<g filter="url(#filter1_iiii_34_75)">
<path d="M355.5 512.5L377.5 504L387.5 499.5L397 495L356.5 398L315 299.5L213.5 508.5L223.5 512.5L236.5 515.5L248.5 518L260 519.5L271.5 520.5L284 521H295.5L307.5 520.5L320 519.5L331.5 517.5L355.5 512.5Z" fill="#5BECFF"/>
<path d="M142.5 469.5L276 216.5L254 166L247 152L240.5 140L236 132.5L232 127L223.5 117L213 111L201.5 106.5L188.5 104H178L167.25 104.75L156.5 105.5L144.5 107.5L134.5 111L126 117L118 124L110 132.5L100.5 144.5L90 161.5L78 183.5L66.5 209L58.5 240L55 269.5V299.5L57 323L62 346.5L69 369L79.5 393L92.5 414.5L106.5 433.5L122 451.5L132 462L142.5 469.5Z" fill="#5BECFF"/>
<path d="M483 153.5L460.5 124.5L431.5 99L400.5 78.5L363 62.5L341.5 57L322.5 53.5L302 51H283L261.5 53.5L243 57L258 61.5L272 67.5L284.5 75.5L296.5 85L306.5 95.5L316.5 108L324.5 120L331.5 132.5L338.5 145.5L345 160L357 186.5L379 239.5L423 341.5L466 442L479.5 424.5L489 411L505 383L517 350L523.5 315.5L526.5 282L522 248.5L514 214.5L508 197.5L501 182.5L492 167L483 153.5Z" fill="#5BECFF"/>
</g>
<path d="M355.5 512.5L377.5 504L387.5 499.5L397 495L356.5 398L315 299.5L213.5 508.5L223.5 512.5L236.5 515.5L248.5 518L260 519.5L271.5 520.5L284 521H295.5L307.5 520.5L320 519.5L331.5 517.5L355.5 512.5Z" stroke="#5BECFF" stroke-width="10" stroke-linejoin="round"/>
<path d="M142.5 469.5L276 216.5L254 166L247 152L240.5 140L236 132.5L232 127L223.5 117L213 111L201.5 106.5L188.5 104H178L167.25 104.75L156.5 105.5L144.5 107.5L134.5 111L126 117L118 124L110 132.5L100.5 144.5L90 161.5L78 183.5L66.5 209L58.5 240L55 269.5V299.5L57 323L62 346.5L69 369L79.5 393L92.5 414.5L106.5 433.5L122 451.5L132 462L142.5 469.5Z" stroke="#5BECFF" stroke-width="10" stroke-linejoin="round"/>
<path d="M483 153.5L460.5 124.5L431.5 99L400.5 78.5L363 62.5L341.5 57L322.5 53.5L302 51H283L261.5 53.5L243 57L258 61.5L272 67.5L284.5 75.5L296.5 85L306.5 95.5L316.5 108L324.5 120L331.5 132.5L338.5 145.5L345 160L357 186.5L379 239.5L423 341.5L466 442L479.5 424.5L489 411L505 383L517 350L523.5 315.5L526.5 282L522 248.5L514 214.5L508 197.5L501 182.5L492 167L483 153.5Z" stroke="#5BECFF" stroke-width="10" stroke-linejoin="round"/>
<path d="M1345 520V500H1344C1343.6 503.6 1339.5 505.5 1338 505.5" stroke="#5BECFF" stroke-width="3"/>
<path d="M1297 520.5V500.5H1296C1295.6 504.1 1291.5 506 1290 506" stroke="#5BECFF" stroke-width="3"/>
<path d="M1322 515.721C1322 516.221 1323 517.721 1323 517.721C1324.23 518.57 1324.61 519.273 1326.5 519.221L1329.5 518.721L1332 516.721L1332.5 512.221L1332.5 508.221M1332.5 508.221C1331.5 511.221 1328.22 511.806 1325.5 511.721C1321.51 510.61 1321.94 506.277 1322.5 503.221C1323.06 500.165 1330.57 500.7 1331.5 502.221C1332.43 503.742 1332.5 505.221 1332.5 505.221C1332.5 505.221 1332.5 507.221 1332.5 508.221Z" stroke="#5BECFF" stroke-width="3"/>
<path d="M1306 516C1306 516.5 1307 518 1307 518C1308.23 518.85 1308.61 519.552 1310.5 519.5L1313.5 519L1316 517L1316.5 512.5L1316.5 508.5M1316.5 508.5C1315.5 511.5 1312.22 512.086 1309.5 512C1305.51 510.89 1305.94 506.556 1306.5 503.5C1307.06 500.444 1314.57 500.979 1315.5 502.5C1316.43 504.021 1316.5 505.5 1316.5 505.5C1316.5 505.5 1316.5 507.5 1316.5 508.5Z" stroke="#5BECFF" stroke-width="3"/>
<path d="M902 481.5H887.5M902 481.5H918.5M902 481.5C902 481.5 901.714 455.375 902 451.875M902 451.875C901.899 446.603 902 436 902 436C902 436 903 426.5 892 426.5H887.5M902 451.875C915.741 434.375 916 426.5 932 426.5M972.5 481.5H955.75M955.75 481.5H940H955.5C955.342 474.297 955.153 463.671 955.085 454.5M955.75 481.5L955.085 454.5M955.085 454.5C955.009 444.362 955.5 436 955.5 436C955.5 436 955.75 426.5 944.5 426.5H940M955.085 454.5C960 414.5 998.5 423.5 998.5 442C998.5 460.5 998.5 451.875 998.5 451.875M1013.5 481.5H998.5V461.75V451.875M998.5 451.875C1012 408.5 1038 432 1038 442C1038 452 1038 481.5 1038 481.5H1053" stroke="#5BECFF" stroke-width="10"/>
<path d="M1068 432C1086.23 422.688 1099 423.5 1106 435L1108 441.5V449.5M1122.5 481C1116 481 1106 481.5 1108 475.5L1107 466M1107 466C1095.89 478.677 1088.5 484 1075.5 481C1063 473 1066 463.5 1070.5 457C1075 450.5 1095.5 448 1108 449.5M1107 466C1107 466 1108 452 1108 449.5" stroke="#5BECFF" stroke-width="10"/>
<path d="M1144 404.5V425.5M1165 480C1153.49 479.901 1145.03 478.941 1144 465.5V425.5M1144 425.5H1162.5H1127M1190 399V410" stroke="#5BECFF" stroke-width="10"/>
<path d="M1093.5 414H1082.5L1094.5 399H1108.5L1093.5 414Z" fill="#5BECFF" stroke="#5BECFF"/>
<path d="M873 454C873 469.393 860.311 482 844.5 482C828.689 482 816 469.393 816 454C816 438.607 828.689 426 844.5 426C860.311 426 873 438.607 873 454Z" stroke="#5BECFF" stroke-width="10"/>
<path d="M1288.4 432.37C1306.62 423.058 1319.4 423.87 1326.4 435.37L1328.4 441.87V449.87M1342.9 481.37C1336.4 481.37 1326.4 481.87 1328.4 475.87L1327.4 466.37M1327.4 466.37C1316.29 479.047 1308.9 484.37 1295.9 481.37C1283.4 473.37 1286.4 463.87 1290.9 457.37C1295.4 450.87 1315.9 448.37 1328.4 449.87M1327.4 466.37C1327.4 466.37 1328.4 452.37 1328.4 449.87" stroke="#5BECFF" stroke-width="10"/>
<path d="M635 403H653M671 403H653M653 403V481H671H650.864H635" stroke="#5BECFF" stroke-width="10"/>
<path d="M682 426.5C682 426.5 695 425.5 696.5 426.5C698 427.5 698 441.5 697.5 445.5M696.5 480.5H712M696.5 480.5H682M696.5 480.5C696.513 466.926 697.519 458.82 697.5 445.5M697.5 445.5C699.5 440 713 428 719.5 426.5C726 425 730 425.5 735.5 429C741 432.5 742.5 439 742 461.5C741.5 484 742 480.5 742 480.5H756.5M800.5 402C800.5 402 781 398 782.5 426.5M782.5 426.5L767 426.5H803L782.5 426.5ZM782.5 426.5L782.75 480.5M782.5 480.5H767H782.75M798.5 480.5H782.75" stroke="#5BECFF" stroke-width="10"/>
<path d="M1131 163V105H1332V163" stroke="#5BECFF" stroke-width="30"/>
<path d="M1231 105.5V344.5H1284" stroke="#5BECFF" stroke-width="30"/>
<path d="M1230.5 344.5L1179 345" stroke="#5BECFF" stroke-width="30"/>
<path d="M884 105.5H1061.75V152.5" stroke="#5BECFF" stroke-width="30"/>
<path d="M933 105V346H1068V295" stroke="#5BECFF" stroke-width="30"/>
<path d="M933 346H884" stroke="#5BECFF" stroke-width="30"/>
<path d="M933 224H1050" stroke="#5BECFF" stroke-width="30"/>
<path d="M634 344.5H687.5M739 344.5H687.5M687.5 344.5V242M687.5 103L633.5 102.5M687.5 103V242M687.5 103C727.75 103 729.5 103 769 103C808.5 103 825 136.5 829.5 145.5C834 154.5 834 188 828.5 199.5C823 211 807.5 242 769 242C730.5 242 687.5 242 687.5 242" stroke="#5BECFF" stroke-width="31"/>
</g>
<defs>
<filter id="filter0_diiii_34_75" x="0" y="0" width="1397" height="580" filterUnits="userSpaceOnUse" color-interpolation-filters="sRGB">
<feFlood flood-opacity="0" result="BackgroundImageFix"/>
<feColorMatrix in="SourceAlpha" type="matrix" values="0 0 0 0 0 0 0 0 0 0 0 0 0 0 0 0 0 0 127 0" result="hardAlpha"/>
<feOffset dy="4"/>
<feGaussianBlur stdDeviation="25"/>
<feColorMatrix type="matrix" values="0 0 0 0 0.356863 0 0 0 0 0.92549 0 0 0 0 1 0 0 0 0.59 0"/>
<feBlend mode="normal" in2="BackgroundImageFix" result="effect1_dropShadow_34_75"/>
<feBlend mode="normal" in="SourceGraphic" in2="effect1_dropShadow_34_75" result="shape"/>
<feColorMatrix in="SourceAlpha" type="matrix" values="0 0 0 0 0 0 0 0 0 0 0 0 0 0 0 0 0 0 127 0" result="hardAlpha"/>
<feOffset dy="-4"/>
<feGaussianBlur stdDeviation="2"/>
<feComposite in2="hardAlpha" operator="arithmetic" k2="-1" k3="1"/>
<feColorMatrix type="matrix" values="0 0 0 0 0.356863 0 0 0 0 0.92549 0 0 0 0 1 0 0 0 1 0"/>
<feBlend mode="normal" in2="shape" result="effect2_innerShadow_34_75"/>
<feColorMatrix in="SourceAlpha" type="matrix" values="0 0 0 0 0 0 0 0 0 0 0 0 0 0 0 0 0 0 127 0" result="hardAlpha"/>
<feOffset dx="-4"/>
<feGaussianBlur stdDeviation="2"/>
<feComposite in2="hardAlpha" operator="arithmetic" k2="-1" k3="1"/>
<feColorMatrix type="matrix" values="0 0 0 0 0.356863 0 0 0 0 0.92549 0 0 0 0 1 0 0 0 1 0"/>
<feBlend mode="normal" in2="effect2_innerShadow_34_75" result="effect3_innerShadow_34_75"/>
<feColorMatrix in="SourceAlpha" type="matrix" values="0 0 0 0 0 0 0 0 0 0 0 0 0 0 0 0 0 0 127 0" result="hardAlpha"/>
<feOffset dy="4"/>
<feGaussianBlur stdDeviation="2"/>
<feComposite in2="hardAlpha" operator="arithmetic" k2="-1" k3="1"/>
<feColorMatrix type="matrix" values="0 0 0 0 0.356863 0 0 0 0 0.92549 0 0 0 0 1 0 0 0 1 0"/>
<feBlend mode="normal" in2="effect3_innerShadow_34_75" result="effect4_innerShadow_34_75"/>
<feColorMatrix in="SourceAlpha" type="matrix" values="0 0 0 0 0 0 0 0 0 0 0 0 0 0 0 0 0 0 127 0" result="hardAlpha"/>
<feOffset dx="4"/>
<feGaussianBlur stdDeviation="2"/>
<feComposite in2="hardAlpha" operator="arithmetic" k2="-1" k3="1"/>
<feColorMatrix type="matrix" values="0 0 0 0 0.356863 0 0 0 0 0.92549 0 0 0 0 1 0 0 0 1 0"/>
<feBlend mode="normal" in2="effect4_innerShadow_34_75" result="effect5_innerShadow_34_75"/>
</filter>
<filter id="filter1_iiii_34_75" x="46" y="42" width="489.5" height="488" filterUnits="userSpaceOnUse" color-interpolation-filters="sRGB">
<feFlood flood-opacity="0" result="BackgroundImageFix"/>
<feBlend mode="normal" in="SourceGraphic" in2="BackgroundImageFix" result="shape"/>
<feColorMatrix in="SourceAlpha" type="matrix" values="0 0 0 0 0 0 0 0 0 0 0 0 0 0 0 0 0 0 127 0" result="hardAlpha"/>
<feOffset dx="-4"/>
<feGaussianBlur stdDeviation="2"/>
<feComposite in2="hardAlpha" operator="arithmetic" k2="-1" k3="1"/>
<feColorMatrix type="matrix" values="0 0 0 0 0 0 0 0 0 0 0 0 0 0 0 0 0 0 0.25 0"/>
<feBlend mode="normal" in2="shape" result="effect1_innerShadow_34_75"/>
<feColorMatrix in="SourceAlpha" type="matrix" values="0 0 0 0 0 0 0 0 0 0 0 0 0 0 0 0 0 0 127 0" result="hardAlpha"/>
<feOffset dy="-4"/>
<feGaussianBlur stdDeviation="2"/>
<feComposite in2="hardAlpha" operator="arithmetic" k2="-1" k3="1"/>
<feColorMatrix type="matrix" values="0 0 0 0 0 0 0 0 0 0 0 0 0 0 0 0 0 0 0.25 0"/>
<feBlend mode="normal" in2="effect1_innerShadow_34_75" result="effect2_innerShadow_34_75"/>
<feColorMatrix in="SourceAlpha" type="matrix" values="0 0 0 0 0 0 0 0 0 0 0 0 0 0 0 0 0 0 127 0" result="hardAlpha"/>
<feOffset dx="4"/>
<feGaussianBlur stdDeviation="2"/>
<feComposite in2="hardAlpha" operator="arithmetic" k2="-1" k3="1"/>
<feColorMatrix type="matrix" values="0 0 0 0 0 0 0 0 0 0 0 0 0 0 0 0 0 0 0.25 0"/>
<feBlend mode="normal" in2="effect2_innerShadow_34_75" result="effect3_innerShadow_34_75"/>
<feColorMatrix in="SourceAlpha" type="matrix" values="0 0 0 0 0 0 0 0 0 0 0 0 0 0 0 0 0 0 127 0" result="hardAlpha"/>
<feOffset dy="4"/>
<feGaussianBlur stdDeviation="2"/>
<feComposite in2="hardAlpha" operator="arithmetic" k2="-1" k3="1"/>
<feColorMatrix type="matrix" values="0 0 0 0 0 0 0 0 0 0 0 0 0 0 0 0 0 0 0.25 0"/>
<feBlend mode="normal" in2="effect3_innerShadow_34_75" result="effect4_innerShadow_34_75"/>
</filter>
</defs>
</svg>
