<svg width="525" height="483" viewBox="0 0 525 483" fill="none" xmlns="http://www.w3.org/2000/svg">
<g filter="url(#filter0_ddddi_37_69)">
<path d="M250.626 236L174.626 366.5H325.626L250.626 236Z" fill="white"/>
<path d="M143.626 473L126.626 443.5L108.126 473L95.6257 472.5L119.626 432L111.126 418L106.126 425.5H100.626L98.6257 423V420L106.126 408H118.126L151.126 464.5L157.626 460.5L162.126 463.5V468.5L155.126 473H143.626Z" fill="white" stroke="white"/>
<path d="M250.126 201L154.126 366.5H84.6257L215.126 139L170.126 61L141.626 109.5L109.626 106L97.6257 81L138.626 9H205.126L382.626 321.5L422.126 298L447.126 311.5V342.5L408.126 366.5H345.626L250.126 201Z" fill="#FF4D4D" stroke="#FF4D4D"/>
<path d="M444.5 473.5H433V409H446L475.5 453L504.5 409H516.5V473.5H505.5L504.5 429.5L482 464.5H467.5L444.5 429.5V473.5Z" fill="#FF4D4D" stroke="#FF4D4D"/>
<path d="M331.126 454.685C313.626 481.684 279.126 463.685 277.126 447.185C275.126 415.585 297.459 412.018 308.626 413.185C316.126 413.968 328.626 420.685 331.126 427.185" stroke="#FF4D4D" stroke-width="12"/>
<path d="M247.126 454.685C229.626 481.684 195.126 463.685 193.126 447.185C191.126 415.585 213.459 412.018 224.626 413.185C232.126 413.968 244.626 420.685 247.126 427.185" stroke="#FF4D4D" stroke-width="12"/>
<circle cx="383.5" cy="440.5" r="28.5" stroke="#FF4D4D" stroke-width="12"/>
<path d="M68.126 454.685C50.6259 481.684 16.1259 463.685 14.1259 447.185C12.1259 415.585 34.4593 412.018 45.626 413.185C53.1261 413.968 65.6261 420.685 68.126 427.185" stroke="#FF4D4D" stroke-width="12"/>
</g>
<defs>
<filter id="filter0_ddddi_37_69" x="0.00109863" y="0.5" width="524.999" height="485.5" filterUnits="userSpaceOnUse" color-interpolation-filters="sRGB">
<feFlood flood-opacity="0" result="BackgroundImageFix"/>
<feColorMatrix in="SourceAlpha" type="matrix" values="0 0 0 0 0 0 0 0 0 0 0 0 0 0 0 0 0 0 127 0" result="hardAlpha"/>
<feOffset dx="-4"/>
<feGaussianBlur stdDeviation="2"/>
<feComposite in2="hardAlpha" operator="out"/>
<feColorMatrix type="matrix" values="0 0 0 0 1 0 0 0 0 0 0 0 0 0 0 0 0 0 1 0"/>
<feBlend mode="normal" in2="BackgroundImageFix" result="effect1_dropShadow_37_69"/>
<feColorMatrix in="SourceAlpha" type="matrix" values="0 0 0 0 0 0 0 0 0 0 0 0 0 0 0 0 0 0 127 0" result="hardAlpha"/>
<feOffset dy="-4"/>
<feGaussianBlur stdDeviation="2"/>
<feComposite in2="hardAlpha" operator="out"/>
<feColorMatrix type="matrix" values="0 0 0 0 1 0 0 0 0 0 0 0 0 0 0 0 0 0 1 0"/>
<feBlend mode="normal" in2="effect1_dropShadow_37_69" result="effect2_dropShadow_37_69"/>
<feColorMatrix in="SourceAlpha" type="matrix" values="0 0 0 0 0 0 0 0 0 0 0 0 0 0 0 0 0 0 127 0" result="hardAlpha"/>
<feOffset dx="4"/>
<feGaussianBlur stdDeviation="2"/>
<feComposite in2="hardAlpha" operator="out"/>
<feColorMatrix type="matrix" values="0 0 0 0 1 0 0 0 0 0 0 0 0 0 0 0 0 0 1 0"/>
<feBlend mode="normal" in2="effect2_dropShadow_37_69" result="effect3_dropShadow_37_69"/>
<feColorMatrix in="SourceAlpha" type="matrix" values="0 0 0 0 0 0 0 0 0 0 0 0 0 0 0 0 0 0 127 0" result="hardAlpha"/>
<feOffset dy="4"/>
<feGaussianBlur stdDeviation="2"/>
<feComposite in2="hardAlpha" operator="out"/>
<feColorMatrix type="matrix" values="0 0 0 0 1 0 0 0 0 0 0 0 0 0 0 0 0 0 1 0"/>
<feBlend mode="normal" in2="effect3_dropShadow_37_69" result="effect4_dropShadow_37_69"/>
<feBlend mode="normal" in="SourceGraphic" in2="effect4_dropShadow_37_69" result="shape"/>
<feColorMatrix in="SourceAlpha" type="matrix" values="0 0 0 0 0 0 0 0 0 0 0 0 0 0 0 0 0 0 127 0" result="hardAlpha"/>
<feOffset dy="4"/>
<feGaussianBlur stdDeviation="25"/>
<feComposite in2="hardAlpha" operator="arithmetic" k2="-1" k3="1"/>
<feColorMatrix type="matrix" values="0 0 0 0 1 0 0 0 0 0 0 0 0 0 0 0 0 0 0.5 0"/>
<feBlend mode="normal" in2="shape" result="effect5_innerShadow_37_69"/>
</filter>
</defs>
</svg>
