<svg xmlns="http://www.w3.org/2000/svg" width="196" height="207" fill="none"><g filter="url(#a)"><path stroke="#FDFFE3" stroke-width="3.548" d="M20.5 144.742v-83.5L97.245 20 175.5 61.242v82.048m-155 1.452L98.604 187l76.896-43.71m-155 1.452 155-1.452"/><path fill="#FDFFE3" d="M28.96 73.547v1.708a.69.69 0 0 1-.215.504.688.688 0 0 1-.507.206.703.703 0 0 1-.721-.71v-1.708h-.738a.733.733 0 0 1-.515-.198.676.676 0 0 1-.206-.495c0-.187.069-.35.206-.487a.717.717 0 0 1 .515-.206h.721v-1.584h-.72a.733.733 0 0 1-.516-.198.676.676 0 0 1-.206-.495.66.66 0 0 1 .206-.495.733.733 0 0 1 .515-.198h.738v-1.708a.65.65 0 0 1 .206-.487.717.717 0 0 1 .515-.206c.195 0 .364.068.507.206.143.137.214.3.214.487v1.708h1.443v-1.708c0-.193.071-.355.214-.487a.706.706 0 0 1 .507-.206c.2 0 .372.068.515.206.148.137.223.3.223.487v1.708h.738c.195 0 .363.068.507.206a.637.637 0 0 1 .214.487.649.649 0 0 1-.232.503.728.728 0 0 1-.489.206h-.721v1.568h.721c.189 0 .355.069.498.206.149.138.223.3.223.487a.685.685 0 0 1-.206.487.68.68 0 0 1-.515.206h-.738v1.708c0 .193-.075.36-.223.504a.717.717 0 0 1-.515.206.706.706 0 0 1-.507-.206.689.689 0 0 1-.214-.504v-1.708h-1.443Zm0-2.954v1.568h1.442v-1.568h-1.443Zm10.6-4.413h.756c.2 0 .369.068.506.205a.636.636 0 0 1 .215.487v.594c0 .193-.072.36-.215.504a.688.688 0 0 1-.506.206h-.773a.713.713 0 0 1-.524-.215.644.644 0 0 1-.197-.478l.017-.61c0-.193.069-.356.206-.488a.717.717 0 0 1 .515-.206Zm2.936 11.56H38.1a.733.733 0 0 1-.515-.199.676.676 0 0 1-.206-.495c0-.187.069-.35.206-.487a.717.717 0 0 1 .515-.206h1.476V71.18h-1.459a.717.717 0 0 1-.515-.207.666.666 0 0 1-.206-.487c0-.192.069-.357.206-.495a.702.702 0 0 1 .515-.214h2.198c.2 0 .369.071.506.214a.662.662 0 0 1 .215.495v5.867h1.442c.2 0 .372.069.515.206a.626.626 0 0 1 .223.487.662.662 0 0 1-.215.495.722.722 0 0 1-.506.198Zm8.206-6.338-1.966 1.23v4.43c0 .188-.072.35-.215.487a.706.706 0 0 1-.506.207.706.706 0 0 1-.507-.207.654.654 0 0 1-.214-.486v-6.576c0-.193.069-.358.206-.496a.702.702 0 0 1 .515-.214.69.69 0 0 1 .506.214.662.662 0 0 1 .215.496v.462l1.313-.768c.441-.27.939-.404 1.494-.404h.67a2.1 2.1 0 0 1 1.484.586c.418.39.639.872.661 1.444l.198 5.256a.625.625 0 0 1-.206.486.716.716 0 0 1-.515.207.748.748 0 0 1-.498-.182.675.675 0 0 1-.223-.511l-.215-5.174c-.017-.484-.28-.726-.79-.726h-.703c-.218 0-.452.08-.704.24Zm13.768 6.354h-3.08c-.544 0-1.007-.157-1.39-.47l-1.4-1.172c-.446-.358-.67-.842-.67-1.452v-1.807c-.022-.589.23-1.1.756-1.535l1.262-1.048c.406-.319.841-.479 1.305-.479h3.236c.2 0 .369.07.506.207a.637.637 0 0 1 .215.487.645.645 0 0 1-.215.495.702.702 0 0 1-.506.198H61.39a.859.859 0 0 0-.558.222l-1.159.95a.758.758 0 0 0-.283.618v1.692c0 .181.074.335.223.462l1.27 1.04c.16.137.373.206.636.206h2.953c.194 0 .363.069.506.206a.636.636 0 0 1 .215.487.662.662 0 0 1-.215.495.703.703 0 0 1-.506.198Zm9.88-.001h-4.36a.703.703 0 0 1-.721-.71c0-.186.069-.348.206-.486a.717.717 0 0 1 .515-.206h1.442v-8.177h-1.459a.732.732 0 0 1-.515-.198.675.675 0 0 1-.206-.495.65.65 0 0 1 .206-.487.717.717 0 0 1 .515-.206h2.198c.194 0 .363.068.506.206.143.137.214.3.214.487v8.87h1.46c.194 0 .363.069.506.206.143.138.215.3.215.487a.69.69 0 0 1-.215.503.688.688 0 0 1-.506.206Zm8.224-1.402 2.43-1.485v-4.381c0-.193.068-.358.205-.496a.703.703 0 0 1 .515-.214c.2 0 .37.071.507.214a.662.662 0 0 1 .214.496v6.576a.65.65 0 0 1-.214.486.706.706 0 0 1-.507.207.706.706 0 0 1-.506-.207.653.653 0 0 1-.215-.486v-.545l-1.253.784c-.492.302-.99.454-1.494.454h-.67a2.15 2.15 0 0 1-1.519-.594 2.062 2.062 0 0 1-.678-1.453l-.206-5.222a.59.59 0 0 1 .198-.48.731.731 0 0 1 .523-.214.68.68 0 0 1 .498.207c.143.137.218.3.224.487l.188 5.124c.018.495.312.742.885.742h.875Zm12.996-5.595v-3.275a.65.65 0 0 1 .207-.487.678.678 0 0 1 .497-.206c.2 0 .372.068.516.206a.626.626 0 0 1 .223.487v9.58a.662.662 0 0 1-.215.494.722.722 0 0 1-.506.198.714.714 0 0 1-.516-.198.676.676 0 0 1-.206-.495v-.305c-.703.666-1.361.998-1.974.998H92.37c-.492 0-.985-.203-1.477-.61l-.6-.487c-.138-.127-.27-.338-.395-.635a2.23 2.23 0 0 1-.18-.834v-2.822c0-.313.068-.616.205-.907.138-.297.298-.52.481-.669l.592-.486a2.264 2.264 0 0 1 1.494-.529h1.039c.566 0 1.081.193 1.545.578l.498.404Zm-2.094.421h-1.004a.858.858 0 0 0-.575.223l-.464.388a.665.665 0 0 0-.24.528v2.937c0 .193.094.366.283.52l.472.388a.72.72 0 0 0 .472.19h1.176c.155 0 .338-.085.55-.256l1.141-.908a.747.747 0 0 0 .283-.594v-1.501c0-.336-.1-.584-.3-.743l-1.176-.966c-.154-.137-.36-.206-.618-.206Zm14.172 1.221v1.676c0 .187-.072.35-.215.487a.706.706 0 0 1-.506.206h-5.099v.404c0 .237.106.438.318.603l.42.338c.229.17.446.256.653.256h3.708c.194 0 .363.069.506.206a.637.637 0 0 1 .215.487c0 .187-.075.35-.223.487a.696.696 0 0 1-.498.206h-3.803c-.252 0-.518-.05-.798-.149-.275-.104-.478-.211-.61-.321l-.643-.545a1.806 1.806 0 0 1-.507-.644 1.77 1.77 0 0 1-.197-.759v-3.176c0-.182.071-.427.214-.735.149-.308.335-.547.558-.718l.601-.454a2.086 2.086 0 0 1 1.313-.462h2.026c.51 0 .99.204 1.442.611l.541.495c.389.336.584.836.584 1.502Zm-5.803-.106v1.072h4.378v-.965c0-.259-.083-.457-.249-.594l-.421-.355c-.217-.17-.412-.256-.583-.256h-1.812a.943.943 0 0 0-.609.223l-.421.338a.637.637 0 0 0-.283.537Zm9.159.239v-.537c0-.275.146-.495.438-.66l5.683-3.226a.851.851 0 0 1 .463-.149.69.69 0 0 1 .49.207.662.662 0 0 1 .223.503c0 .259-.106.448-.318.57l-5.313 3.02 5.313 3.011a.647.647 0 0 1 .318.586.662.662 0 0 1-.223.503.69.69 0 0 1-.49.206.914.914 0 0 1-.463-.148l-5.683-3.226c-.292-.154-.438-.374-.438-.66Zm14.576 3.837h2.601c.2 0 .371.068.515.206a.653.653 0 0 1 0 .982.735.735 0 0 1-.515.198h-2.696c-.343 0-.698-.105-1.064-.314-.366-.21-.621-.443-.764-.701l-1.665-3.095a3.015 3.015 0 0 1-.335-1.37c0-.516.106-.965.317-1.344l1.683-3.061c.16-.287.409-.537.747-.751.337-.22.663-.33.978-.33h2.85c.2 0 .369.068.506.206a.65.65 0 0 1 .215.487c0 .192-.071.36-.215.503a.687.687 0 0 1-.506.206h-2.747c-.229 0-.415.13-.558.388l-1.596 2.871a1.615 1.615 0 0 0-.189.8c0 .325.068.611.206.859l1.528 2.822a.729.729 0 0 0 .704.437Zm6.704.42 2.918-9.48c.115-.347.355-.52.721-.52.355 0 .578.145.67.437l2.875 9.63a.674.674 0 0 1-.171.7.663.663 0 0 1-.472.198c-.378 0-.618-.167-.721-.503l-.584-1.881h-3.288l-.635 2.013c-.017.088-.089.173-.215.256a.774.774 0 0 1-.412.115.708.708 0 0 1-.729-.71c0-.082.014-.167.043-.255Zm3.622-6.79-1.236 3.968h2.429L135.906 70Zm9.838 3.382h1.459a.71.71 0 0 1 .507.207.636.636 0 0 1 .214.486v1.18c0 .193-.071.36-.214.504a.69.69 0 0 1-.507.206h-1.476a.717.717 0 0 1-.515-.206.667.667 0 0 1-.206-.487v-1.197c0-.192.071-.354.214-.486a.73.73 0 0 1 .524-.207Zm7.716 3.681v-9.58a.64.64 0 0 1 .206-.479.733.733 0 0 1 .515-.198c.2 0 .369.069.506.206a.634.634 0 0 1 .215.487v3.499l1.159-.726c.526-.32.996-.479 1.408-.479h.892c.59 0 1.096.204 1.52.61.423.402.644.892.661 1.47l.18 5.19a.634.634 0 0 1-.206.495.733.733 0 0 1-.515.198.721.721 0 0 1-.721-.693l-.18-5.207a.686.686 0 0 0-.224-.487.716.716 0 0 0-.515-.206h-.807c-.183 0-.383.069-.6.206l-2.052 1.287v4.406a.66.66 0 0 1-.215.496.702.702 0 0 1-.506.198.733.733 0 0 1-.515-.198.677.677 0 0 1-.206-.496Zm18.112-5.067v.537c0 .28-.14.5-.42.66l-5.683 3.226a.926.926 0 0 1-.472.148.733.733 0 0 1-.498-.197.655.655 0 0 1-.214-.504c0-.264.108-.456.326-.578l5.305-3.028-5.305-3.003a.649.649 0 0 1-.326-.594c0-.204.071-.371.214-.504a.733.733 0 0 1 .498-.198.96.96 0 0 1 .472.149l5.683 3.226c.28.16.42.38.42.66ZM34.121 120.955h6.226c.48 0 .891.164 1.233.494.357.316.535.704.535 1.165 0 .461-.178.856-.535 1.185a1.755 1.755 0 0 1-1.233.474h-6.452c-.822 0-1.671-.25-2.548-.75-.877-.501-1.487-1.06-1.829-1.679l-3.987-7.408c-.534-1.066-.801-2.159-.801-3.279 0-1.238.253-2.311.76-3.219l4.028-7.329c.384-.685.98-1.284 1.788-1.797.808-.527 1.589-.79 2.342-.79h6.823c.48 0 .884.164 1.212.493.343.33.514.718.514 1.166 0 .461-.171.862-.514 1.205a1.648 1.648 0 0 1-1.212.494h-6.576c-.548 0-.993.309-1.336.928l-3.822 6.874c-.301.54-.452 1.179-.452 1.916 0 .777.164 1.462.493 2.054l3.658 6.756c.343.698.904 1.047 1.685 1.047Zm16.049 1.007 6.987-22.696c.274-.83.85-1.245 1.726-1.245.85 0 1.384.35 1.603 1.047l6.884 23.052a1.616 1.616 0 0 1-.411 1.679c-.329.316-.706.474-1.13.474-.904 0-1.48-.401-1.726-1.205l-1.398-4.503h-7.87l-1.52 4.819c-.042.211-.213.415-.514.613a1.86 1.86 0 0 1-.987.276c-.507 0-.925-.164-1.253-.494a1.639 1.639 0 0 1-.494-1.205c0-.197.035-.401.103-.612Zm8.672-16.257-2.96 9.502h5.816l-2.856-9.502Zm18.33-7.683h13.974c.452 0 .849.164 1.191.493.357.33.535.718.535 1.166 0 .461-.171.862-.514 1.205a1.693 1.693 0 0 1-1.213.494h-5.219v19.575h5.22c.479 0 .883.164 1.212.494.343.316.514.704.514 1.165 0 .461-.171.856-.514 1.185a1.73 1.73 0 0 1-1.213.474H77.172c-.48 0-.89-.158-1.233-.474a1.616 1.616 0 0 1-.493-1.185c0-.461.164-.849.493-1.165.343-.33.754-.494 1.233-.494h5.302V101.38h-5.302c-.48 0-.89-.165-1.233-.494a1.597 1.597 0 0 1-.493-1.166c0-.474.164-.876.493-1.205a1.718 1.718 0 0 1 1.233-.493Zm41.12 1.698v24.553h-4.645l-9.288-20.385v18.726c0 .461-.171.856-.514 1.185a1.681 1.681 0 0 1-1.212.474c-.48 0-.891-.158-1.233-.474a1.616 1.616 0 0 1-.493-1.185V98.021h4.582l9.309 20.346V99.72c0-.46.171-.856.514-1.185a1.75 1.75 0 0 1 1.253-.513c.48 0 .884.164 1.213.493.342.33.514.731.514 1.205Zm8.035 22.894V98.021h15.658c.452 0 .85.165 1.192.494.356.33.534.718.534 1.166 0 .461-.171.862-.513 1.205a1.694 1.694 0 0 1-1.213.494h-12.206v5.214h8.754c.479 0 .884.165 1.212.494.343.316.514.705.514 1.166 0 .46-.171.856-.514 1.185a1.681 1.681 0 0 1-1.212.474h-8.754v12.701c0 .461-.171.856-.514 1.185a1.683 1.683 0 0 1-1.212.474c-.48 0-.891-.158-1.233-.474a1.616 1.616 0 0 1-.493-1.185Zm38.201-22.163 3.802 7.447a6.973 6.973 0 0 1 .801 3.299 7.007 7.007 0 0 1-.801 3.279l-3.802 7.368c-.808 1.619-2.178 2.429-4.11 2.429-.918 0-1.747-.23-2.486-.691-.727-.461-1.275-1.04-1.644-1.738l-3.823-7.368c-.506-.962-.76-2.055-.76-3.279 0-1.225.254-2.325.76-3.299l3.823-7.447c.863-1.62 2.239-2.43 4.13-2.43 1.918 0 3.288.81 4.11 2.43Zm-5.261 1.659-3.575 6.993c-.329.698-.494 1.383-.494 2.054 0 .725.165 1.416.494 2.074l3.678 7.072c.192.434.541.652 1.048.652.438 0 .774-.218 1.007-.652l3.699-7.072c.342-.698.514-1.389.514-2.074 0-.724-.172-1.409-.514-2.054l-3.617-6.993c-.233-.513-.596-.77-1.089-.77s-.877.257-1.151.77Z"/><path fill="#FDFFE3" stroke="#FDFFE3" stroke-width=".355" d="m99.672 173.905-2.215-1.179 1.714-2.929h1.425l.752 1.253-1.676 2.855Zm1.502-7.166h-7.049l3.37-5.748 3.679 5.748Zm-17.431.602.05.091h9.49l.051-.087 4.314-7.314.055-.093-.057-.092-1.252-1.99-.156-.246-.147.251-4.205 7.153h-9.447l.148.264 1.156 2.063Z"/><path fill="#FDFFE3" stroke="#FDFFE3" stroke-width=".355" d="M100.885 169.3h-8.84l1.194-2.008h8.898l4.777 7.498-1.271 2.045-4.758-7.535Zm3.679-17.152h-2.523l-4.545 7.793 4.661 7.332h2.465l-4.642-7.388 4.584-7.737Z"/><path fill="#FDFFE3" stroke="#FDFFE3" stroke-width=".355" d="M101.309 161.046c-.046 0-.495-.786-.713-1.179l.713-1.234h3.486v2.413h-3.486Zm-11.113 3.648-1.675-2.874 2.176-1.179 1.714 2.874-.751 1.179h-1.464Z"/></g><defs><filter id="a" width="194.025" height="206.515" x=".987" y=".252" color-interpolation-filters="sRGB" filterUnits="userSpaceOnUse"><feFlood flood-opacity="0" result="BackgroundImageFix"/><feColorMatrix in="SourceAlpha" result="hardAlpha" values="0 0 0 0 0 0 0 0 0 0 0 0 0 0 0 0 0 0 127 0"/><feOffset/><feGaussianBlur stdDeviation="8.869"/><feColorMatrix values="0 0 0 0 0.956863 0 0 0 0 1 0 0 0 0 0.380392 0 0 0 0.61 0"/><feBlend in2="BackgroundImageFix" result="effect1_dropShadow_209_80"/><feBlend in="SourceGraphic" in2="effect1_dropShadow_209_80" result="shape"/><feColorMatrix in="SourceAlpha" result="hardAlpha" values="0 0 0 0 0 0 0 0 0 0 0 0 0 0 0 0 0 0 127 0"/><feOffset dx="-1.419"/><feGaussianBlur stdDeviation=".71"/><feComposite in2="hardAlpha" k2="-1" k3="1" operator="arithmetic"/><feColorMatrix values="0 0 0 0 0.956863 0 0 0 0 1 0 0 0 0 0.376471 0 0 0 1 0"/><feBlend in2="shape" mode="color-burn" result="effect2_innerShadow_209_80"/><feColorMatrix in="SourceAlpha" result="hardAlpha" values="0 0 0 0 0 0 0 0 0 0 0 0 0 0 0 0 0 0 127 0"/><feOffset dx="1.419"/><feGaussianBlur stdDeviation=".71"/><feComposite in2="hardAlpha" k2="-1" k3="1" operator="arithmetic"/><feColorMatrix values="0 0 0 0 0.956863 0 0 0 0 1 0 0 0 0 0.376471 0 0 0 1 0"/><feBlend in2="effect2_innerShadow_209_80" mode="color-burn" result="effect3_innerShadow_209_80"/><feColorMatrix in="SourceAlpha" result="hardAlpha" values="0 0 0 0 0 0 0 0 0 0 0 0 0 0 0 0 0 0 127 0"/><feOffset dy="-1.419"/><feGaussianBlur stdDeviation=".71"/><feComposite in2="hardAlpha" k2="-1" k3="1" operator="arithmetic"/><feColorMatrix values="0 0 0 0 0.956863 0 0 0 0 1 0 0 0 0 0.376471 0 0 0 1 0"/><feBlend in2="effect3_innerShadow_209_80" mode="color-burn" result="effect4_innerShadow_209_80"/><feColorMatrix in="SourceAlpha" result="hardAlpha" values="0 0 0 0 0 0 0 0 0 0 0 0 0 0 0 0 0 0 127 0"/><feOffset dy="1.419"/><feGaussianBlur stdDeviation=".71"/><feComposite in2="hardAlpha" k2="-1" k3="1" operator="arithmetic"/><feColorMatrix values="0 0 0 0 0.956863 0 0 0 0 1 0 0 0 0 0.376471 0 0 0 1 0"/><feBlend in2="effect4_innerShadow_209_80" mode="color-burn" result="effect5_innerShadow_209_80"/></filter></defs></svg>