<svg xmlns="http://www.w3.org/2000/svg" width="855" height="843" fill="none"><g filter="url(#a)"><path stroke="#FF61C6" stroke-linejoin="round" stroke-width="11" d="M228.5 75v234h159V71H546m-238 0v159"/><path stroke="#FF61C6" stroke-linejoin="round" stroke-width="11" d="M231.5 388H546v237M307.5 467.5h159m0-161.5V150.5H704V73m79 234v81H625v263.5m-475-187V148m-79.5 78.5V385"/><path stroke="#FF61C6" stroke-linejoin="round" stroke-width="11" d="M783.5 150.5v79H546V307m77.5 1.5H702"/><circle cx="229" cy="71" r="21" fill="#FF61C6"/><circle cx="308" cy="71" r="21" fill="#FF61C6"/><circle cx="308" cy="229" r="21" fill="#FF61C6"/><circle cx="228" cy="388" r="21" fill="#FF61C6"/><circle cx="308" cy="467" r="21" fill="#FF61C6"/><circle cx="150" cy="467" r="21" fill="#FF61C6"/><circle cx="71" cy="388" r="21" fill="#FF61C6"/><circle cx="71" cy="230" r="21" fill="#FF61C6"/><circle cx="150" cy="150" r="21" fill="#FF61C6"/><circle cx="467" cy="467" r="21" fill="#FF61C6"/><circle cx="546" cy="626" r="21" fill="#FF61C6"/><circle cx="625" cy="652" r="21" fill="#FF61C6"/><circle cx="546" cy="71" r="21" fill="#FF61C6"/><circle cx="467" cy="309" r="21" fill="#FF61C6"/><circle cx="546" cy="309" r="21" fill="#FF61C6"/><circle cx="546" cy="309" r="21" fill="#FF61C6"/><circle cx="625" cy="309" r="21" fill="#FF61C6"/><circle cx="704" cy="309" r="21" fill="#FF61C6"/><circle cx="704" cy="71" r="21" fill="#FF61C6"/><circle cx="784" cy="151" r="21" fill="#FF61C6"/><circle cx="783" cy="309" r="21" fill="#FF61C6"/><path stroke="#FF61C6" stroke-width="11" d="M674 785.5h24c19 0 22.5-31-3.5-31-25 0-24-30.5-.5-30.5h21.5M613 791v-31m42.5 31v-31m-42.5 0v-17.5c0-9.5 9.5-19.5 21.5-19.5s21 10.5 21 19.5V760m-42.5 0h42.5m-104-36v61.5H570c16 0 22.5-11 22.5-22.5v-17c0-9.5-5-22-22.5-22h-18.5ZM488 791v-31m42.5 31v-31m-42.5 0v-17.5c0-9.5 9.5-19.5 21.5-19.5s21 10.5 21 19.5V760m-42.5 0h42.5M455 791v-67m0 0h-25m25 0h25.5"/><path stroke="#FF61C6" stroke-miterlimit="4.069" stroke-width="11" d="M418.501 736.687C408.5 717.688 386.75 719.689 379 735.188c-1.5 3.001-2 3.001-2 19 0 16-.063 15.875 2 20 7.751 15.5 29.501 18 39.501-1"/><path stroke="#FF61C6" stroke-width="11" d="M365.5 724H325v30.75m40.5 30.75H325v-30.75m0 0h36m-99 36.249V746c0-20 15.5-23 21.5-23s21 4 21 23v44.999M199 741.5c0-4.833 7.5-18.5 21.5-18.5s20.911 13.5 20.911 18.5v26c0 5.853-7.411 19-20.911 19-13.5 0-21.5-11.893-21.5-19v-26Z"/><path stroke="#FF61C6" stroke-miterlimit="4.069" stroke-width="11" d="M180.501 736.499C170.5 717.5 149.25 719.5 141.5 734.999 140 738 139 738 139 754s-.063 15.874 2 20c7.751 15.5 29.501 18 39.501-1"/></g><defs><filter id="a" width="855" height="842.132" x="0" y="0" color-interpolation-filters="sRGB" filterUnits="userSpaceOnUse"><feFlood flood-opacity="0" result="BackgroundImageFix"/><feColorMatrix in="SourceAlpha" result="hardAlpha" values="0 0 0 0 0 0 0 0 0 0 0 0 0 0 0 0 0 0 127 0"/><feOffset/><feGaussianBlur stdDeviation="25"/><feColorMatrix values="0 0 0 0 1 0 0 0 0 0.380392 0 0 0 0 0.776471 0 0 0 0.79 0"/><feBlend in2="BackgroundImageFix" result="effect1_dropShadow_24_79"/><feBlend in="SourceGraphic" in2="effect1_dropShadow_24_79" result="shape"/><feColorMatrix in="SourceAlpha" result="hardAlpha" values="0 0 0 0 0 0 0 0 0 0 0 0 0 0 0 0 0 0 127 0"/><feOffset dx="-4"/><feGaussianBlur stdDeviation="2"/><feComposite in2="hardAlpha" k2="-1" k3="1" operator="arithmetic"/><feColorMatrix values="0 0 0 0 0.596078 0 0 0 0 0.596078 0 0 0 0 0.596078 0 0 0 0.5 0"/><feBlend in2="shape" mode="color-burn" result="effect2_innerShadow_24_79"/><feColorMatrix in="SourceAlpha" result="hardAlpha" values="0 0 0 0 0 0 0 0 0 0 0 0 0 0 0 0 0 0 127 0"/><feOffset dx="4"/><feGaussianBlur stdDeviation="2"/><feComposite in2="hardAlpha" k2="-1" k3="1" operator="arithmetic"/><feColorMatrix values="0 0 0 0 0.596078 0 0 0 0 0.596078 0 0 0 0 0.596078 0 0 0 0.5 0"/><feBlend in2="effect2_innerShadow_24_79" mode="color-burn" result="effect3_innerShadow_24_79"/><feColorMatrix in="SourceAlpha" result="hardAlpha" values="0 0 0 0 0 0 0 0 0 0 0 0 0 0 0 0 0 0 127 0"/><feOffset dy="-4"/><feGaussianBlur stdDeviation="2"/><feComposite in2="hardAlpha" k2="-1" k3="1" operator="arithmetic"/><feColorMatrix values="0 0 0 0 0.596078 0 0 0 0 0.596078 0 0 0 0 0.596078 0 0 0 0.5 0"/><feBlend in2="effect3_innerShadow_24_79" mode="color-burn" result="effect4_innerShadow_24_79"/><feColorMatrix in="SourceAlpha" result="hardAlpha" values="0 0 0 0 0 0 0 0 0 0 0 0 0 0 0 0 0 0 127 0"/><feOffset dy="4"/><feGaussianBlur stdDeviation="2"/><feComposite in2="hardAlpha" k2="-1" k3="1" operator="arithmetic"/><feColorMatrix values="0 0 0 0 0.596078 0 0 0 0 0.596078 0 0 0 0 0.596078 0 0 0 0.5 0"/><feBlend in2="effect4_innerShadow_24_79" mode="color-burn" result="effect5_innerShadow_24_79"/></filter></defs></svg>