<svg xmlns="http://www.w3.org/2000/svg" width="829" height="385" fill="none"><g fill="#FFE2C8" filter="url(#a)"><path d="M463 269h-75v-3.5l6-3.5 9-7.5 4-11.5 21.5-114 2-17.5 3-2.5 39-8 3.5-16-41.5 8.5-1-1.5V80.5l2-3.5v-8l-2-5-5-4-6.5-2 3-3 70.5-2 3 2v3l-8 4-6 7-3.5 8v3.5l19.5-3.5 35-5.5L568 67l27-3 31.5-2H697l22 2 21.5 4.5 17.5 5 7.5 5 7 6.5 4 8.5 2 5V116l-3.5 10.5-5 9.5-12 17-30 30-31 21.5-28 16 6.5-36 21.5-15 17.5-16.5 9-14 3.5-17-3.5-9-9-8-11.5-6.5-29.5-6.5-28-3.5h-47l-45 3.5-50.5 6.5-27 5L453.5 243v15l4 4 5.5 3.5v3.5Z"/><path d="m623.5 252.5 5-15.5v-2l40-15-3.5 19.5V255l3.5 6 6.5 4 1.5 1.5-1.5 3h-63l-1.5-1.5h-2l2-3 5.5-4 7.5-8.5Z"/><path d="M380.5 53h-37l-1.5 2v3l6 3.5 3.5 3.5 1.5 7-1.5 11.5-2 16-4 18-2 12H342l-3.5-4-9.5-4.5-10-5.5-14-2.5h-29.5l-14 2.5-15.5 4-12.5 6-14 9-11.5 9-9 10-8.5 12.5-4 9.5-4 2-20 8-23 10-29 14-23 16-17.5 15L58 257l-5 12-2.5 10 2.5 10.5 9.5 11 10.5 8 16 8.5 17 6.5 15.5 3.5 26.5 4h94.5l59-6 18.5-2.5 37-5.5 69-14 73.5-19.5L545 269h5.5l1.5-2-1.5-4-9-8v-11.5l3.5-18 1-6 1-8.5 1-4.5 1.5-9.5 1-6 1.5-12 4.5-14.5 5.5-12 9.5-9L582 140l13-2h10l6.5.5 7.5 3 4.5 2 3 2.5 5.5 5 5 9.5v28l-1.5 9.5-3.5 18-1.5 10-2 9 40.5-14.5 7-36.5 2.5-15v-21l-4-9.5L667 127l-9-6.5-11-4.5-11-1.5-11-2h-15l-14 2-14 4-12.5 8.5-7.5 6-1.5 2-1.5-2 3-3.5V122l2.5-7.5-2.5-2h-3l-4 2-7 1.5h-36l-2.5 3.5 2.5 2.5 6 5 2.5 4v17.5L512 196l-2.5 17-3.5 23-3.5 10-5.5 10.5-6.5 6.5-14 4-25.5 6.5-40.5 8.5-67.5 12-23 3-33.5 3.5-20 2H264l-40 1.5-29-1.5-15.5-2-11.5-3-15.5-5.5-8-6-6.5-7-3.5-6.5V262l3.5-10.5 6.5-9.5 6.5-6.5 11.5-11 17-12.5v8.5l3 8.5 6 10 10 12.5 11.5 8 14 7.5 20 4 7.5 1.5h33l4.5-1.5 23-25 4.5-5-1-2H312l-5 3-9.5 4-8.5 1.5h-16.5l-6-1.5-7.5-1.5-7.5-2.5-5.5-3-8-5.5-4.5-4.5-5.5-7.5-3-9.5-1-10.5 1-14.5 3-9.5 7-11.5 16.5-18 15-7 16-4h8.5l10.5 1.5 10.5 4 11 5.5 6 5.5 4 7.5 1.5 10v12.5l-3.5 20-4.5 27-5 26L320 267l1.5 1.5H373V265l-5-4.5-4-9.5v-12l31-189-.5-3.5h-3l-4 4.5-7 2Z"/></g><defs><filter id="a" width="828" height="384.5" x=".5" y=".5" color-interpolation-filters="sRGB" filterUnits="userSpaceOnUse"><feFlood flood-opacity="0" result="BackgroundImageFix"/><feColorMatrix in="SourceAlpha" result="hardAlpha" values="0 0 0 0 0 0 0 0 0 0 0 0 0 0 0 0 0 0 127 0"/><feOffset dy="4"/><feGaussianBlur stdDeviation="25"/><feComposite in2="hardAlpha" operator="out"/><feColorMatrix values="0 0 0 0 1 0 0 0 0 0.541176 0 0 0 0 0.117647 0 0 0 0.5 0"/><feBlend in2="BackgroundImageFix" result="effect1_dropShadow_310_62"/><feBlend in="SourceGraphic" in2="effect1_dropShadow_310_62" result="shape"/><feColorMatrix in="SourceAlpha" result="hardAlpha" values="0 0 0 0 0 0 0 0 0 0 0 0 0 0 0 0 0 0 127 0"/><feOffset dy="-4"/><feGaussianBlur stdDeviation="2"/><feComposite in2="hardAlpha" k2="-1" k3="1" operator="arithmetic"/><feColorMatrix values="0 0 0 0 1 0 0 0 0 0.541176 0 0 0 0 0.117647 0 0 0 1 0"/><feBlend in2="shape" result="effect2_innerShadow_310_62"/><feColorMatrix in="SourceAlpha" result="hardAlpha" values="0 0 0 0 0 0 0 0 0 0 0 0 0 0 0 0 0 0 127 0"/><feOffset dy="4"/><feGaussianBlur stdDeviation="2"/><feComposite in2="hardAlpha" k2="-1" k3="1" operator="arithmetic"/><feColorMatrix values="0 0 0 0 1 0 0 0 0 0.6 0 0 0 0 0 0 0 0 1 0"/><feBlend in2="effect2_innerShadow_310_62" result="effect3_innerShadow_310_62"/><feColorMatrix in="SourceAlpha" result="hardAlpha" values="0 0 0 0 0 0 0 0 0 0 0 0 0 0 0 0 0 0 127 0"/><feOffset dx="4"/><feGaussianBlur stdDeviation="2"/><feComposite in2="hardAlpha" k2="-1" k3="1" operator="arithmetic"/><feColorMatrix values="0 0 0 0 1 0 0 0 0 0.541176 0 0 0 0 0.117647 0 0 0 1 0"/><feBlend in2="effect3_innerShadow_310_62" result="effect4_innerShadow_310_62"/><feColorMatrix in="SourceAlpha" result="hardAlpha" values="0 0 0 0 0 0 0 0 0 0 0 0 0 0 0 0 0 0 127 0"/><feOffset dx="-4"/><feGaussianBlur stdDeviation="2"/><feComposite in2="hardAlpha" k2="-1" k3="1" operator="arithmetic"/><feColorMatrix values="0 0 0 0 1 0 0 0 0 0.541176 0 0 0 0 0.117647 0 0 0 1 0"/><feBlend in2="effect4_innerShadow_310_62" result="effect5_innerShadow_310_62"/></filter></defs></svg>