<svg xmlns="http://www.w3.org/2000/svg" width="472" height="470" fill="none"><g fill="#fff" filter="url(#a)"><path d="m300.5 461.5 22-8.5 10-4.5 9.5-4.5-40.5-97-41.5-98.5-101.5 209 10 4 13 3 12 2.5 11.5 1.5 11.5 1 12.5.5h11.5l12-.5 12.5-1 11.5-2 24-5Zm-213-43 133.5-253-22-50.5-7-14-6.5-12-4.5-7.5-4-5.5-8.5-10-10.5-6-11.5-4.5-13-2.5H123l-10.75.75-10.75.75-12 2-10 3.5-8.5 6-8 7-8 8.5-9.5 12-10.5 17-12 22L11.5 158l-8 31L0 218.5v30L2 272l5 23.5 7 22.5 10.5 24 13 21.5 14 19 15.5 18L77 411l10.5 7.5Zm340.5-316-22.5-29-29-25.5-31-20.5-37.5-16L286.5 6l-19-3.5L247 0h-19l-21.5 2.5L188 6l15 4.5 14 6 12.5 8 12 9.5 10 10.5 10 12.5 8 12 7 12.5 7 13L290 109l12 26.5 22 53 44 102L411 391l13.5-17.5L434 360l16-28 12-33 6.5-34.5 3-33.5-4.5-33.5-8-34-6-17-7-15-9-15.5-9-13.5Z"/></g><path stroke="#fff" stroke-width="2" d="m423.695 372.907-12.446 16.133-42.33-98.933-.001-.003-43.994-101.987-.006-.013-21.994-52.987-.006-.015-.007-.015-11.998-26.496-.002-.004-6.498-14.496-.015-.033-.018-.032-7-13-.003-.007-.005-.008-7-12.5-.018-.033-.022-.033-8-12-.024-.036-.027-.034-10-12.5-.027-.033-.03-.032-10-10.5-.048-.05-.055-.044-12-9.5-.04-.031-.042-.027-12.5-8-.069-.045-.076-.032-14-6-.052-.023-.055-.016-11.072-3.322 14.436-2.73L228.058 1h18.881l20.41 2.489 18.936 3.488 21.393 5.473 37.346 15.934 30.867 20.412 28.877 25.392 22.42 28.897 8.963 13.444 8.962 15.434 6.96 14.916 5.966 16.903 7.976 33.9 4.479 33.34-2.986 33.341-6.476 34.372-11.943 32.843-15.934 27.885-9.46 13.444Zm-91.623 74.689-9.958 4.481-21.898 8.461-23.904 4.98-11.438 1.989-12.435.995-11.96.498H229.02l-12.457-.498-11.455-.996-11.441-1.493-11.942-2.487-.021-.005-12.904-2.978-8.931-3.572 100.066-206.049 40.642 96.463.001.003 40.132 96.117-8.62 4.083-.018.008ZM219.891 165.459 87.15 417.021l-9.491-6.779-9.918-10.414-15.459-17.952-13.95-18.932-12.942-21.405-10.452-23.889-6.97-22.403-4.977-23.394L1 248.458v-29.899l3.485-29.374 7.962-30.852 11.449-25.387 11.969-21.943L46.32 94.075l9.438-11.92 7.937-8.434 7.924-6.934 8.343-5.89 9.787-3.425 11.868-1.978 10.703-.746L123.035 54h10.37l12.816 2.465 11.346 4.44 10.285 5.876 8.362 9.838 3.951 5.433 4.466 7.444 6.482 11.966 6.981 13.962 21.797 50.035Z"/><defs><filter id="a" width="479.5" height="478" x="-4" y="-4" color-interpolation-filters="sRGB" filterUnits="userSpaceOnUse"><feFlood flood-opacity="0" result="BackgroundImageFix"/><feBlend in="SourceGraphic" in2="BackgroundImageFix" result="shape"/><feColorMatrix in="SourceAlpha" result="hardAlpha" values="0 0 0 0 0 0 0 0 0 0 0 0 0 0 0 0 0 0 127 0"/><feOffset dx="-4"/><feGaussianBlur stdDeviation="2"/><feComposite in2="hardAlpha" k2="-1" k3="1" operator="arithmetic"/><feColorMatrix values="0 0 0 0 0 0 0 0 0 0 0 0 0 0 0 0 0 0 0.25 0"/><feBlend in2="shape" result="effect1_innerShadow_34_2"/><feColorMatrix in="SourceAlpha" result="hardAlpha" values="0 0 0 0 0 0 0 0 0 0 0 0 0 0 0 0 0 0 127 0"/><feOffset dy="-4"/><feGaussianBlur stdDeviation="2"/><feComposite in2="hardAlpha" k2="-1" k3="1" operator="arithmetic"/><feColorMatrix values="0 0 0 0 0 0 0 0 0 0 0 0 0 0 0 0 0 0 0.25 0"/><feBlend in2="effect1_innerShadow_34_2" result="effect2_innerShadow_34_2"/><feColorMatrix in="SourceAlpha" result="hardAlpha" values="0 0 0 0 0 0 0 0 0 0 0 0 0 0 0 0 0 0 127 0"/><feOffset dx="4"/><feGaussianBlur stdDeviation="2"/><feComposite in2="hardAlpha" k2="-1" k3="1" operator="arithmetic"/><feColorMatrix values="0 0 0 0 0 0 0 0 0 0 0 0 0 0 0 0 0 0 0.25 0"/><feBlend in2="effect2_innerShadow_34_2" result="effect3_innerShadow_34_2"/><feColorMatrix in="SourceAlpha" result="hardAlpha" values="0 0 0 0 0 0 0 0 0 0 0 0 0 0 0 0 0 0 127 0"/><feOffset dy="4"/><feGaussianBlur stdDeviation="2"/><feComposite in2="hardAlpha" k2="-1" k3="1" operator="arithmetic"/><feColorMatrix values="0 0 0 0 0 0 0 0 0 0 0 0 0 0 0 0 0 0 0.25 0"/><feBlend in2="effect3_innerShadow_34_2" result="effect4_innerShadow_34_2"/></filter></defs></svg>