<svg xmlns="http://www.w3.org/2000/svg" width="553" height="113" fill="none"><g filter="url(#a)"><path fill="#F4FF61" d="m41.847 47.626.703-.507c.885-.52 1.51-.781 1.873-.781.807 0 1.679.729 2.616 2.186.572.91.858 1.64.858 2.186s-.182 1.002-.546 1.366c-.338.364-.742.69-1.21.976-.468.286-.924.56-1.366.82-.417.26-1.288.598-2.615 1.014-1.328.417-2.616.625-3.865.625-1.223 0-2.472-.156-3.747-.468-1.25-.339-2.55-.885-3.904-1.64a17.137 17.137 0 0 1-3.59-2.81c-1.068-1.12-1.952-2.538-2.655-4.255-.677-1.744-1.015-3.63-1.015-5.66 0-2.03.338-3.864 1.015-5.504.677-1.665 1.535-3.031 2.576-4.098a14.941 14.941 0 0 1 3.63-2.733c2.55-1.405 5.114-2.108 7.69-2.108 1.223 0 2.46.196 3.708.586 1.276.364 2.238.742 2.889 1.132l.937.546c.468.287.832.52 1.093.703.676.546 1.015 1.171 1.015 1.874 0 .676-.274 1.392-.82 2.147-1.015 1.405-1.926 2.107-2.732 2.107-.469 0-1.133-.286-1.991-.858-1.093-.885-2.55-1.328-4.372-1.328-1.692 0-3.357.586-4.996 1.757-.781.572-1.432 1.38-1.952 2.42-.52 1.041-.78 2.225-.78 3.552 0 1.301.26 2.472.78 3.513s1.184 1.861 1.99 2.46c1.588 1.145 3.24 1.717 4.958 1.717.807 0 1.561-.104 2.264-.312.728-.209 1.249-.417 1.561-.625Zm8.615-17.682c0-.599.013-1.041.04-1.328.052-.312.182-.663.39-1.053.364-.703 1.38-1.054 3.044-1.054 1.822 0 2.902.481 3.24 1.444.13.442.195 1.119.195 2.03v21.703c0 .624-.026 1.08-.078 1.366-.026.286-.143.624-.35 1.015-.365.702-1.38 1.054-3.045 1.054-1.822 0-2.889-.495-3.201-1.484-.156-.416-.235-1.08-.235-1.99V29.944Zm16.935 18.268h12.022c.599 0 1.041.026 1.328.078.312.026.663.143 1.053.351.703.364 1.054 1.38 1.054 3.045 0 1.821-.481 2.888-1.444 3.2-.442.157-1.119.235-2.03.235H63.923c-1.822 0-2.889-.495-3.2-1.484-.157-.416-.235-1.08-.235-1.99V29.944c0-1.328.247-2.225.742-2.694.494-.494 1.43-.741 2.81-.741h15.38c.598 0 1.04.026 1.327.078.312.026.663.143 1.053.351.703.364 1.054 1.38 1.054 3.045 0 1.821-.481 2.888-1.444 3.2-.442.157-1.119.235-2.03.235H67.397v3.942h7.729c.598 0 1.04.026 1.327.078.312.026.663.143 1.054.352.702.364 1.054 1.379 1.054 3.044 0 1.822-.495 2.889-1.484 3.201-.442.156-1.119.234-2.03.234h-7.65v3.943Zm4.177-31.11.897.195c2.42.78 4.164 1.353 5.23 1.717 1.094.364 1.64 1.002 1.64 1.913 0 .494-.143 1.015-.429 1.561-.677 1.38-1.457 2.069-2.342 2.069-.234 0-.65-.091-1.25-.273l-3.746-1.64-3.63 1.562h-.04c-.52.182-.95.273-1.288.273-.989 0-1.795-.664-2.42-1.99-.312-.677-.468-1.224-.468-1.64 0-.833.494-1.419 1.483-1.757l5.426-1.795.937-.195Zm32.269 10.617c.26-.469.637-.78 1.132-.937.494-.156 1.106-.234 1.834-.234.755 0 1.354.065 1.796.195.468.13.807.286 1.015.468.234.183.403.456.507.82.157.416.235 1.08.235 1.99v21.665c0 .624-.026 1.08-.078 1.366-.026.286-.144.624-.352 1.015-.364.702-1.379 1.054-3.044 1.054-1.015 0-1.718-.078-2.108-.235a2.275 2.275 0 0 1-.976-.741c-5.855-7.807-9.707-12.907-11.554-15.302v12.843c0 .624-.026 1.08-.078 1.366-.026.286-.143.624-.352 1.015-.364.702-1.379 1.054-3.044 1.054-1.614 0-2.603-.352-2.967-1.054-.208-.39-.338-.742-.39-1.054a17.79 17.79 0 0 1-.04-1.366V29.866c0-.99.118-1.705.352-2.147.26-.469.638-.78 1.132-.937.495-.156 1.132-.234 1.913-.234.78 0 1.392.078 1.834.234.469.13.794.286.976.468.104.078.404.417.898 1.015 5.49 7.469 9.16 12.4 11.008 14.794V29.866c0-.99.117-1.705.351-2.147Zm27.508 19.907.703-.507c.885-.52 1.509-.781 1.874-.781.806 0 1.678.729 2.615 2.186.572.91.859 1.64.859 2.186s-.183 1.002-.547 1.366a5.68 5.68 0 0 1-1.21.976c-.468.286-.924.56-1.366.82-.417.26-1.288.598-2.615 1.014-1.328.417-2.616.625-3.865.625-1.223 0-2.472-.156-3.747-.468-1.249-.339-2.55-.885-3.904-1.64a17.144 17.144 0 0 1-3.591-2.81c-1.067-1.12-1.951-2.538-2.654-4.255-.677-1.744-1.015-3.63-1.015-5.66 0-2.03.338-3.864 1.015-5.504.677-1.665 1.535-3.031 2.576-4.098a14.944 14.944 0 0 1 3.63-2.733c2.551-1.405 5.114-2.108 7.69-2.108 1.223 0 2.459.196 3.708.586 1.276.364 2.238.742 2.889 1.132l.937.546c.468.287.832.52 1.093.703.676.546 1.015 1.171 1.015 1.874 0 .676-.274 1.392-.82 2.147-1.015 1.405-1.926 2.107-2.732 2.107-.469 0-1.132-.286-1.991-.858-1.093-.885-2.55-1.328-4.372-1.328-1.692 0-3.357.586-4.996 1.757-.781.572-1.432 1.38-1.952 2.42-.521 1.041-.781 2.225-.781 3.552 0 1.301.26 2.472.781 3.513.52 1.041 1.184 1.861 1.991 2.46 1.587 1.145 3.239 1.717 4.957 1.717.807 0 1.561-.104 2.264-.312.729-.209 1.249-.417 1.561-.625Zm8.616-17.682c0-.599.013-1.041.039-1.328.052-.312.182-.663.39-1.053.364-.703 1.379-1.054 3.045-1.054 1.821 0 2.901.481 3.239 1.444.131.442.196 1.119.196 2.03v21.703c0 .624-.026 1.08-.078 1.366-.027.286-.144.624-.352 1.015-.364.702-1.379 1.054-3.044 1.054-1.822 0-2.889-.495-3.201-1.484-.156-.416-.234-1.08-.234-1.99V29.944Zm26.536-1.405 10.54 21.78c.442.885.663 1.549.663 1.991 0 .937-.755 1.783-2.264 2.537-.885.443-1.587.664-2.108.664-.494 0-.91-.117-1.249-.351-.312-.234-.546-.482-.702-.742l-.586-1.17-2.03-4.217h-10.812l-2.03 4.216c-.26.52-.468.898-.624 1.132-.131.234-.365.482-.703.742-.312.234-.729.351-1.249.351-.495 0-1.184-.221-2.069-.664-1.509-.728-2.264-1.56-2.264-2.498 0-.442.221-1.106.664-1.99l10.539-21.82a3.442 3.442 0 0 1 1.288-1.445c.599-.364 1.223-.546 1.874-.546 1.405 0 2.446.676 3.122 2.03Zm-3.161 9.368-2.577 5.347h5.192l-2.615-5.347Zm29.844-11.437 7.222.039c3.773 0 7.091 1.366 9.953 4.098 2.863 2.707 4.294 6.05 4.294 10.032 0 3.955-1.405 7.351-4.216 10.188-2.784 2.836-6.167 4.255-10.149 4.255h-7.143c-1.587 0-2.576-.326-2.966-.976-.313-.547-.469-1.38-.469-2.498V29.905c0-.625.013-1.08.039-1.367.052-.286.182-.624.391-1.014.364-.703 1.379-1.054 3.044-1.054Zm7.222 21.703c1.873 0 3.565-.69 5.074-2.07 1.509-1.404 2.264-3.16 2.264-5.269 0-2.108-.742-3.864-2.225-5.27-1.457-1.43-3.175-2.146-5.152-2.146h-3.748v14.755h3.787Zm31.356-19.635 10.539 21.781c.442.885.663 1.549.663 1.991 0 .937-.754 1.783-2.264 2.537-.884.443-1.587.664-2.107.664-.495 0-.911-.117-1.25-.351-.312-.234-.546-.482-.702-.742l-.586-1.17-2.029-4.217h-10.813l-2.03 4.216c-.26.52-.468.898-.624 1.132-.13.234-.365.482-.703.742-.312.234-.729.351-1.249.351-.494 0-1.184-.221-2.069-.664-1.509-.728-2.264-1.56-2.264-2.498 0-.442.221-1.106.664-1.99l10.539-21.82a3.449 3.449 0 0 1 1.288-1.445c.599-.364 1.223-.546 1.874-.546 1.405 0 2.446.676 3.123 2.03Zm-3.162 9.369-2.576 5.347h5.191l-2.615-5.347Zm44.248 9.72.703-.508c.884-.52 1.509-.781 1.873-.781.807 0 1.679.729 2.616 2.186.572.91.858 1.64.858 2.186s-.182 1.002-.546 1.366a5.68 5.68 0 0 1-1.21.976c-.469.286-.924.56-1.366.82-.417.26-1.289.598-2.616 1.014-1.327.417-2.615.625-3.864.625-1.223 0-2.472-.156-3.747-.468-1.249-.339-2.551-.885-3.904-1.64a17.144 17.144 0 0 1-3.591-2.81c-1.067-1.12-1.952-2.538-2.654-4.255-.677-1.744-1.015-3.63-1.015-5.66 0-2.03.338-3.864 1.015-5.504.676-1.665 1.535-3.031 2.576-4.098a14.944 14.944 0 0 1 3.63-2.733c2.55-1.405 5.114-2.108 7.69-2.108 1.223 0 2.459.196 3.708.586 1.275.364 2.238.742 2.889 1.132l.936.546c.469.287.833.52 1.093.703.677.546 1.015 1.171 1.015 1.874 0 .676-.273 1.392-.819 2.147-1.015 1.405-1.926 2.107-2.733 2.107-.468 0-1.132-.286-1.991-.858-1.092-.885-2.55-1.328-4.371-1.328-1.692 0-3.357.586-4.997 1.757-.78.572-1.431 1.38-1.951 2.42-.521 1.041-.781 2.225-.781 3.552 0 1.301.26 2.472.781 3.513.52 1.041 1.184 1.861 1.99 2.46 1.588 1.145 3.24 1.717 4.958 1.717a7.94 7.94 0 0 0 2.264-.312c.728-.209 1.249-.417 1.561-.625Zm22.043-21.47c3.851 0 7.195 1.393 10.032 4.177 2.836 2.784 4.255 6.246 4.255 10.383 0 4.112-1.354 7.625-4.06 10.54-2.706 2.888-6.037 4.332-9.993 4.332-3.955 0-7.325-1.431-10.11-4.294-2.758-2.862-4.137-6.271-4.137-10.227 0-2.16.39-4.176 1.171-6.05.78-1.9 1.821-3.487 3.123-4.762a14.62 14.62 0 0 1 4.488-3.006 13.098 13.098 0 0 1 5.231-1.093Zm-7.104 14.716c0 2.316.741 4.203 2.225 5.66 1.509 1.431 3.188 2.147 5.035 2.147 1.848 0 3.513-.703 4.997-2.108 1.483-1.405 2.224-3.292 2.224-5.66 0-2.368-.754-4.267-2.263-5.699-1.484-1.43-3.149-2.147-4.997-2.147-1.847 0-3.513.73-4.996 2.186-1.484 1.432-2.225 3.305-2.225 5.621Zm54.351-13.271c.208.39.325.741.351 1.054.052.312.078.767.078 1.366v21.664c0 1.795-.495 2.85-1.483 3.161-.495.157-1.119.235-1.874.235-.755 0-1.353-.065-1.796-.196-.442-.13-.78-.286-1.014-.468-.235-.182-.417-.442-.547-.78-.13-.443-.195-1.12-.195-2.03V38.53c-.651.807-1.601 2.095-2.85 3.865-1.249 1.743-2.042 2.836-2.381 3.279-.338.442-.572.754-.702.936-.13.156-.456.39-.976.703a3.216 3.216 0 0 1-1.64.43c-.572 0-1.106-.13-1.6-.391-.468-.286-.807-.56-1.015-.82l-.312-.43c-.521-.65-1.549-2.029-3.084-4.137-1.535-2.134-2.368-3.279-2.498-3.435v13.155c0 .598-.026 1.054-.078 1.366-.026.286-.143.611-.351.976-.391.702-1.406 1.054-3.045 1.054-1.587 0-2.576-.352-2.967-1.054-.208-.365-.338-.703-.39-1.015-.026-.312-.039-.78-.039-1.405V29.944c0-.599.013-1.041.039-1.328.052-.312.182-.663.39-1.053.391-.677 1.406-1.015 3.045-1.015.703 0 1.301.09 1.796.273.52.156.858.325 1.014.507l.235.235 8.86 11.632c4.424-5.855 7.378-9.72 8.861-11.593.443-.703 1.483-1.054 3.123-1.054 1.665 0 2.68.351 3.045 1.054Zm24.674 4.684c.676 1.379 1.015 2.914 1.015 4.606 0 1.691-.339 3.227-1.015 4.606-.677 1.353-1.549 2.433-2.616 3.24-2.159 1.665-4.397 2.498-6.713 2.498h-4.88v4.41c0 .6-.026 1.055-.078 1.367-.026.286-.143.624-.351 1.015-.364.702-1.379 1.054-3.045 1.054-1.821 0-2.888-.482-3.201-1.445-.156-.442-.234-1.119-.234-2.03V29.945c0-.599.013-1.041.039-1.328.052-.312.182-.663.391-1.053.364-.703 1.379-1.054 3.044-1.054h8.354c2.29 0 4.515.832 6.674 2.498 1.067.807 1.939 1.9 2.616 3.279Zm-9.29 8.04c.78 0 1.548-.285 2.303-.858.754-.573 1.132-1.431 1.132-2.576s-.378-2.004-1.132-2.577c-.755-.598-1.536-.897-2.342-.897h-4.88v6.909h4.919Zm31.533-12.763c.26-.417.637-.703 1.132-.86.494-.155 1.106-.233 1.834-.233.755 0 1.354.065 1.796.195.442.13.781.286 1.015.468.234.182.403.456.507.82.156.442.234 1.119.234 2.03V41.77c0 3.435-1.066 6.558-3.2 9.368-1.041 1.327-2.381 2.407-4.021 3.24-1.639.807-3.461 1.21-5.465 1.21-1.977 0-3.786-.416-5.425-1.249-1.614-.833-2.928-1.926-3.943-3.279-2.108-2.758-3.162-5.881-3.162-9.368v-11.75c0-.624.013-1.08.039-1.366.052-.312.183-.663.391-1.053.208-.39.559-.664 1.054-.82.494-.156 1.158-.234 1.99-.234.833 0 1.497.078 1.991.234.495.156.833.43 1.015.82.312.598.468 1.418.468 2.459v11.71c0 1.587.391 3.097 1.171 4.528.391.729.976 1.314 1.757 1.757.781.442 1.705.663 2.771.663 1.9 0 3.318-.703 4.255-2.108.937-1.405 1.405-3.031 1.405-4.88V29.71c0-1.014.131-1.73.391-2.146Zm11.499-1.093h21.703c.832 0 1.444.104 1.834.312.391.182.651.481.781.898.13.416.195.963.195 1.64 0 .676-.065 1.222-.195 1.639-.13.39-.351.663-.664.82-.468.234-1.132.35-1.99.35h-7.456v19.635c0 .598-.026 1.04-.078 1.327-.026.286-.143.624-.351 1.015-.182.364-.521.624-1.015.78-.495.157-1.145.235-1.952.235-.807 0-1.457-.078-1.952-.235-.468-.156-.806-.416-1.014-.78-.183-.39-.3-.729-.352-1.015a17.786 17.786 0 0 1-.039-1.366V32.13h-7.494c-.833 0-1.445-.092-1.835-.274a1.552 1.552 0 0 1-.781-.936c-.13-.417-.195-.963-.195-1.64 0-.677.065-1.21.195-1.6.13-.417.352-.703.664-.859.468-.234 1.132-.351 1.991-.351Zm37.318 2.069 10.54 21.78c.442.885.663 1.549.663 1.991 0 .937-.754 1.783-2.264 2.537-.885.443-1.587.664-2.108.664-.494 0-.91-.117-1.249-.351-.312-.234-.546-.482-.702-.742l-.586-1.17-2.03-4.217h-10.812l-2.03 4.216c-.26.52-.468.898-.624 1.132-.13.234-.365.482-.703.742-.312.234-.729.351-1.249.351-.494 0-1.184-.221-2.069-.664-1.509-.728-2.264-1.56-2.264-2.498 0-.442.221-1.106.664-1.99L431.59 28.5a3.449 3.449 0 0 1 1.288-1.445c.599-.364 1.223-.546 1.874-.546 1.405 0 2.446.676 3.122 2.03Zm-3.161 9.368-2.577 5.347h5.192l-2.615-5.347Zm25.053 18.268c.079-.469.313-.82.703-1.054-2.862-.625-5.478-2.056-7.846-4.294-1.197-1.145-2.16-2.602-2.888-4.372-.703-1.77-1.054-3.682-1.054-5.738 0-2.082.338-3.955 1.015-5.62.676-1.666 1.535-3.032 2.576-4.1a16.406 16.406 0 0 1 3.63-2.732c2.524-1.405 5.101-2.108 7.729-2.108 1.223 0 2.459.196 3.708.586 1.249.39 2.199.768 2.85 1.132l.975.585 1.054.742c.677.52 1.015 1.132 1.015 1.835 0 .676-.273 1.392-.819 2.147-.989 1.405-1.887 2.107-2.694 2.107-.442 0-1.119-.286-2.03-.858-1.093-.885-2.55-1.328-4.371-1.328-1.692 0-3.357.586-4.997 1.757-.781.572-1.431 1.38-1.952 2.42-.52 1.041-.78 2.225-.78 3.552 0 1.301.26 2.485.78 3.552.521 1.041 1.198 1.861 2.03 2.46 1.614 1.145 3.253 1.717 4.919 1.717a7.94 7.94 0 0 0 2.264-.312c.728-.209 1.249-.417 1.561-.625l.468-.351.274-.156c.832-.547 1.457-.82 1.873-.82.781 0 1.64.729 2.576 2.186.573.91.859 1.6.859 2.069 0 .468-.117.871-.351 1.21a3.518 3.518 0 0 1-.703.78c-.208.157-.546.378-1.015.664-1.457 1.04-3.278 1.744-5.464 2.108.988.807 1.483 1.86 1.483 3.162 0 1.3-.456 2.316-1.366 3.044-.885.755-1.835 1.132-2.85 1.132-.676 0-1.197-.09-1.561-.273-.989-.494-1.509-.989-1.562-1.483l-.039-.195c0-.313.196-.703.586-1.171.39-.469.716-.703.976-.703.286 0 .52.052.702.156.183.13.326.208.43.234.104.104.26.156.468.156a.886.886 0 0 0 .586-.234c.208-.156.312-.377.312-.663 0-.287-.104-.508-.312-.664a.933.933 0 0 0-.625-.234c-.208 0-.429.09-.663.273-.235.182-.56.273-.976.273-.391 0-.742-.273-1.054-.82-.286-.52-.43-.897-.43-1.131Zm34.982-38.449c.937.65 1.405 1.275 1.405 1.874 0 .364-.104.715-.312 1.054-.208.338-.351.585-.429.741-.078.13-.261.378-.547.742-.286.364-.611.69-.976.976-.989.728-1.99 1.093-3.005 1.093s-1.822-.17-2.42-.508a9.916 9.916 0 0 1-1.445-1.015c-.364-.338-.663-.507-.897-.507-.365 0-.703.156-1.015.468-.599 1.041-1.158 1.562-1.679 1.562-.494 0-1.106-.313-1.834-.937-.703-.625-1.054-1.132-1.054-1.522 0-.417.104-.794.312-1.133.208-.338.351-.572.429-.702.078-.156.261-.403.547-.742.312-.364.65-.69 1.015-.976.962-.702 1.964-1.053 3.005-1.053s1.848.169 2.42.507c.573.312 1.041.637 1.406.976.364.312.663.468.897.468.417 0 .755-.156 1.015-.468.547-.99 1.132-1.483 1.757-1.483.39 0 .859.195 1.405.585Zm-3.24 10.813 10.539 21.78c.443.885.664 1.549.664 1.991 0 .937-.755 1.783-2.264 2.537-.885.443-1.587.664-2.108.664-.494 0-.911-.117-1.249-.351a2.683 2.683 0 0 1-.703-.742l-.585-1.17-2.03-4.217H482.96l-2.03 4.216c-.26.52-.468.898-.625 1.132-.13.234-.364.482-.702.742-.312.234-.729.351-1.249.351-.495 0-1.184-.221-2.069-.664-1.509-.728-2.264-1.56-2.264-2.498 0-.442.221-1.106.664-1.99l10.539-21.82a3.442 3.442 0 0 1 1.288-1.445 3.55 3.55 0 0 1 1.873-.546c1.406 0 2.447.676 3.123 2.03Zm-3.162 9.368-2.576 5.347h5.192l-2.616-5.347Zm27.982-11.75c3.851 0 7.195 1.393 10.032 4.177 2.836 2.784 4.254 6.246 4.254 10.383 0 4.112-1.353 7.625-4.059 10.54-2.707 2.888-6.037 4.332-9.993 4.332-3.955 0-7.325-1.431-10.11-4.294-2.758-2.862-4.137-6.271-4.137-10.227 0-2.16.39-4.176 1.171-6.05.78-1.9 1.821-3.487 3.122-4.762a14.624 14.624 0 0 1 4.489-3.006 13.098 13.098 0 0 1 5.231-1.093Zm-7.104 14.716c0 2.316.741 4.203 2.225 5.66 1.509 1.431 3.187 2.147 5.035 2.147 1.848 0 3.513-.703 4.996-2.108 1.484-1.405 2.225-3.292 2.225-5.66 0-2.368-.754-4.267-2.264-5.699-1.483-1.43-3.148-2.147-4.996-2.147-1.848 0-3.513.73-4.996 2.186-1.484 1.432-2.225 3.305-2.225 5.621ZM148.412 93.16c-2.264 0-4.502-.586-6.714-1.757-2.472 1.353-4.971 2.03-7.495 2.03-6.688 0-10.032-2.784-10.032-8.353 0-2.889 1.497-5.57 4.489-8.041-1.041-2.316-1.561-4.411-1.561-6.285 0-2.602.781-4.528 2.342-5.777 1.561-1.249 3.656-1.874 6.285-1.874 2.628 0 4.619.625 5.972 1.874 1.353 1.25 2.03 2.954 2.03 5.114 0 1.821-.742 3.46-2.225 4.918-1.093 1.093-2.629 2.303-4.606 3.63 1.535 2.03 3.2 3.747 4.996 5.153.729-1.12 1.236-2.264 1.522-3.435.26-1.145 1.432-1.718 3.513-1.718.885 0 1.549.117 1.991.351.468.235.729.482.781.742.078.234.104.546.078.937-.104 1.978-.911 3.942-2.42 5.894.39.078.754.117 1.093.117 2.029 0 3.044 1.028 3.044 3.084 0 1.431-.234 2.355-.702 2.771-.469.417-1.262.625-2.381.625Zm-15.146-22.874c0 .937.222 1.99.664 3.162 1.223-.781 2.134-1.432 2.732-1.952.625-.52.937-1.015.937-1.483 0-1.145-.637-1.718-1.912-1.718-1.614 0-2.421.664-2.421 1.99Zm1.21 17.37c.651 0 1.237-.052 1.757-.156-1.509-1.353-2.941-2.967-4.294-4.84-.598.754-.898 1.535-.898 2.342 0 1.77 1.145 2.654 3.435 2.654Zm29.353-19.712c0-.599.013-1.041.039-1.328.052-.312.182-.663.391-1.053.364-.703 1.379-1.054 3.044-1.054 1.822 0 2.902.481 3.24 1.444.13.442.195 1.119.195 2.03v21.703c0 .624-.026 1.08-.078 1.366-.026.286-.143.624-.351 1.015-.364.702-1.379 1.054-3.045 1.054-1.821 0-2.888-.495-3.201-1.484-.156-.416-.234-1.08-.234-1.99V67.944Zm28.489-2.225c.26-.469.637-.78 1.132-.937.494-.156 1.106-.234 1.834-.234.755 0 1.354.065 1.796.195.468.13.807.286 1.015.468.234.183.403.456.507.82.156.416.234 1.08.234 1.99v21.665c0 .624-.026 1.08-.078 1.366-.026.286-.143.624-.351 1.015-.364.702-1.379 1.054-3.045 1.054-1.015 0-1.717-.078-2.107-.234a2.275 2.275 0 0 1-.976-.742c-5.855-7.807-9.707-12.907-11.554-15.301v12.842c0 .624-.026 1.08-.078 1.366-.027.286-.144.624-.352 1.015-.364.702-1.379 1.054-3.044 1.054-1.614 0-2.603-.352-2.967-1.054-.208-.39-.338-.742-.39-1.054a17.79 17.79 0 0 1-.039-1.366V67.866c0-.99.117-1.705.351-2.147.26-.469.637-.78 1.132-.937.494-.156 1.132-.234 1.913-.234.78 0 1.392.078 1.834.234.469.13.794.286.976.468.104.078.403.417.898 1.015 5.491 7.469 9.16 12.4 11.007 14.794V67.866c0-.99.118-1.705.352-2.147Zm28.562-1.21c.599 0 1.041.026 1.327.078.312.026.651.143 1.015.351.39.208.664.56.82 1.054.156.494.234 1.158.234 1.99 0 .834-.078 1.497-.234 1.992-.156.494-.43.845-.82 1.053-.39.183-.742.3-1.054.352a16.86 16.86 0 0 1-1.366.039h-11.944v3.942h7.689c.625 0 1.08.026 1.366.078.313.026.664.143 1.054.352.677.39 1.015 1.418 1.015 3.083 0 1.822-.494 2.902-1.483 3.24-.416.13-1.08.195-1.991.195h-7.65v7.378c0 .624-.027 1.08-.079 1.366-.026.286-.143.624-.351 1.015-.364.702-1.379 1.054-3.045 1.054-1.821 0-2.888-.495-3.2-1.484-.156-.416-.235-1.08-.235-1.99V67.944c0-1.328.248-2.225.742-2.694.495-.494 1.431-.741 2.811-.741h15.379Zm19.35-.352c3.851 0 7.195 1.393 10.032 4.177 2.836 2.784 4.254 6.245 4.254 10.383 0 4.112-1.353 7.625-4.059 10.54-2.706 2.888-6.037 4.332-9.993 4.332-3.955 0-7.325-1.431-10.11-4.294-2.758-2.862-4.137-6.271-4.137-10.227 0-2.16.39-4.176 1.171-6.05.78-1.9 1.821-3.487 3.122-4.762a14.636 14.636 0 0 1 4.489-3.006 13.098 13.098 0 0 1 5.231-1.093Zm-7.104 14.716c0 2.316.741 4.203 2.225 5.66 1.509 1.431 3.188 2.147 5.035 2.147 1.848 0 3.513-.703 4.996-2.108 1.484-1.405 2.225-3.292 2.225-5.66 0-2.368-.754-4.267-2.264-5.699-1.483-1.43-3.148-2.147-4.996-2.147-1.848 0-3.513.73-4.996 2.186-1.484 1.432-2.225 3.305-2.225 5.621Zm45.841 9.407c.39.937.586 1.614.586 2.03 0 .99-.807 1.822-2.421 2.498-.832.365-1.509.547-2.029.547-.495 0-.911-.117-1.249-.351-.313-.26-.547-.52-.703-.781-.26-.495-1.275-2.85-3.045-7.065l-1.21.078h-4.918v4.41c0 .6-.026 1.055-.078 1.367-.026.286-.143.624-.351 1.015-.365.702-1.38 1.054-3.045 1.054-1.822 0-2.889-.482-3.201-1.445-.156-.442-.234-1.119-.234-2.03V67.945c0-.599.013-1.041.039-1.328.052-.312.182-.663.39-1.053.365-.703 1.38-1.054 3.045-1.054h8.431c2.29 0 4.515.832 6.675 2.498 1.041.807 1.9 1.9 2.576 3.279.677 1.379 1.015 2.914 1.015 4.606 0 2.94-.976 5.36-2.927 7.26.572 1.38 1.457 3.422 2.654 6.129Zm-14.989-9.953h4.996c.755 0 1.51-.287 2.264-.859.755-.573 1.132-1.431 1.132-2.576s-.377-2.004-1.132-2.576c-.754-.599-1.535-.898-2.342-.898h-4.918v6.909Zm48.124-12.725c.208.39.325.741.351 1.054.052.312.078.767.078 1.366v21.664c0 1.795-.494 2.85-1.483 3.161-.495.157-1.119.235-1.874.235-.755 0-1.353-.065-1.796-.195-.442-.13-.78-.287-1.014-.469-.235-.182-.417-.442-.547-.78-.13-.443-.195-1.12-.195-2.03V76.53c-.651.807-1.6 2.095-2.85 3.865-1.249 1.743-2.042 2.836-2.381 3.278-.338.443-.572.755-.702.937-.13.156-.456.39-.976.703a3.216 3.216 0 0 1-1.64.43c-.572 0-1.106-.13-1.6-.391-.468-.286-.807-.56-1.015-.82l-.312-.43c-.521-.65-1.548-2.029-3.084-4.137-1.535-2.134-2.368-3.279-2.498-3.435v13.155c0 .598-.026 1.054-.078 1.366-.026.286-.143.611-.351.976-.391.702-1.406 1.054-3.045 1.054-1.587 0-2.576-.352-2.967-1.054-.208-.365-.338-.703-.39-1.015-.026-.312-.039-.78-.039-1.405V67.944c0-.599.013-1.041.039-1.328.052-.312.182-.663.39-1.053.391-.677 1.406-1.015 3.045-1.015.703 0 1.301.09 1.796.273.52.156.858.325 1.014.507l.235.235 8.86 11.632c4.424-5.855 7.378-9.72 8.861-11.593.443-.703 1.483-1.054 3.123-1.054 1.665 0 2.68.351 3.045 1.054Zm15.774-2.772-1.171.273c-.781 0-1.418-.767-1.913-2.303-.208-.624-.312-1.158-.312-1.6 0-.442.078-.78.234-1.015.26-.338.742-.611 1.444-.82l6.441-1.99c.677-.182 1.067-.273 1.171-.273.781 0 1.405.767 1.874 2.303.208.624.312 1.157.312 1.6 0 .416-.078.741-.234.976-.26.338-.742.611-1.444.82l-6.402 2.03Zm4.294 3.709 10.539 21.78c.442.885.663 1.549.663 1.991 0 .937-.754 1.783-2.264 2.537-.884.443-1.587.664-2.107.664-.495 0-.911-.117-1.249-.351-.313-.234-.547-.482-.703-.742l-.586-1.17-2.029-4.217h-10.813l-2.03 4.216c-.26.52-.468.898-.624 1.132-.13.234-.364.481-.703.742-.312.234-.728.351-1.249.351-.494 0-1.184-.221-2.069-.664-1.509-.728-2.264-1.56-2.264-2.498 0-.442.222-1.106.664-1.99l10.539-21.82a3.449 3.449 0 0 1 1.288-1.445c.599-.364 1.223-.546 1.874-.546 1.405 0 2.446.676 3.123 2.03Zm-3.162 9.368-2.576 5.347h5.191l-2.615-5.347Zm11.09-11.437h21.703c.833 0 1.445.104 1.835.312.39.182.651.481.781.898.13.416.195.963.195 1.64 0 .676-.065 1.222-.195 1.639-.13.39-.352.663-.664.82-.468.234-1.132.35-1.991.35h-7.455v19.635c0 .598-.026 1.04-.078 1.327-.026.286-.143.625-.351 1.015-.183.364-.521.624-1.015.78-.495.157-1.145.235-1.952.235-.807 0-1.457-.078-1.952-.234-.468-.157-.806-.417-1.015-.781-.182-.39-.299-.729-.351-1.015a17.786 17.786 0 0 1-.039-1.366V70.13h-7.495c-.832 0-1.444-.091-1.834-.274a1.552 1.552 0 0 1-.781-.936c-.13-.417-.195-.963-.195-1.64 0-.677.065-1.21.195-1.6.13-.417.351-.703.664-.859.468-.234 1.132-.351 1.99-.351Zm26.678 3.474c0-.599.013-1.041.039-1.328.052-.312.182-.663.391-1.053.364-.703 1.379-1.054 3.044-1.054 1.822 0 2.902.481 3.24 1.444.13.442.195 1.119.195 2.03v21.703c0 .624-.026 1.08-.078 1.366-.026.286-.143.624-.351 1.015-.364.702-1.379 1.054-3.045 1.054-1.821 0-2.888-.495-3.201-1.484-.156-.416-.234-1.08-.234-1.99V67.944Zm27.903 17.682.703-.507c.885-.52 1.509-.781 1.873-.781.807 0 1.679.729 2.616 2.186.572.91.858 1.64.858 2.186s-.182 1.002-.546 1.366a5.68 5.68 0 0 1-1.21.976c-.468.286-.924.56-1.366.82-.417.26-1.288.598-2.616 1.014-1.327.417-2.615.625-3.864.625-1.223 0-2.472-.156-3.747-.468-1.249-.339-2.55-.885-3.904-1.64a17.144 17.144 0 0 1-3.591-2.81c-1.067-1.12-1.951-2.538-2.654-4.255-.677-1.743-1.015-3.63-1.015-5.66 0-2.03.338-3.864 1.015-5.504.677-1.665 1.535-3.031 2.576-4.098a14.944 14.944 0 0 1 3.63-2.733c2.551-1.405 5.114-2.108 7.69-2.108 1.223 0 2.459.196 3.708.586 1.275.364 2.238.742 2.889 1.132l.937.546c.468.287.832.52 1.093.703.676.547 1.014 1.171 1.014 1.874 0 .676-.273 1.392-.819 2.147-1.015 1.405-1.926 2.107-2.733 2.107-.468 0-1.132-.286-1.99-.858-1.093-.885-2.551-1.328-4.372-1.328-1.692 0-3.357.586-4.997 1.757-.78.573-1.431 1.38-1.951 2.42-.521 1.041-.781 2.225-.781 3.552 0 1.301.26 2.472.781 3.513.52 1.041 1.184 1.861 1.99 2.46 1.588 1.144 3.24 1.717 4.958 1.717.807 0 1.561-.104 2.264-.312.728-.209 1.249-.417 1.561-.625Zm24.365-19.088 10.539 21.782c.442.884.663 1.548.663 1.99 0 .937-.754 1.783-2.264 2.537-.884.443-1.587.664-2.108.664-.494 0-.91-.117-1.249-.351-.312-.234-.546-.482-.702-.742l-.586-1.17-2.03-4.217h-10.812l-2.03 4.216c-.26.52-.468.898-.624 1.132-.13.234-.365.481-.703.742-.312.234-.729.351-1.249.351-.494 0-1.184-.221-2.069-.664-1.509-.728-2.264-1.56-2.264-2.498 0-.442.221-1.106.664-1.99l10.539-21.82a3.449 3.449 0 0 1 1.288-1.445c.599-.364 1.223-.546 1.874-.546 1.405 0 2.446.676 3.123 2.03Zm-3.162 9.369-2.577 5.347h5.192l-2.615-5.347Z"/><path fill="#5CECFF" d="m39.245 49.343.71-.513c.896-.527 1.528-.79 1.897-.79.816 0 1.698.737 2.646 2.212.58.921.869 1.658.869 2.212 0 .553-.184 1.013-.553 1.382-.342.369-.75.698-1.225.987-.474.29-.934.567-1.382.83-.421.263-1.303.606-2.646 1.027-1.343.421-2.647.632-3.91.632-1.239 0-2.502-.158-3.793-.474-1.264-.343-2.58-.895-3.95-1.66a17.344 17.344 0 0 1-3.634-2.843c-1.08-1.132-1.974-2.567-2.685-4.305-.685-1.765-1.027-3.674-1.027-5.728s.342-3.91 1.027-5.57c.684-1.684 1.553-3.067 2.607-4.146a15.123 15.123 0 0 1 3.673-2.765c2.58-1.422 5.174-2.133 7.781-2.133 1.238 0 2.489.197 3.753.592 1.29.369 2.264.75 2.922 1.146l.948.553c.474.29.843.526 1.106.71.685.554 1.027 1.186 1.027 1.897 0 .684-.276 1.408-.83 2.172-1.026 1.422-1.948 2.133-2.764 2.133-.474 0-1.145-.29-2.014-.869-1.106-.895-2.581-1.343-4.424-1.343-1.712 0-3.397.593-5.056 1.778-.79.579-1.449 1.395-1.975 2.448-.527 1.054-.79 2.252-.79 3.595 0 1.316.263 2.501.79 3.555.526 1.053 1.198 1.882 2.014 2.488 1.607 1.159 3.279 1.738 5.017 1.738.816 0 1.58-.105 2.29-.316.738-.21 1.265-.421 1.58-.632Zm8.717-17.893c0-.605.013-1.053.04-1.343.052-.316.184-.671.395-1.066.369-.711 1.395-1.067 3.08-1.067 1.844 0 2.937.487 3.28 1.462.13.447.197 1.132.197 2.054v21.96c0 .633-.027 1.094-.08 1.383-.026.29-.144.632-.355 1.027-.368.711-1.395 1.067-3.08 1.067-1.844 0-2.924-.5-3.24-1.501-.158-.421-.237-1.093-.237-2.015v-21.96Zm17.136 18.485h12.166c.606 0 1.053.027 1.343.08.316.026.671.144 1.066.355.711.369 1.067 1.396 1.067 3.08 0 1.844-.487 2.924-1.462 3.24-.447.158-1.132.237-2.053.237H61.583c-1.843 0-2.923-.5-3.239-1.501-.158-.421-.237-1.093-.237-2.015v-21.96c0-1.344.25-2.252.75-2.726.5-.5 1.449-.75 2.845-.75h15.562c.606 0 1.053.025 1.343.078.316.026.671.145 1.066.356.711.368 1.067 1.395 1.067 3.08 0 1.844-.487 2.924-1.462 3.24-.447.157-1.132.236-2.053.236H65.098v3.99h7.821c.606 0 1.053.026 1.343.079.316.026.672.145 1.067.355.71.369 1.066 1.396 1.066 3.081 0 1.843-.5 2.923-1.5 3.24-.449.157-1.133.236-2.055.236h-7.742v3.99Zm4.227-31.48.908.198c2.45.79 4.213 1.369 5.293 1.737 1.106.37 1.659 1.014 1.659 1.936 0 .5-.145 1.027-.434 1.58-.685 1.396-1.475 2.093-2.37 2.093-.237 0-.659-.092-1.264-.276l-3.792-1.66-3.674 1.58h-.04c-.526.185-.96.277-1.303.277-1 0-1.817-.671-2.449-2.014-.316-.685-.474-1.238-.474-1.66 0-.842.5-1.434 1.502-1.777l5.49-1.817.948-.197Zm32.653 10.744c.264-.474.645-.79 1.146-.948.5-.158 1.119-.237 1.856-.237.764 0 1.369.066 1.817.197.474.132.816.29 1.027.474.237.184.408.461.514.83.158.421.237 1.093.237 2.014v21.922c0 .632-.027 1.093-.079 1.382-.027.29-.145.632-.356 1.027-.369.711-1.396 1.067-3.081 1.067-1.027 0-1.738-.08-2.133-.237a2.304 2.304 0 0 1-.987-.75c-5.925-7.9-9.822-13.062-11.692-15.484V53.45c0 .632-.026 1.093-.079 1.382-.026.29-.145.632-.355 1.027-.369.711-1.396 1.067-3.081 1.067-1.633 0-2.634-.356-3.002-1.067-.21-.395-.343-.75-.395-1.066-.026-.316-.04-.777-.04-1.383v-22.04c0-1 .119-1.725.356-2.172.263-.474.645-.79 1.145-.948.5-.158 1.146-.237 1.936-.237s1.409.079 1.856.237c.474.131.803.29.988.474.105.079.408.421.908 1.027 5.556 7.557 9.27 12.547 11.139 14.97v-13.35c0-1.002.118-1.726.355-2.173Zm27.836 20.144.711-.513c.895-.527 1.527-.79 1.896-.79.816 0 1.698.737 2.646 2.212.58.921.869 1.658.869 2.212 0 .553-.184 1.013-.553 1.382-.342.369-.75.698-1.224.987-.474.29-.935.567-1.382.83-.422.263-1.304.606-2.647 1.027-1.343.421-2.646.632-3.91.632-1.238 0-2.502-.158-3.792-.474-1.264-.343-2.581-.895-3.95-1.66a17.353 17.353 0 0 1-3.634-2.843c-1.08-1.132-1.975-2.567-2.686-4.305-.685-1.765-1.027-3.674-1.027-5.728s.342-3.91 1.027-5.57c.685-1.684 1.554-3.067 2.607-4.146a15.132 15.132 0 0 1 3.673-2.765c2.581-1.422 5.175-2.133 7.782-2.133 1.237 0 2.488.197 3.752.592 1.29.369 2.265.75 2.923 1.146l.948.553c.474.29.843.526 1.106.71.685.554 1.027 1.186 1.027 1.897 0 .684-.277 1.408-.83 2.172-1.027 1.422-1.948 2.133-2.764 2.133-.474 0-1.146-.29-2.015-.869-1.106-.895-2.581-1.343-4.424-1.343-1.711 0-3.397.593-5.056 1.778-.79.579-1.448 1.395-1.975 2.448-.526 1.054-.79 2.252-.79 3.595 0 1.316.264 2.501.79 3.555.527 1.053 1.199 1.882 2.015 2.488 1.606 1.159 3.278 1.738 5.016 1.738.817 0 1.58-.105 2.291-.316.737-.21 1.264-.421 1.58-.632Zm8.718-17.893c0-.605.013-1.053.039-1.343.053-.316.185-.671.395-1.066.369-.711 1.396-1.067 3.081-1.067 1.844 0 2.936.487 3.279 1.462.131.447.197 1.132.197 2.054v21.96c0 .633-.026 1.094-.079 1.383-.026.29-.145.632-.355 1.027-.369.711-1.396 1.067-3.081 1.067-1.843 0-2.923-.5-3.239-1.501-.158-.421-.237-1.093-.237-2.015v-21.96Zm26.853-1.422 10.664 22.04c.448.896.672 1.567.672 2.015 0 .948-.764 1.804-2.291 2.567-.895.448-1.606.672-2.133.672-.5 0-.922-.119-1.264-.356-.316-.237-.553-.487-.711-.75l-.593-1.185-2.053-4.266h-10.942l-2.054 4.266c-.263.526-.474.908-.632 1.145-.131.237-.368.487-.711.75-.315.238-.737.356-1.263.356-.501 0-1.199-.223-2.094-.671-1.527-.737-2.291-1.58-2.291-2.528 0-.448.224-1.12.672-2.014l10.664-22.08a3.487 3.487 0 0 1 1.304-1.462 3.59 3.59 0 0 1 1.896-.553c1.422 0 2.475.685 3.16 2.054Zm-3.2 9.48-2.607 5.411h5.254l-2.647-5.411Zm30.2-11.573 7.307.04c3.819 0 7.176 1.382 10.073 4.147 2.896 2.738 4.345 6.122 4.345 10.15 0 4.003-1.422 7.44-4.266 10.31-2.818 2.87-6.241 4.305-10.27 4.305h-7.228c-1.607 0-2.607-.329-3.002-.987-.316-.553-.474-1.396-.474-2.528V31.41c0-.632.013-1.093.039-1.383.053-.29.185-.632.395-1.027.369-.71 1.396-1.066 3.081-1.066Zm7.307 21.961c1.896 0 3.608-.698 5.135-2.093 1.528-1.422 2.291-3.2 2.291-5.333s-.75-3.91-2.251-5.332c-1.475-1.448-3.213-2.172-5.214-2.172h-3.792v14.93h3.831Zm31.73-19.868 10.664 22.04c.448.896.672 1.567.672 2.015 0 .948-.764 1.804-2.291 2.567-.895.448-1.606.672-2.133.672-.5 0-.922-.119-1.264-.356-.316-.237-.553-.487-.711-.75l-.592-1.185-2.054-4.266h-10.942l-2.053 4.266c-.264.526-.474.908-.632 1.145-.132.237-.369.487-.711.75-.316.238-.738.356-1.264.356-.501 0-1.199-.223-2.094-.671-1.527-.737-2.291-1.58-2.291-2.528 0-.448.224-1.12.672-2.014l10.664-22.08a3.494 3.494 0 0 1 1.304-1.462c.606-.369 1.237-.553 1.896-.553 1.422 0 2.475.685 3.16 2.054Zm-3.2 9.48-2.607 5.411h5.254l-2.647-5.411Zm44.775 9.835.711-.513c.896-.527 1.528-.79 1.896-.79.817 0 1.699.737 2.647 2.212.579.921.869 1.658.869 2.212 0 .553-.185 1.013-.553 1.382a5.766 5.766 0 0 1-1.225.987c-.474.29-.935.567-1.382.83-.422.263-1.304.606-2.647 1.027-1.343.421-2.646.632-3.91.632-1.238 0-2.502-.158-3.792-.474-1.264-.343-2.581-.895-3.95-1.66a17.353 17.353 0 0 1-3.634-2.843c-1.079-1.132-1.975-2.567-2.686-4.305-.684-1.765-1.027-3.674-1.027-5.728s.343-3.91 1.027-5.57c.685-1.684 1.554-3.067 2.607-4.146a15.119 15.119 0 0 1 3.674-2.765c2.58-1.422 5.174-2.133 7.781-2.133 1.238 0 2.488.197 3.752.592 1.291.369 2.265.75 2.923 1.146l.948.553c.474.29.843.526 1.106.71.685.554 1.027 1.186 1.027 1.897 0 .684-.276 1.408-.829 2.172-1.027 1.422-1.949 2.133-2.765 2.133-.474 0-1.146-.29-2.015-.869-1.106-.895-2.58-1.343-4.424-1.343-1.711 0-3.396.593-5.055 1.778-.79.579-1.449 1.395-1.975 2.448-.527 1.054-.79 2.252-.79 3.595 0 1.316.263 2.501.79 3.555.526 1.053 1.198 1.882 2.014 2.488 1.606 1.159 3.278 1.738 5.016 1.738.817 0 1.58-.105 2.291-.316.738-.21 1.264-.421 1.58-.632Zm22.306-21.724c3.897 0 7.281 1.409 10.151 4.226 2.87 2.818 4.305 6.32 4.305 10.507 0 4.16-1.369 7.715-4.108 10.665-2.738 2.922-6.109 4.384-10.111 4.384-4.003 0-7.413-1.449-10.23-4.345-2.792-2.897-4.187-6.346-4.187-10.349 0-2.185.395-4.226 1.185-6.122.79-1.922 1.843-3.529 3.16-4.819a14.778 14.778 0 0 1 4.542-3.041 13.25 13.25 0 0 1 5.293-1.106Zm-7.189 14.89c0 2.344.75 4.254 2.251 5.728 1.528 1.448 3.226 2.172 5.096 2.172 1.869 0 3.555-.71 5.056-2.132 1.501-1.422 2.251-3.331 2.251-5.728 0-2.396-.764-4.318-2.291-5.767-1.501-1.448-3.186-2.172-5.056-2.172-1.869 0-3.555.737-5.056 2.212-1.501 1.448-2.251 3.344-2.251 5.688Zm54.998-13.429c.21.395.329.75.355 1.067.053.316.079.777.079 1.382v21.922c0 1.817-.5 2.883-1.501 3.2-.5.157-1.132.236-1.896.236-.763 0-1.369-.066-1.817-.197-.447-.132-.79-.29-1.027-.474-.237-.184-.421-.448-.553-.79-.131-.448-.197-1.132-.197-2.054V40.14c-.658.816-1.62 2.12-2.884 3.91-1.264 1.765-2.067 2.87-2.409 3.318-.342.448-.579.764-.711.948-.132.158-.461.395-.987.711a3.256 3.256 0 0 1-1.659.435c-.58 0-1.12-.132-1.62-.395-.474-.29-.816-.567-1.027-.83l-.316-.434c-.526-.659-1.567-2.054-3.12-4.187-1.554-2.16-2.396-3.318-2.528-3.476v13.31c0 .607-.026 1.067-.079 1.383-.026.29-.145.62-.356.988-.395.71-1.422 1.066-3.081 1.066-1.606 0-2.606-.355-3.001-1.066-.211-.369-.343-.711-.395-1.027-.027-.316-.04-.79-.04-1.422V31.45c0-.605.013-1.053.04-1.343.052-.316.184-.671.395-1.066.395-.685 1.422-1.027 3.08-1.027.711 0 1.317.092 1.817.276.527.158.869.33 1.027.514l.237.237 8.967 11.77c4.476-5.925 7.465-9.835 8.966-11.73.448-.712 1.501-1.067 3.16-1.067 1.685 0 2.712.355 3.081 1.066Zm24.968 4.74c.684 1.396 1.027 2.95 1.027 4.66 0 1.713-.343 3.266-1.027 4.662-.685 1.369-1.567 2.462-2.647 3.278-2.185 1.685-4.45 2.528-6.794 2.528h-4.937v4.463c0 .606-.026 1.067-.079 1.383-.026.29-.145.632-.356 1.027-.368.71-1.395 1.066-3.08 1.066-1.844 0-2.923-.487-3.239-1.461-.158-.448-.237-1.132-.237-2.054V31.45c0-.605.013-1.053.039-1.343.053-.316.185-.671.395-1.066.369-.711 1.396-1.067 3.081-1.067h8.453c2.317 0 4.569.843 6.754 2.528 1.08.816 1.962 1.922 2.647 3.318Zm-9.401 8.137c.79 0 1.567-.29 2.33-.87.764-.579 1.146-1.448 1.146-2.606 0-1.159-.382-2.028-1.146-2.607-.763-.606-1.553-.909-2.37-.909h-4.937v6.992h4.977Zm31.908-12.916a2.022 2.022 0 0 1 1.146-.87c.5-.157 1.119-.236 1.856-.236.764 0 1.37.066 1.817.197.448.132.79.29 1.027.474.237.184.408.461.514.83.158.447.237 1.132.237 2.054v11.928c0 3.476-1.08 6.636-3.239 9.48-1.053 1.343-2.41 2.436-4.069 3.278-1.659.817-3.502 1.225-5.529 1.225-2.002 0-3.832-.422-5.491-1.264-1.632-.843-2.962-1.949-3.989-3.318-2.133-2.791-3.2-5.951-3.2-9.48V31.45c0-.632.014-1.093.04-1.382.053-.316.184-.672.395-1.067.211-.395.566-.671 1.066-.83.501-.157 1.172-.236 2.015-.236.843 0 1.514.079 2.014.237.501.158.843.434 1.027.83.316.605.474 1.434.474 2.488v11.85c0 1.605.395 3.133 1.185 4.581.395.737.988 1.33 1.778 1.778.79.447 1.724.671 2.804.671 1.922 0 3.357-.71 4.305-2.133.948-1.422 1.422-3.068 1.422-4.937V31.213c0-1.027.132-1.751.395-2.172Zm11.636-1.106h21.962c.842 0 1.461.105 1.856.316.395.184.658.487.79.908.132.422.197.975.197 1.66 0 .684-.065 1.237-.197 1.658-.132.395-.356.672-.672.83-.473.236-1.145.355-2.014.355h-7.544V53.53c0 .606-.027 1.053-.079 1.343-.027.29-.145.632-.356 1.027-.184.369-.526.632-1.027.79-.5.158-1.158.237-1.975.237-.816 0-1.474-.08-1.975-.237-.474-.158-.816-.421-1.027-.79-.184-.395-.302-.737-.355-1.027-.026-.316-.04-.777-.04-1.383V33.662h-7.583c-.843 0-1.462-.092-1.857-.276a1.57 1.57 0 0 1-.79-.948c-.131-.422-.197-.975-.197-1.66 0-.684.066-1.224.197-1.619.132-.421.356-.71.672-.869.474-.237 1.145-.355 2.014-.355Zm37.763 2.093 10.665 22.04c.448.896.671 1.567.671 2.015 0 .948-.763 1.804-2.291 2.567-.895.448-1.606.672-2.132.672-.501 0-.922-.119-1.264-.356-.316-.237-.553-.487-.711-.75l-.593-1.185-2.054-4.266h-10.941l-2.054 4.266c-.263.526-.474.908-.632 1.145-.132.237-.369.487-.711.75-.316.238-.737.356-1.264.356-.5 0-1.198-.223-2.093-.671-1.528-.737-2.291-1.58-2.291-2.528 0-.448.224-1.12.671-2.014l10.665-22.08a3.492 3.492 0 0 1 1.303-1.462c.606-.369 1.238-.553 1.896-.553 1.422 0 2.476.685 3.16 2.054Zm-3.199 9.48-2.607 5.411h5.253l-2.646-5.411Zm25.352 18.485c.079-.474.316-.83.711-1.066-2.897-.632-5.543-2.08-7.939-4.345-1.212-1.159-2.186-2.633-2.923-4.424-.711-1.79-1.067-3.726-1.067-5.806 0-2.107.343-4.003 1.027-5.688.685-1.685 1.554-3.068 2.607-4.147a16.604 16.604 0 0 1 3.673-2.765c2.555-1.422 5.162-2.133 7.821-2.133 1.238 0 2.489.197 3.753.592 1.264.395 2.225.777 2.883 1.146l.988.592c.447.316.803.566 1.066.75.685.527 1.027 1.146 1.027 1.857 0 .685-.277 1.409-.83 2.172-1 1.422-1.909 2.133-2.725 2.133-.448 0-1.132-.29-2.054-.868-1.106-.896-2.58-1.343-4.424-1.343-1.711 0-3.397.592-5.056 1.777-.79.58-1.448 1.396-1.975 2.449-.526 1.053-.789 2.251-.789 3.594 0 1.317.263 2.515.789 3.595.527 1.053 1.212 1.882 2.054 2.488 1.633 1.159 3.292 1.738 4.977 1.738.817 0 1.58-.105 2.291-.316.738-.21 1.264-.421 1.58-.632l.474-.355.277-.158c.842-.553 1.474-.83 1.896-.83.79 0 1.659.737 2.606 2.212.58.922.869 1.62.869 2.093 0 .474-.118.883-.355 1.225-.237.342-.474.606-.711.79-.211.158-.553.382-1.027.671-1.475 1.054-3.318 1.765-5.53 2.133 1.001.817 1.501 1.883 1.501 3.2 0 1.316-.461 2.343-1.382 3.08-.896.764-1.857 1.146-2.884 1.146-.684 0-1.211-.092-1.58-.276-1-.5-1.527-1.001-1.58-1.501l-.039-.198c0-.316.197-.71.592-1.185.395-.474.725-.71.988-.71.289 0 .526.052.711.157.184.132.329.21.434.237.106.105.264.158.474.158a.897.897 0 0 0 .593-.237c.21-.158.316-.382.316-.671 0-.29-.106-.514-.316-.672a.945.945 0 0 0-.632-.237c-.211 0-.435.092-.672.277-.237.184-.566.276-.987.276-.395 0-.751-.276-1.067-.83-.289-.526-.434-.908-.434-1.145Zm35.398-38.906c.948.658 1.422 1.29 1.422 1.896 0 .369-.105.724-.316 1.066-.211.343-.356.593-.435.75a9.266 9.266 0 0 1-.553.751 5.797 5.797 0 0 1-.987.988c-1.001.737-2.015 1.106-3.041 1.106-1.027 0-1.844-.171-2.449-.514a9.986 9.986 0 0 1-1.462-1.027c-.369-.342-.671-.513-.908-.513-.369 0-.711.158-1.027.474-.606 1.053-1.172 1.58-1.699 1.58-.5 0-1.119-.316-1.856-.948-.711-.632-1.067-1.146-1.067-1.54 0-.422.106-.804.316-1.146.211-.342.356-.58.435-.711.079-.158.263-.408.553-.75a7.239 7.239 0 0 1 1.027-.988c.974-.711 1.988-1.067 3.041-1.067s1.87.172 2.449.514c.579.316 1.053.645 1.422.987.369.316.672.474.909.474.421 0 .763-.158 1.026-.474.553-1 1.146-1.5 1.778-1.5.395 0 .869.197 1.422.592Zm-3.278 10.941 10.664 22.04c.448.896.672 1.567.672 2.015 0 .948-.764 1.804-2.291 2.567-.896.448-1.607.672-2.133.672-.501 0-.922-.119-1.264-.356-.316-.237-.553-.487-.711-.75l-.593-1.185-2.054-4.266h-10.941l-2.054 4.266c-.263.526-.474.908-.632 1.145-.131.237-.368.487-.711.75-.316.238-.737.356-1.264.356-.5 0-1.198-.223-2.093-.671-1.527-.737-2.291-1.58-2.291-2.528 0-.448.224-1.12.672-2.014l10.664-22.08a3.487 3.487 0 0 1 1.304-1.462 3.59 3.59 0 0 1 1.896-.553c1.422 0 2.475.685 3.16 2.054Zm-3.2 9.48-2.607 5.411h5.254l-2.647-5.411Zm28.315-11.89c3.897 0 7.281 1.41 10.151 4.227 2.87 2.818 4.305 6.32 4.305 10.507 0 4.16-1.369 7.715-4.108 10.665-2.738 2.922-6.109 4.384-10.111 4.384-4.003 0-7.413-1.449-10.231-4.345-2.791-2.897-4.187-6.346-4.187-10.349 0-2.185.395-4.226 1.185-6.122.79-1.922 1.844-3.529 3.16-4.819a14.794 14.794 0 0 1 4.543-3.041 13.25 13.25 0 0 1 5.293-1.106Zm-7.189 14.892c0 2.343.75 4.253 2.251 5.727 1.528 1.448 3.226 2.172 5.096 2.172 1.869 0 3.554-.71 5.055-2.132 1.501-1.422 2.252-3.331 2.252-5.728 0-2.396-.764-4.318-2.291-5.767-1.501-1.448-3.186-2.172-5.056-2.172s-3.555.737-5.056 2.212c-1.501 1.448-2.251 3.344-2.251 5.688ZM147.078 95.966c-2.291 0-4.556-.592-6.794-1.777-2.502 1.37-5.03 2.054-7.584 2.054-6.767 0-10.151-2.818-10.151-8.453 0-2.923 1.514-5.635 4.542-8.137-1.053-2.343-1.58-4.463-1.58-6.359 0-2.633.79-4.582 2.37-5.846 1.58-1.264 3.7-1.896 6.359-1.896 2.66 0 4.674.632 6.044 1.896 1.369 1.264 2.054 2.989 2.054 5.175 0 1.843-.751 3.502-2.252 4.976-1.106 1.106-2.659 2.33-4.661 3.674 1.554 2.054 3.239 3.792 5.056 5.214.738-1.133 1.251-2.291 1.541-3.476.263-1.159 1.448-1.738 3.555-1.738.895 0 1.566.118 2.014.355.474.237.737.487.79.75.079.238.105.554.079.949-.105 2.001-.922 3.99-2.449 5.964.395.079.764.118 1.106.118 2.054 0 3.081 1.04 3.081 3.12 0 1.45-.237 2.384-.711 2.805-.474.422-1.277.632-2.409.632ZM131.752 72.82c0 .948.224 2.015.671 3.2 1.238-.79 2.16-1.449 2.765-1.975.632-.527.948-1.028.948-1.502 0-1.158-.645-1.737-1.935-1.737-1.633 0-2.449.671-2.449 2.014Zm1.224 17.577c.659 0 1.251-.053 1.778-.158-1.527-1.37-2.976-3.002-4.345-4.898-.606.764-.908 1.554-.908 2.37 0 1.79 1.158 2.686 3.475 2.686Zm29.703-19.947c0-.606.013-1.053.039-1.343.053-.316.184-.671.395-1.066.369-.711 1.396-1.067 3.081-1.067 1.843 0 2.936.487 3.278 1.462.132.447.198 1.132.198 2.054v21.96c0 .633-.026 1.094-.079 1.383-.026.29-.145.632-.356 1.027-.368.711-1.395 1.067-3.08 1.067-1.844 0-2.923-.5-3.239-1.501-.158-.421-.237-1.093-.237-2.015v-21.96Zm28.827-2.251c.264-.474.645-.79 1.146-.948.5-.158 1.119-.237 1.856-.237.764 0 1.37.066 1.817.197.474.132.816.29 1.027.474.237.184.408.461.514.83.158.421.237 1.093.237 2.014v21.922c0 .632-.027 1.093-.079 1.382-.027.29-.145.632-.356 1.027-.369.711-1.395 1.067-3.081 1.067-1.027 0-1.738-.08-2.133-.237a2.304 2.304 0 0 1-.987-.75c-5.925-7.9-9.822-13.062-11.692-15.484V92.45c0 .632-.026 1.093-.079 1.382-.026.29-.145.632-.355 1.027-.369.711-1.396 1.067-3.081 1.067-1.633 0-2.633-.356-3.002-1.067-.211-.395-.342-.75-.395-1.066-.026-.316-.04-.777-.04-1.383v-22.04c0-1 .119-1.725.356-2.172a1.94 1.94 0 0 1 1.145-.948c.501-.158 1.146-.237 1.936-.237s1.409.079 1.856.237c.474.131.803.29.988.474.105.079.408.421.908 1.027 5.556 7.557 9.269 12.547 11.139 14.97v-13.35c0-1.001.118-1.726.355-2.173Zm28.903-1.225c.605 0 1.053.026 1.343.08.316.025.658.144 1.027.355.395.21.671.566.829 1.066.158.5.237 1.172.237 2.015 0 .842-.079 1.514-.237 2.014-.158.5-.434.856-.829 1.066a4.215 4.215 0 0 1-1.067.356c-.29.026-.75.04-1.382.04h-12.087v3.989h7.781c.632 0 1.093.026 1.383.079.316.026.671.145 1.066.355.685.395 1.027 1.436 1.027 3.12 0 1.844-.5 2.937-1.501 3.28-.421.13-1.093.197-2.014.197h-7.742v7.465c0 .632-.026 1.093-.079 1.382-.026.29-.145.632-.355 1.027-.369.711-1.396 1.067-3.081 1.067-1.844 0-2.923-.5-3.239-1.501-.158-.421-.237-1.093-.237-2.015v-21.96c0-1.344.25-2.252.75-2.726.501-.5 1.448-.75 2.844-.75h15.563Zm19.58-.355c3.897 0 7.281 1.409 10.151 4.226 2.87 2.818 4.306 6.32 4.306 10.507 0 4.16-1.37 7.715-4.108 10.664-2.739 2.923-6.11 4.385-10.112 4.385-4.003 0-7.413-1.448-10.23-4.345-2.792-2.897-4.187-6.346-4.187-10.349 0-2.185.395-4.226 1.185-6.122.79-1.922 1.843-3.529 3.16-4.819a14.778 14.778 0 0 1 4.542-3.041 13.253 13.253 0 0 1 5.293-1.106Zm-7.189 14.89c0 2.344.751 4.254 2.252 5.728 1.527 1.448 3.225 2.172 5.095 2.172 1.87 0 3.555-.71 5.056-2.132 1.501-1.422 2.251-3.332 2.251-5.728s-.763-4.318-2.291-5.767c-1.501-1.448-3.186-2.172-5.056-2.172-1.869 0-3.554.737-5.055 2.212-1.501 1.448-2.252 3.344-2.252 5.688Zm46.387 9.52c.395.948.593 1.633.593 2.054 0 1-.817 1.843-2.449 2.528-.843.368-1.528.553-2.054.553-.501 0-.922-.119-1.264-.356-.316-.263-.553-.526-.711-.79-.263-.5-1.29-2.883-3.081-7.149l-1.224.08h-4.977v4.462c0 .606-.027 1.067-.079 1.383-.027.29-.145.632-.356 1.027-.368.71-1.395 1.066-3.081 1.066-1.843 0-2.923-.487-3.239-1.461-.158-.448-.237-1.132-.237-2.054V70.45c0-.606.014-1.053.04-1.343.053-.316.184-.671.395-1.066.369-.711 1.395-1.067 3.081-1.067h8.532c2.317 0 4.568.843 6.754 2.528 1.053.816 1.922 1.922 2.607 3.318.684 1.396 1.027 2.95 1.027 4.66 0 2.977-.988 5.425-2.963 7.348a327.41 327.41 0 0 0 2.686 6.201ZM264.02 80.957h5.056c.763 0 1.527-.29 2.29-.87.764-.579 1.146-1.448 1.146-2.606 0-1.159-.382-2.028-1.146-2.607-.763-.606-1.553-.908-2.369-.908h-4.977v6.99Zm48.696-12.877c.211.395.329.75.356 1.067.052.316.079.776.079 1.382v21.922c0 1.817-.501 2.883-1.501 3.2-.501.157-1.133.236-1.896.236-.764 0-1.37-.066-1.817-.197-.448-.132-.79-.29-1.027-.474-.237-.184-.422-.448-.553-.79-.132-.448-.198-1.132-.198-2.054V79.14c-.658.816-1.619 2.12-2.883 3.91-1.264 1.764-2.067 2.87-2.41 3.318-.342.448-.579.764-.711.948-.131.158-.46.395-.987.711a3.25 3.25 0 0 1-1.659.435 3.423 3.423 0 0 1-1.619-.395c-.474-.29-.817-.567-1.027-.83l-.316-.434c-.527-.659-1.567-2.054-3.121-4.187-1.553-2.16-2.396-3.318-2.528-3.476v13.31c0 .607-.026 1.067-.079 1.383-.026.29-.145.62-.355.988-.395.71-1.422 1.066-3.081 1.066-1.606 0-2.607-.355-3.002-1.066-.211-.369-.342-.711-.395-1.027-.026-.316-.039-.79-.039-1.422V70.45c0-.606.013-1.053.039-1.343.053-.316.184-.671.395-1.066.395-.685 1.422-1.027 3.081-1.027.711 0 1.317.092 1.817.276.527.158.869.33 1.027.514l.237.237 8.966 11.77c4.477-5.925 7.465-9.835 8.966-11.73.448-.712 1.501-1.067 3.16-1.067 1.685 0 2.712.355 3.081 1.066Zm15.962-2.804-1.185.276c-.79 0-1.435-.777-1.935-2.33-.211-.632-.316-1.172-.316-1.62 0-.447.079-.79.237-1.027.263-.342.75-.618 1.461-.83l6.518-2.014c.684-.184 1.079-.276 1.185-.276.79 0 1.422.777 1.896 2.33.21.632.316 1.172.316 1.62 0 .421-.079.75-.237.987-.264.343-.751.62-1.462.83l-6.478 2.054Zm4.345 3.752 10.665 22.04c.447.896.671 1.567.671 2.015 0 .948-.763 1.804-2.291 2.567-.895.448-1.606.672-2.133.672-.5 0-.921-.119-1.264-.356-.316-.237-.553-.487-.711-.75l-.592-1.185-2.054-4.266h-10.941l-2.054 4.266c-.263.526-.474.908-.632 1.145-.132.237-.369.487-.711.75-.316.238-.737.356-1.264.356-.5 0-1.198-.224-2.093-.671-1.528-.737-2.291-1.58-2.291-2.528 0-.448.224-1.12.671-2.014l10.665-22.08a3.485 3.485 0 0 1 1.303-1.462c.606-.368 1.238-.553 1.896-.553 1.422 0 2.476.685 3.16 2.054Zm-3.199 9.48-2.607 5.411h5.253l-2.646-5.411Zm11.222-11.573h21.962c.842 0 1.461.105 1.856.316.395.184.658.487.79.908.132.421.198.974.198 1.66 0 .684-.066 1.237-.198 1.658-.132.395-.355.671-.671.83-.474.236-1.146.355-2.015.355h-7.544V92.53c0 .606-.026 1.053-.079 1.343-.026.29-.145.632-.356 1.027-.184.368-.526.632-1.027.79-.5.158-1.158.237-1.974.237-.817 0-1.475-.08-1.975-.237-.474-.158-.817-.421-1.027-.79-.185-.395-.303-.737-.356-1.027a18.215 18.215 0 0 1-.039-1.383V72.662h-7.584c-.843 0-1.462-.092-1.857-.277a1.57 1.57 0 0 1-.79-.947c-.131-.422-.197-.975-.197-1.66 0-.684.066-1.224.197-1.619.132-.421.356-.71.672-.869.474-.237 1.145-.355 2.014-.355Zm26.996 3.515c0-.606.013-1.053.039-1.343.053-.316.184-.671.395-1.066.369-.711 1.396-1.067 3.081-1.067 1.843 0 2.936.487 3.278 1.462.132.447.198 1.132.198 2.054v21.96c0 .633-.026 1.094-.079 1.383-.026.29-.145.632-.356 1.027-.368.711-1.395 1.067-3.08 1.067-1.844 0-2.923-.5-3.239-1.501-.158-.421-.237-1.093-.237-2.015v-21.96Zm28.235 17.893.711-.513c.895-.527 1.527-.79 1.896-.79.816 0 1.698.737 2.646 2.211.579.922.869 1.66.869 2.212 0 .553-.184 1.014-.553 1.383-.342.369-.75.698-1.224.987-.474.29-.935.567-1.383.83-.421.263-1.303.606-2.646 1.027-1.343.421-2.647.632-3.911.632-1.237 0-2.501-.158-3.791-.474-1.264-.343-2.581-.895-3.95-1.66a17.327 17.327 0 0 1-3.634-2.843c-1.08-1.132-1.975-2.567-2.686-4.305-.685-1.765-1.027-3.674-1.027-5.728s.342-3.91 1.027-5.57c.684-1.684 1.553-3.067 2.607-4.146a15.113 15.113 0 0 1 3.673-2.765c2.581-1.422 5.174-2.133 7.781-2.133 1.238 0 2.489.197 3.753.592 1.29.369 2.264.75 2.923 1.146l.948.553c.474.29.842.526 1.106.71.684.554 1.027 1.186 1.027 1.897 0 .684-.277 1.408-.83 2.172-1.027 1.422-1.948 2.133-2.765 2.133-.474 0-1.145-.29-2.014-.869-1.106-.895-2.581-1.343-4.424-1.343-1.712 0-3.397.593-5.056 1.778-.79.579-1.448 1.395-1.975 2.448-.527 1.054-.79 2.252-.79 3.595 0 1.316.263 2.501.79 3.555.527 1.053 1.198 1.882 2.015 2.488 1.606 1.159 3.278 1.738 5.016 1.738a8.03 8.03 0 0 0 2.291-.316c.737-.21 1.264-.421 1.58-.632Zm24.654-19.315 10.665 22.04c.447.896.671 1.567.671 2.015 0 .948-.763 1.804-2.291 2.567-.895.448-1.606.672-2.133.672-.5 0-.921-.119-1.264-.356-.316-.237-.553-.487-.711-.75l-.592-1.185-2.054-4.266h-10.941l-2.054 4.266c-.263.526-.474.908-.632 1.145-.132.237-.369.487-.711.75-.316.238-.737.356-1.264.356-.5 0-1.198-.224-2.093-.671-1.528-.737-2.291-1.58-2.291-2.528 0-.448.223-1.12.671-2.014l10.665-22.08a3.485 3.485 0 0 1 1.303-1.462c.606-.368 1.238-.553 1.896-.553 1.422 0 2.475.685 3.16 2.054Zm-3.199 9.48-2.607 5.411h5.253l-2.646-5.411Z"/><path fill="#FF61C6" d="m35.734 49.244.72-.52c.907-.533 1.548-.8 1.921-.8.827 0 1.72.747 2.68 2.24.588.934.881 1.681.881 2.241s-.187 1.027-.56 1.4c-.347.374-.76.708-1.24 1.001-.48.294-.947.574-1.4.84-.428.267-1.321.614-2.682 1.04-1.36.428-2.68.641-3.961.641-1.254 0-2.534-.16-3.841-.48-1.28-.347-2.614-.907-4.002-1.68-1.36-.801-2.587-1.761-3.68-2.882-1.095-1.147-2.002-2.6-2.722-4.361-.693-1.787-1.04-3.721-1.04-5.802 0-2.08.347-3.961 1.04-5.642.694-1.707 1.574-3.108 2.641-4.201a15.316 15.316 0 0 1 3.721-2.801c2.615-1.44 5.242-2.16 7.883-2.16 1.254 0 2.52.2 3.801.6 1.307.373 2.294.76 2.961 1.16l.96.56c.48.293.854.533 1.12.72.694.56 1.041 1.2 1.041 1.92 0 .694-.28 1.428-.84 2.201-1.04 1.44-1.974 2.161-2.801 2.161-.48 0-1.16-.293-2.04-.88-1.121-.907-2.615-1.36-4.482-1.36-1.734 0-3.441.6-5.122 1.8-.8.587-1.467 1.414-2 2.48-.534 1.068-.8 2.282-.8 3.642 0 1.334.266 2.534.8 3.601.533 1.067 1.213 1.907 2.04 2.521 1.627 1.174 3.321 1.76 5.082 1.76.827 0 1.6-.106 2.32-.32.748-.213 1.281-.426 1.601-.64Zm8.831-18.126c0-.613.014-1.067.04-1.36.054-.32.187-.68.4-1.08.374-.72 1.414-1.08 3.122-1.08 1.867 0 2.974.493 3.32 1.48.134.453.2 1.147.2 2.08v22.248c0 .64-.026 1.107-.08 1.4-.026.294-.146.64-.36 1.04-.373.72-1.413 1.08-3.12 1.08-1.868 0-2.961-.506-3.281-1.52-.16-.426-.24-1.107-.24-2.04V31.118Zm17.36 18.726h12.324c.613 0 1.067.027 1.36.08.32.027.68.147 1.08.36.72.374 1.08 1.414 1.08 3.122 0 1.867-.493 2.96-1.48 3.28-.453.16-1.147.24-2.08.24H58.363c-1.867 0-2.96-.506-3.28-1.52-.16-.426-.24-1.107-.24-2.04V31.118c0-1.36.253-2.28.76-2.76.506-.507 1.467-.76 2.88-.76H74.25c.613 0 1.067.026 1.36.08.32.026.68.146 1.08.36.72.373 1.08 1.413 1.08 3.12 0 1.868-.493 2.961-1.48 3.281-.453.16-1.147.24-2.08.24H61.925v4.042h7.922c.614 0 1.067.027 1.36.08.32.026.681.147 1.081.36.72.373 1.08 1.414 1.08 3.121 0 1.867-.506 2.961-1.52 3.281-.454.16-1.147.24-2.08.24h-7.843v4.041Zm4.281-31.89.92.2c2.481.8 4.268 1.387 5.362 1.76 1.12.374 1.68 1.028 1.68 1.961 0 .507-.146 1.04-.44 1.6-.693 1.415-1.493 2.121-2.4 2.121-.24 0-.667-.093-1.28-.28l-3.842-1.68-3.721 1.6h-.04c-.534.187-.974.28-1.32.28-1.014 0-1.841-.68-2.481-2.04-.32-.694-.48-1.254-.48-1.68 0-.854.506-1.454 1.52-1.801l5.562-1.84.96-.201Zm33.079 10.884c.267-.48.653-.8 1.16-.96.507-.16 1.134-.24 1.881-.24.773 0 1.387.066 1.84.2.481.133.827.293 1.041.48.24.186.413.466.52.84.16.426.24 1.107.24 2.04v22.208c0 .64-.027 1.107-.08 1.4-.027.294-.147.64-.36 1.04-.374.72-1.414 1.08-3.121 1.08-1.041 0-1.761-.08-2.161-.24-.4-.16-.734-.413-1-.76-6.002-8.002-9.95-13.23-11.844-15.685v13.165c0 .64-.027 1.107-.08 1.4-.027.294-.147.64-.36 1.04-.374.72-1.414 1.08-3.121 1.08-1.654 0-2.668-.36-3.041-1.08-.214-.4-.347-.76-.4-1.08-.027-.32-.04-.787-.04-1.4V31.038c0-1.013.12-1.747.36-2.2.266-.48.653-.8 1.16-.96.507-.16 1.16-.24 1.96-.24.801 0 1.428.08 1.881.24.48.133.814.293 1 .48.107.08.414.426.921 1.04 5.628 7.656 9.39 12.71 11.284 15.165V31.038c0-1.013.12-1.747.36-2.2Zm28.198 20.406.72-.52c.907-.533 1.548-.8 1.921-.8.827 0 1.721.747 2.681 2.24.587.934.88 1.681.88 2.241s-.187 1.027-.56 1.4c-.347.374-.76.708-1.24 1.001-.481.294-.947.574-1.401.84-.427.267-1.32.614-2.681 1.04-1.36.428-2.681.641-3.961.641a16.11 16.11 0 0 1-3.841-.48c-1.281-.347-2.615-.907-4.002-1.68-1.36-.801-2.587-1.761-3.681-2.882-1.094-1.147-2.001-2.6-2.721-4.361-.693-1.787-1.04-3.721-1.04-5.802 0-2.08.347-3.961 1.04-5.642.694-1.707 1.574-3.108 2.641-4.201a15.323 15.323 0 0 1 3.721-2.801c2.615-1.44 5.242-2.16 7.883-2.16 1.254 0 2.521.2 3.801.6 1.307.373 2.294.76 2.961 1.16l.96.56c.481.293.854.533 1.121.72.693.56 1.04 1.2 1.04 1.92 0 .694-.28 1.428-.84 2.201-1.04 1.44-1.974 2.161-2.801 2.161-.48 0-1.16-.293-2.041-.88-1.12-.907-2.614-1.36-4.481-1.36-1.734 0-3.441.6-5.122 1.8-.8.587-1.467 1.414-2 2.48-.534 1.068-.801 2.282-.801 3.642 0 1.334.267 2.534.801 3.601.533 1.067 1.213 1.907 2.04 2.521 1.627 1.174 3.321 1.76 5.082 1.76.827 0 1.6-.106 2.321-.32.747-.213 1.28-.426 1.6-.64Zm8.831-18.126c0-.613.014-1.067.04-1.36.054-.32.187-.68.401-1.08.373-.72 1.413-1.08 3.121-1.08 1.867 0 2.974.493 3.321 1.48.133.453.2 1.147.2 2.08v22.248c0 .64-.027 1.107-.08 1.4-.027.294-.147.64-.36 1.04-.374.72-1.414 1.08-3.121 1.08-1.868 0-2.961-.506-3.281-1.52-.16-.426-.241-1.107-.241-2.04V31.118Zm27.203-1.44 10.803 22.327c.454.907.681 1.587.681 2.04 0 .961-.774 1.828-2.321 2.602-.907.453-1.627.68-2.161.68-.507 0-.933-.12-1.28-.36-.32-.24-.56-.494-.72-.76l-.601-1.2-2.08-4.322h-11.084l-2.081 4.321c-.266.534-.48.92-.64 1.16-.133.24-.373.494-.72.76-.32.24-.747.361-1.281.361-.506 0-1.213-.227-2.12-.68-1.547-.747-2.321-1.6-2.321-2.561 0-.454.227-1.134.68-2.04l10.804-22.368a3.529 3.529 0 0 1 1.32-1.48c.614-.374 1.254-.56 1.921-.56 1.44 0 2.507.693 3.201 2.08Zm-3.241 9.603-2.641 5.482h5.322l-2.681-5.482Zm30.593-11.724 7.402.04c3.868 0 7.27 1.4 10.204 4.202 2.934 2.774 4.401 6.202 4.401 10.283 0 4.055-1.44 7.536-4.321 10.443-2.854 2.908-6.322 4.362-10.404 4.362h-7.322c-1.627 0-2.641-.334-3.041-1-.32-.56-.48-1.414-.48-2.561V31.078c0-.64.013-1.107.04-1.4.053-.294.187-.64.4-1.04.373-.72 1.414-1.08 3.121-1.08Zm7.402 22.247c1.921 0 3.655-.706 5.202-2.12 1.547-1.44 2.321-3.241 2.321-5.402 0-2.16-.76-3.961-2.281-5.402-1.494-1.467-3.254-2.2-5.282-2.2h-3.841v15.124h3.881Zm32.143-20.126 10.803 22.327c.454.907.681 1.587.681 2.04 0 .961-.774 1.828-2.321 2.602-.907.453-1.627.68-2.161.68-.507 0-.933-.12-1.28-.36-.32-.24-.56-.494-.72-.76l-.601-1.2-2.08-4.322h-11.084l-2.081 4.321c-.266.534-.48.92-.64 1.16-.133.24-.373.494-.72.76-.32.24-.747.361-1.281.361-.506 0-1.213-.227-2.12-.68-1.547-.747-2.321-1.6-2.321-2.561 0-.454.227-1.134.68-2.04l10.804-22.368a3.529 3.529 0 0 1 1.32-1.48c.614-.374 1.254-.56 1.921-.56 1.44 0 2.507.693 3.201 2.08Zm-3.241 9.603-2.641 5.482h5.322l-2.681-5.482Zm45.358 9.963.72-.52c.907-.533 1.547-.8 1.921-.8.827 0 1.72.747 2.681 2.24.587.934.88 1.681.88 2.241s-.187 1.027-.56 1.4c-.347.374-.76.708-1.241 1.001-.48.294-.947.574-1.4.84-.427.267-1.321.614-2.681 1.04-1.36.428-2.681.641-3.961.641-1.254 0-2.534-.16-3.842-.48-1.28-.347-2.614-.907-4.001-1.68-1.36-.801-2.587-1.761-3.681-2.882-1.094-1.147-2.001-2.6-2.721-4.361-.694-1.787-1.04-3.721-1.04-5.802 0-2.08.346-3.961 1.04-5.642.694-1.707 1.574-3.108 2.641-4.201a15.323 15.323 0 0 1 3.721-2.801c2.614-1.44 5.242-2.16 7.883-2.16 1.253 0 2.521.2 3.801.6 1.307.373 2.294.76 2.961 1.16l.96.56c.48.293.854.533 1.121.72.693.56 1.04 1.2 1.04 1.92 0 .694-.28 1.428-.84 2.201-1.041 1.44-1.974 2.161-2.801 2.161-.48 0-1.161-.293-2.041-.88-1.12-.907-2.614-1.36-4.481-1.36-1.734 0-3.442.6-5.122 1.8-.8.587-1.467 1.414-2.001 2.48-.533 1.068-.8 2.282-.8 3.642 0 1.334.267 2.534.8 3.601.534 1.067 1.214 1.907 2.041 2.521 1.627 1.174 3.321 1.76 5.082 1.76.827 0 1.6-.106 2.32-.32.747-.213 1.281-.426 1.601-.64Zm22.596-22.007c3.948 0 7.376 1.427 10.283 4.282 2.908 2.854 4.362 6.402 4.362 10.643 0 4.215-1.388 7.816-4.162 10.803-2.774 2.961-6.188 4.442-10.243 4.442-4.055 0-7.509-1.467-10.364-4.401-2.827-2.935-4.241-6.43-4.241-10.484 0-2.214.4-4.281 1.2-6.202.801-1.947 1.868-3.575 3.201-4.882a14.988 14.988 0 0 1 4.602-3.08 13.424 13.424 0 0 1 5.362-1.12Zm-7.283 15.085c0 2.374.761 4.308 2.281 5.802 1.547 1.467 3.268 2.2 5.162 2.2 1.894 0 3.601-.72 5.122-2.16 1.52-1.44 2.28-3.375 2.28-5.802 0-2.427-.773-4.375-2.32-5.842-1.521-1.467-3.228-2.2-5.122-2.2-1.894 0-3.601.746-5.122 2.24-1.52 1.467-2.281 3.388-2.281 5.762Zm55.714-13.605c.214.4.334.76.36 1.08.054.321.081.788.081 1.401v22.208c0 1.84-.507 2.92-1.521 3.24-.507.16-1.147.24-1.921.24-.773 0-1.387-.066-1.84-.2-.454-.133-.8-.293-1.041-.48-.24-.186-.426-.453-.56-.8-.133-.453-.2-1.147-.2-2.08V39.92c-.667.827-1.64 2.148-2.921 3.962-1.28 1.787-2.094 2.907-2.441 3.36-.346.454-.586.774-.72.961-.133.16-.467.4-1 .72a3.295 3.295 0 0 1-1.681.44 3.467 3.467 0 0 1-1.64-.4c-.48-.293-.827-.573-1.041-.84l-.32-.44c-.533-.667-1.587-2.08-3.161-4.242-1.574-2.187-2.427-3.36-2.561-3.52v13.484c0 .613-.026 1.08-.08 1.4-.026.294-.146.627-.36 1-.4.72-1.44 1.08-3.121 1.08-1.627 0-2.641-.36-3.041-1.08-.213-.373-.347-.72-.4-1.04-.027-.32-.04-.8-.04-1.44V31.118c0-.613.013-1.067.04-1.36.053-.32.187-.68.4-1.08.4-.694 1.441-1.04 3.121-1.04.721 0 1.334.093 1.841.28.533.16.88.333 1.04.52l.24.24 9.083 11.924c4.535-6.002 7.563-9.964 9.083-11.884.454-.72 1.521-1.08 3.201-1.08 1.708 0 2.748.36 3.121 1.08Zm25.293 4.802c.694 1.414 1.041 2.988 1.041 4.722 0 1.734-.347 3.307-1.041 4.721-.693 1.387-1.587 2.494-2.681 3.321-2.214 1.708-4.508 2.561-6.882 2.561h-5.001v4.522c0 .613-.027 1.08-.08 1.4-.027.294-.147.64-.361 1.04-.373.72-1.413 1.08-3.121 1.08-1.867 0-2.961-.493-3.281-1.48-.16-.453-.24-1.147-.24-2.08V31.118c0-.613.014-1.067.04-1.36.054-.32.187-.68.4-1.08.374-.72 1.414-1.08 3.121-1.08h8.563c2.348 0 4.628.853 6.842 2.56 1.094.827 1.988 1.947 2.681 3.361Zm-9.523 8.243c.8 0 1.587-.294 2.361-.88.774-.587 1.16-1.468 1.16-2.641 0-1.174-.386-2.054-1.16-2.641-.774-.614-1.574-.92-2.401-.92h-5.001v7.082h5.041Zm32.324-13.085c.267-.426.654-.72 1.161-.88.507-.16 1.133-.24 1.88-.24.774 0 1.387.067 1.841.2.453.134.8.294 1.04.48.24.187.414.467.52.84.16.454.241 1.148.241 2.081v12.084c0 3.522-1.094 6.723-3.282 9.604-1.067 1.36-2.44 2.467-4.121 3.32-1.68.828-3.548 1.241-5.602 1.241-2.027 0-3.881-.427-5.562-1.28-1.653-.854-3.001-1.974-4.041-3.361-2.161-2.828-3.241-6.03-3.241-9.604V31.118c0-.64.013-1.107.04-1.4.053-.32.187-.68.4-1.08.214-.4.574-.68 1.08-.84.507-.16 1.188-.24 2.041-.24.854 0 1.534.08 2.041.24.507.16.853.44 1.04.84.32.613.48 1.453.48 2.52v12.004c0 1.627.4 3.175 1.201 4.642.4.747 1 1.347 1.8 1.8.801.454 1.748.68 2.841.68 1.948 0 3.401-.72 4.362-2.16.96-1.44 1.44-3.108 1.44-5.002V30.878c0-1.04.134-1.774.4-2.2Zm11.788-1.12h22.247c.854 0 1.48.107 1.881.32.4.187.666.494.8.92.133.427.2.988.2 1.681 0 .694-.067 1.254-.2 1.68-.134.4-.36.68-.68.841-.481.24-1.161.36-2.041.36h-7.643v20.127c0 .613-.026 1.067-.08 1.36-.026.294-.146.64-.36 1.04-.186.374-.533.64-1.04.8-.507.16-1.174.24-2.001.24s-1.494-.08-2-.24c-.481-.16-.827-.426-1.041-.8-.186-.4-.306-.746-.36-1.04-.026-.32-.04-.787-.04-1.4V33.359H403.4c-.854 0-1.481-.093-1.881-.28a1.588 1.588 0 0 1-.8-.96c-.134-.427-.2-.987-.2-1.68 0-.695.066-1.241.2-1.641.133-.427.36-.72.68-.88.48-.24 1.16-.36 2.041-.36Zm38.254 2.12 10.804 22.328c.453.907.68 1.587.68 2.04 0 .961-.773 1.828-2.321 2.602-.907.453-1.627.68-2.16.68-.507 0-.934-.12-1.281-.36-.32-.24-.56-.494-.72-.76l-.6-1.2-2.081-4.322h-11.083l-2.081 4.321c-.267.534-.48.92-.64 1.16-.134.24-.374.494-.721.76-.32.24-.747.361-1.28.361-.507 0-1.214-.227-2.121-.68-1.547-.747-2.32-1.6-2.32-2.561 0-.454.226-1.134.68-2.04l10.803-22.368a3.538 3.538 0 0 1 1.321-1.48c.613-.374 1.253-.56 1.92-.56 1.441 0 2.508.693 3.201 2.08Zm-3.241 9.604-2.641 5.482h5.322l-2.681-5.482Zm25.683 18.726c.08-.48.32-.84.72-1.08-2.935-.64-5.615-2.108-8.043-4.402-1.227-1.173-2.214-2.667-2.961-4.481-.72-1.814-1.08-3.775-1.08-5.882 0-2.134.347-4.055 1.04-5.762.694-1.707 1.574-3.108 2.641-4.201a16.819 16.819 0 0 1 3.721-2.801c2.588-1.44 5.229-2.16 7.923-2.16 1.254 0 2.521.2 3.801.6 1.281.4 2.254.786 2.921 1.16l1 .6 1.081.76c.693.534 1.04 1.16 1.04 1.88 0 .694-.28 1.428-.84 2.201-1.014 1.44-1.934 2.161-2.761 2.161-.454 0-1.147-.293-2.081-.88-1.12-.907-2.614-1.36-4.481-1.36-1.734 0-3.441.6-5.122 1.8-.8.587-1.467 1.414-2.001 2.48-.533 1.068-.8 2.282-.8 3.642 0 1.334.267 2.548.8 3.641.534 1.067 1.227 1.907 2.081 2.521 1.654 1.174 3.335 1.76 5.042 1.76.827 0 1.6-.106 2.321-.32.746-.213 1.28-.426 1.6-.64l.48-.36.28-.16c.854-.56 1.494-.84 1.921-.84.8 0 1.68.747 2.641 2.24.587.934.88 1.641.88 2.121s-.12.894-.36 1.24c-.24.348-.48.614-.72.801-.214.16-.56.387-1.041.68-1.493 1.067-3.361 1.787-5.601 2.16 1.013.828 1.52 1.908 1.52 3.242s-.467 2.374-1.4 3.121c-.907.774-1.881 1.16-2.921 1.16-.694 0-1.227-.093-1.601-.28-1.014-.507-1.547-1.013-1.6-1.52l-.04-.2c0-.32.2-.72.6-1.2.4-.48.733-.72 1-.72.294 0 .534.052.72.16.187.133.334.212.44.24.107.106.267.16.481.16.213 0 .413-.08.6-.24.213-.16.32-.388.32-.681 0-.294-.107-.52-.32-.68a.956.956 0 0 0-.64-.24c-.214 0-.441.093-.681.28-.24.186-.573.28-1 .28-.4 0-.76-.28-1.08-.84-.294-.534-.44-.92-.44-1.16Zm35.859-39.413c.96.667 1.44 1.307 1.44 1.92 0 .374-.107.734-.32 1.081-.213.347-.36.6-.44.76-.08.134-.267.387-.56.76a5.918 5.918 0 0 1-1.001 1.001c-1.013.747-2.04 1.12-3.081 1.12-1.04 0-1.867-.173-2.481-.52a10.178 10.178 0 0 1-1.48-1.04c-.374-.347-.68-.52-.92-.52-.374 0-.721.16-1.041.48-.613 1.067-1.187 1.6-1.72 1.6-.507 0-1.134-.32-1.881-.96-.72-.64-1.08-1.16-1.08-1.56 0-.427.106-.814.32-1.16l.44-.721c.08-.16.267-.413.56-.76.32-.374.667-.707 1.041-1 .987-.72 2.014-1.081 3.081-1.081 1.067 0 1.894.173 2.48.52.587.32 1.067.654 1.441 1 .373.32.68.48.92.48.427 0 .774-.16 1.04-.48.561-1.013 1.161-1.52 1.801-1.52.4 0 .88.2 1.441.6Zm-3.322 11.084 10.804 22.327c.454.907.68 1.587.68 2.04 0 .961-.773 1.828-2.321 2.602-.906.453-1.627.68-2.16.68-.507 0-.934-.12-1.281-.36-.32-.24-.56-.494-.72-.76l-.6-1.2-2.081-4.322h-11.083l-2.081 4.321c-.267.534-.48.92-.64 1.16-.134.24-.374.494-.721.76-.32.24-.746.361-1.28.361-.507 0-1.214-.227-2.121-.68-1.547-.747-2.32-1.6-2.32-2.561 0-.454.226-1.134.68-2.04l10.803-22.368a3.538 3.538 0 0 1 1.321-1.48c.613-.374 1.254-.56 1.92-.56 1.441 0 2.508.693 3.201 2.08Zm-3.241 9.603-2.64 5.482h5.321l-2.681-5.482Zm28.684-12.044c3.948 0 7.375 1.427 10.283 4.282 2.908 2.854 4.361 6.402 4.361 10.643 0 4.215-1.387 7.816-4.161 10.803-2.774 2.961-6.189 4.442-10.243 4.442-4.055 0-7.509-1.467-10.364-4.401-2.827-2.935-4.241-6.43-4.241-10.484 0-2.214.4-4.281 1.2-6.202.801-1.947 1.868-3.575 3.201-4.882a14.988 14.988 0 0 1 4.602-3.08 13.424 13.424 0 0 1 5.362-1.12Zm-7.283 15.085c0 2.374.76 4.308 2.281 5.802 1.547 1.467 3.268 2.2 5.162 2.2 1.894 0 3.601-.72 5.121-2.16 1.521-1.44 2.281-3.375 2.281-5.802 0-2.427-.774-4.375-2.321-5.842-1.52-1.467-3.227-2.2-5.121-2.2-1.894 0-3.602.746-5.122 2.24-1.521 1.467-2.281 3.388-2.281 5.762ZM144.971 95.967c-2.32 0-4.614-.6-6.882-1.8-2.534 1.386-5.095 2.08-7.682 2.08-6.856 0-10.284-2.854-10.284-8.563 0-2.96 1.534-5.708 4.602-8.243-1.067-2.374-1.601-4.521-1.601-6.442 0-2.667.8-4.641 2.401-5.922 1.601-1.28 3.748-1.92 6.442-1.92s4.735.64 6.122 1.92c1.387 1.28 2.081 3.028 2.081 5.242 0 1.867-.76 3.548-2.281 5.042-1.12 1.12-2.694 2.36-4.721 3.72 1.573 2.082 3.281 3.842 5.121 5.283.747-1.147 1.267-2.321 1.561-3.522.266-1.173 1.467-1.76 3.601-1.76.907 0 1.587.12 2.041.36.48.24.746.494.8.76.08.24.107.56.08.96-.107 2.028-.934 4.042-2.481 6.043.4.08.774.12 1.12.12 2.081 0 3.121 1.053 3.121 3.16 0 1.468-.24 2.415-.72 2.842-.48.426-1.294.64-2.441.64Zm-15.525-23.448c0 .96.227 2.04.681 3.241 1.253-.8 2.187-1.467 2.8-2 .641-.534.961-1.04.961-1.521 0-1.174-.654-1.76-1.961-1.76-1.654 0-2.481.68-2.481 2.04Zm1.241 17.806a9.21 9.21 0 0 0 1.8-.16c-1.547-1.387-3.014-3.041-4.401-4.962-.614.774-.92 1.574-.92 2.401 0 1.814 1.173 2.721 3.521 2.721Zm30.089-20.207c0-.613.013-1.067.04-1.36.053-.32.186-.68.4-1.08.373-.72 1.414-1.08 3.121-1.08 1.867 0 2.974.493 3.321 1.48.133.453.2 1.147.2 2.08v22.248c0 .64-.027 1.107-.08 1.4-.027.294-.147.64-.36 1.04-.374.72-1.414 1.08-3.121 1.08-1.867 0-2.961-.506-3.281-1.52-.16-.427-.24-1.107-.24-2.04V70.118Zm29.203-2.28c.266-.48.653-.8 1.16-.96.507-.16 1.134-.24 1.881-.24.773 0 1.387.066 1.84.2.48.133.827.293 1.041.48.24.186.413.466.52.84.16.427.24 1.107.24 2.04v22.208c0 .64-.027 1.107-.08 1.4-.027.294-.147.64-.36 1.04-.374.72-1.414 1.08-3.121 1.08-1.041 0-1.761-.08-2.161-.24-.4-.16-.734-.413-1-.76-6.002-8.002-9.95-13.23-11.844-15.685v13.165c0 .64-.027 1.107-.08 1.4-.027.294-.147.64-.36 1.04-.374.72-1.414 1.08-3.121 1.08-1.654 0-2.668-.36-3.041-1.08-.214-.4-.347-.76-.4-1.08-.027-.32-.041-.787-.041-1.4V70.038c0-1.013.121-1.747.361-2.2.266-.48.653-.8 1.16-.96.507-.16 1.16-.24 1.961-.24.8 0 1.427.08 1.88.24.48.133.814.293 1.001.48.106.08.413.426.92 1.04 5.628 7.656 9.39 12.71 11.284 15.165V70.038c0-1.013.12-1.747.36-2.2Zm29.278-1.24c.614 0 1.067.026 1.361.08.32.026.667.146 1.04.36.4.213.68.573.841 1.08.16.507.24 1.187.24 2.04 0 .854-.08 1.534-.24 2.041-.161.507-.441.867-.841 1.08-.4.187-.76.307-1.08.36-.294.027-.76.04-1.401.04h-12.244v4.042h7.883c.64 0 1.107.026 1.4.08.321.026.681.147 1.081.36.693.4 1.04 1.454 1.04 3.161 0 1.867-.507 2.974-1.52 3.321-.427.133-1.107.2-2.041.2h-7.843v7.563c0 .64-.026 1.107-.08 1.4-.026.294-.146.64-.36 1.04-.373.72-1.414 1.08-3.121 1.08-1.867 0-2.961-.506-3.281-1.52-.16-.427-.24-1.107-.24-2.04V70.118c0-1.36.253-2.28.76-2.76.507-.507 1.467-.76 2.881-.76h15.765Zm19.836-.36c3.948 0 7.375 1.426 10.283 4.28 2.908 2.855 4.362 6.403 4.362 10.644 0 4.215-1.388 7.816-4.162 10.803-2.774 2.962-6.189 4.442-10.243 4.442-4.055 0-7.509-1.467-10.364-4.401-2.827-2.935-4.241-6.43-4.241-10.484 0-2.214.4-4.281 1.2-6.202.801-1.947 1.868-3.574 3.201-4.882a14.988 14.988 0 0 1 4.602-3.08 13.424 13.424 0 0 1 5.362-1.12Zm-7.283 15.084c0 2.374.761 4.308 2.281 5.802 1.547 1.467 3.268 2.2 5.162 2.2 1.894 0 3.601-.72 5.121-2.16 1.521-1.44 2.281-3.374 2.281-5.802 0-2.427-.773-4.375-2.321-5.842-1.52-1.467-3.227-2.2-5.121-2.2-1.894 0-3.601.746-5.122 2.24-1.52 1.467-2.281 3.388-2.281 5.762Zm46.991 9.643c.401.96.601 1.654.601 2.08 0 1.015-.827 1.868-2.481 2.562-.854.373-1.547.56-2.081.56-.507 0-.934-.12-1.28-.36-.32-.267-.56-.534-.721-.8-.266-.507-1.307-2.921-3.121-7.243l-1.24.08h-5.042v4.522c0 .613-.026 1.08-.08 1.4-.026.294-.146.64-.36 1.04-.373.72-1.414 1.08-3.121 1.08-1.867 0-2.961-.493-3.281-1.48-.16-.453-.24-1.147-.24-2.08V70.118c0-.613.013-1.067.04-1.36.053-.32.187-.68.4-1.08.374-.72 1.414-1.08 3.121-1.08h8.643c2.347 0 4.628.853 6.842 2.56 1.067.827 1.948 1.947 2.641 3.361.694 1.414 1.041 2.988 1.041 4.722 0 3.014-1.001 5.495-3.001 7.442a318.614 318.614 0 0 0 2.72 6.282Zm-15.365-10.203h5.122c.774 0 1.547-.294 2.321-.88.773-.587 1.16-1.468 1.16-2.641 0-1.174-.387-2.054-1.16-2.641-.774-.614-1.574-.92-2.401-.92h-5.042v7.082Zm49.331-13.044c.213.4.333.76.36 1.08.053.32.08.787.08 1.4v22.208c0 1.84-.507 2.92-1.52 3.24-.507.16-1.147.24-1.921.24s-1.387-.066-1.841-.2c-.453-.133-.8-.293-1.04-.48-.24-.186-.427-.453-.56-.8-.134-.453-.2-1.147-.2-2.08V78.92c-.667.827-1.641 2.148-2.921 3.961-1.281 1.788-2.094 2.908-2.441 3.362-.347.453-.587.773-.72.96-.134.16-.467.4-1.001.72a3.291 3.291 0 0 1-1.68.44 3.47 3.47 0 0 1-1.641-.4c-.48-.293-.827-.573-1.04-.84l-.32-.44c-.534-.667-1.587-2.08-3.161-4.242-1.574-2.187-2.428-3.36-2.561-3.52v13.484c0 .613-.027 1.08-.08 1.4-.027.294-.147.627-.36 1-.4.72-1.441 1.08-3.121 1.08-1.627 0-2.641-.36-3.041-1.08-.214-.373-.347-.72-.4-1.04-.027-.32-.04-.8-.04-1.44V70.118c0-.613.013-1.067.04-1.36.053-.32.186-.68.4-1.08.4-.694 1.44-1.04 3.121-1.04.72 0 1.334.093 1.84.28.534.16.881.333 1.041.52l.24.24 9.083 11.924c4.535-6.002 7.562-9.964 9.083-11.885.453-.72 1.52-1.08 3.201-1.08 1.707 0 2.748.36 3.121 1.08Zm16.17-2.841-1.2.28c-.801 0-1.454-.787-1.961-2.361-.213-.64-.32-1.187-.32-1.64 0-.454.08-.8.24-1.041.267-.347.76-.627 1.48-.84l6.603-2.04c.693-.188 1.093-.281 1.2-.281.8 0 1.44.787 1.921 2.36.213.641.32 1.188.32 1.641 0 .427-.08.76-.24 1-.267.347-.761.628-1.481.84l-6.562 2.082Zm4.401 3.8 10.804 22.328c.453.907.68 1.587.68 2.04 0 .961-.773 1.828-2.321 2.602-.907.453-1.627.68-2.16.68-.507 0-.934-.12-1.281-.36-.32-.24-.56-.494-.72-.76l-.6-1.2-2.081-4.322h-11.083l-2.081 4.321c-.267.534-.48.92-.64 1.16-.134.24-.374.494-.721.76-.32.24-.747.361-1.28.361-.507 0-1.214-.227-2.121-.68-1.547-.747-2.32-1.6-2.32-2.561 0-.454.226-1.134.68-2.04l10.803-22.368a3.538 3.538 0 0 1 1.321-1.48c.613-.374 1.253-.56 1.92-.56 1.441 0 2.508.693 3.201 2.08Zm-3.241 9.604-2.641 5.482h5.322l-2.681-5.482Zm11.369-11.724h22.247c.854 0 1.481.107 1.881.32.4.187.667.494.8.92.134.427.2.988.2 1.681 0 .694-.066 1.254-.2 1.68-.133.4-.36.68-.68.841-.48.24-1.16.36-2.041.36h-7.642v20.127c0 .613-.027 1.067-.08 1.36-.027.294-.147.64-.36 1.04-.187.374-.534.64-1.041.8-.506.16-1.173.24-2 .24s-1.494-.08-2.001-.24c-.48-.16-.827-.426-1.04-.8-.187-.4-.307-.746-.36-1.04-.027-.32-.04-.787-.04-1.4V72.359h-7.683c-.854 0-1.48-.093-1.881-.28a1.591 1.591 0 0 1-.8-.96c-.133-.427-.2-.987-.2-1.68 0-.694.067-1.241.2-1.641.134-.427.36-.72.68-.88.481-.24 1.161-.36 2.041-.36Zm27.347 3.561c0-.613.013-1.067.04-1.36.053-.32.187-.68.4-1.08.374-.72 1.414-1.08 3.121-1.08 1.867 0 2.974.493 3.321 1.48.134.453.2 1.147.2 2.08v22.248c0 .64-.026 1.107-.08 1.4-.026.294-.146.64-.36 1.04-.373.72-1.414 1.08-3.121 1.08-1.867 0-2.961-.506-3.281-1.52-.16-.427-.24-1.107-.24-2.04V70.118Zm28.603 18.126.72-.52c.907-.533 1.547-.8 1.921-.8.827 0 1.72.747 2.681 2.24.586.934.88 1.681.88 2.241s-.187 1.027-.56 1.4a5.831 5.831 0 0 1-1.241 1.001c-.48.294-.947.574-1.4.84-.427.267-1.321.614-2.681 1.04-1.361.428-2.681.641-3.961.641-1.254 0-2.535-.16-3.842-.48-1.28-.347-2.614-.907-4.001-1.68a17.56 17.56 0 0 1-3.681-2.882c-1.094-1.147-2.001-2.6-2.721-4.361-.694-1.787-1.04-3.721-1.04-5.802 0-2.08.346-3.961 1.04-5.642.693-1.707 1.574-3.108 2.641-4.201a15.304 15.304 0 0 1 3.721-2.801c2.614-1.44 5.242-2.16 7.883-2.16 1.253 0 2.52.2 3.801.6 1.307.373 2.294.76 2.961 1.16l.96.56c.48.293.854.533 1.121.72.693.56 1.04 1.2 1.04 1.92 0 .694-.28 1.428-.84 2.201-1.041 1.44-1.974 2.161-2.801 2.161-.481 0-1.161-.293-2.041-.88-1.12-.907-2.614-1.36-4.482-1.36-1.733 0-3.441.6-5.121 1.8-.8.587-1.467 1.414-2.001 2.48-.533 1.068-.8 2.282-.8 3.642 0 1.334.267 2.534.8 3.601.534 1.067 1.214 1.907 2.041 2.521 1.627 1.174 3.321 1.76 5.081 1.76.827 0 1.601-.106 2.321-.32.747-.213 1.281-.426 1.601-.64Zm24.975-19.566 10.804 22.327c.453.907.68 1.587.68 2.04 0 .961-.774 1.828-2.321 2.602-.907.453-1.627.68-2.161.68-.506 0-.933-.12-1.28-.36-.32-.24-.56-.494-.72-.76l-.6-1.2-2.081-4.322h-11.084l-2.08 4.321c-.267.534-.481.92-.641 1.16-.133.24-.373.494-.72.76-.32.24-.747.361-1.28.361-.507 0-1.214-.227-2.121-.68-1.547-.747-2.321-1.6-2.321-2.561 0-.454.227-1.134.681-2.04l10.803-22.368a3.536 3.536 0 0 1 1.32-1.48c.614-.374 1.254-.56 1.921-.56 1.441 0 2.508.693 3.201 2.08Zm-3.241 9.603-2.641 5.482h5.322l-2.681-5.482Z"/></g><defs><filter id="a" width="552.197" height="111.551" x=".686" y=".979" color-interpolation-filters="sRGB" filterUnits="userSpaceOnUse"><feFlood flood-opacity="0" result="BackgroundImageFix"/><feColorMatrix in="SourceAlpha" result="hardAlpha" values="0 0 0 0 0 0 0 0 0 0 0 0 0 0 0 0 0 0 127 0"/><feOffset/><feGaussianBlur stdDeviation="8.061"/><feComposite in2="hardAlpha" operator="out"/><feColorMatrix values="0 0 0 0 0.0973334 0 0 0 0 0 0 0 0 0 0.304167 0 0 0 0.46 0"/><feBlend in2="BackgroundImageFix" result="effect1_dropShadow_112_209"/><feBlend in="SourceGraphic" in2="effect1_dropShadow_112_209" result="shape"/></filter></defs></svg>