<svg xmlns="http://www.w3.org/2000/svg" width="509" height="470" fill="none"><path fill="#fff" stroke="#fff" d="M436.5 465.5H425V401h13l29.5 44 29-44h12v64.5h-11l-1-44-22.5 35h-14.5l-23-35v44Z"/><path fill="#fff" d="m242.626 228-76 130.5h151l-75-130.5Z"/><path fill="#fff" stroke="#fff" d="m135.626 465-17-29.5-18.5 29.5-12.5-.5 24-40.5-8.5-14-5 7.5h-5.5l-2-2.5v-3l7.5-12h12l33 56.5 6.5-4 4.5 3v5l-7 4.5h-11.5Zm106.5-272-96 165.5h-69.5l130.5-227.5-45-78-28.5 48.5-32-3.5-12-25 41-72h66.5l177.5 312.5 39.5-23.5 25 13.5v31l-39 24h-62.5l-95.5-165.5Z"/><path stroke="#fff" stroke-width="12" d="M323.126 446.685c-17.5 26.999-52 9-54-7.5-2-31.6 20.333-35.167 31.5-34 7.5.783 20 7.5 22.5 14m-84 27.5c-17.5 26.999-52 9-54-7.5-2-31.6 20.333-35.167 31.5-34 7.5.783 20 7.5 22.5 14"/><circle cx="375.5" cy="432.5" r="28.5" stroke="#fff" stroke-width="12"/><path stroke="#fff" stroke-width="12" d="M60.126 446.685c-17.5 26.999-52 9-54-7.5-2-31.6 20.333-35.167 31.5-34 7.5.783 20 7.5 22.5 14"/></svg>