<svg xmlns="http://www.w3.org/2000/svg" width="523" height="587" fill="none"><path stroke="#fff" stroke-width="10" d="M5 435.5V148L259 6l259 142v282.5m-513 5L263.5 581 518 430.5m-513 5 513-5"/><path fill="#fff" d="M32.996 190.37v5.881c0 .663-.236 1.24-.71 1.733a2.234 2.234 0 0 1-1.676.71 2.326 2.326 0 0 1-1.705-.71 2.473 2.473 0 0 1-.682-1.733v-5.881H25.78a2.372 2.372 0 0 1-1.704-.682 2.376 2.376 0 0 1-.682-1.705c0-.644.227-1.202.682-1.676a2.326 2.326 0 0 1 1.704-.71h2.387v-5.455H25.78a2.372 2.372 0 0 1-1.704-.682 2.372 2.372 0 0 1-.682-1.704c0-.682.227-1.25.682-1.705a2.377 2.377 0 0 1 1.704-.682h2.443v-5.881c0-.662.228-1.221.682-1.676a2.326 2.326 0 0 1 1.705-.71c.644 0 1.203.237 1.676.71.474.474.71 1.033.71 1.676v5.881h4.773v-5.881c0-.662.237-1.221.71-1.676.474-.473 1.033-.71 1.677-.71.663 0 1.23.237 1.704.71.493.474.739 1.033.739 1.676v5.881h2.443c.644 0 1.203.237 1.676.711a2.23 2.23 0 0 1 .71 1.676c0 .682-.255 1.259-.767 1.733-.51.473-1.05.71-1.619.71h-2.386v5.398h2.386c.625 0 1.174.237 1.648.71.492.474.739 1.032.739 1.676 0 .625-.228 1.184-.682 1.677-.436.473-1.004.71-1.705.71H42.6v5.881c0 .663-.246 1.24-.739 1.733a2.326 2.326 0 0 1-1.704.71c-.644 0-1.203-.237-1.677-.71-.473-.493-.71-1.07-.71-1.733v-5.881h-4.773Zm0-10.171v5.398h4.773v-5.398h-4.773ZM68.083 165h2.5c.663 0 1.221.237 1.676.71.473.455.71 1.014.71 1.676v2.046c0 .663-.237 1.241-.71 1.733a2.234 2.234 0 0 1-1.676.71h-2.557c-.682 0-1.26-.246-1.733-.738-.455-.493-.672-1.042-.654-1.648l.057-2.103c0-.662.228-1.221.682-1.676a2.326 2.326 0 0 1 1.705-.71Zm9.716 39.802H63.253a2.376 2.376 0 0 1-1.705-.681 2.376 2.376 0 0 1-.681-1.705c0-.644.227-1.203.681-1.676a2.323 2.323 0 0 1 1.705-.71h4.886v-17.814h-4.83a2.323 2.323 0 0 1-1.704-.71 2.339 2.339 0 0 1-.682-1.676c0-.663.228-1.231.682-1.705.474-.492 1.042-.738 1.705-.738h7.273c.663 0 1.221.246 1.676.738.473.474.71 1.042.71 1.705v20.2h4.773c.663 0 1.231.236 1.705.71a2.19 2.19 0 0 1 .738 1.676c0 .663-.236 1.231-.71 1.705a2.342 2.342 0 0 1-1.676.681Zm27.16-21.819-6.506 4.234v15.256c0 .644-.237 1.202-.71 1.676-.474.473-1.032.71-1.676.71-.644 0-1.203-.237-1.677-.71-.473-.474-.71-1.032-.71-1.676V179.83c0-.663.227-1.231.682-1.705.473-.492 1.042-.738 1.705-.738.644 0 1.202.246 1.676.738.473.474.71 1.042.71 1.705v1.591l4.347-2.642c1.458-.928 3.106-1.392 4.943-1.392h2.216c1.894 0 3.532.672 4.915 2.017 1.383 1.345 2.112 3.002 2.187 4.972l.654 18.097c.019.644-.208 1.202-.682 1.676a2.326 2.326 0 0 1-1.705.71 2.414 2.414 0 0 1-1.647-.625c-.474-.435-.72-1.023-.739-1.761l-.71-17.813c-.057-1.667-.928-2.5-2.614-2.5h-2.33c-.719 0-1.496.274-2.329.823Zm45.569 21.876h-10.199c-1.799 0-3.333-.54-4.602-1.619l-4.631-4.035c-1.477-1.231-2.216-2.897-2.216-5v-6.222c-.076-2.026.758-3.788 2.5-5.284l4.176-3.608c1.345-1.098 2.785-1.648 4.319-1.648h10.71a2.23 2.23 0 0 1 1.676.711 2.23 2.23 0 0 1 .711 1.676c0 .682-.237 1.25-.711 1.704-.454.455-1.013.682-1.676.682h-10.256c-.644 0-1.259.256-1.846.767l-3.836 3.267c-.625.531-.937 1.241-.937 2.131v5.824c0 .625.246 1.156.738 1.591l4.205 3.58c.53.473 1.231.71 2.102.71h9.773c.644 0 1.203.237 1.677.71.473.455.71 1.014.71 1.677 0 .662-.237 1.231-.71 1.704-.455.455-1.014.682-1.677.682Zm32.7 0h-14.432a2.324 2.324 0 0 1-1.704-.71 2.472 2.472 0 0 1-.682-1.733c0-.644.227-1.203.682-1.677a2.324 2.324 0 0 1 1.704-.71h4.773v-28.154h-4.83a2.37 2.37 0 0 1-1.704-.682 2.372 2.372 0 0 1-.682-1.705c0-.662.227-1.221.682-1.676a2.324 2.324 0 0 1 1.704-.71h7.273c.644 0 1.203.237 1.676.71.474.474.711 1.033.711 1.676v30.541h4.829c.644 0 1.203.237 1.677.71.473.474.71 1.033.71 1.677 0 .663-.237 1.24-.71 1.733a2.236 2.236 0 0 1-1.677.71Zm27.217-4.83 8.04-5.113V179.83c0-.663.227-1.231.682-1.705.473-.492 1.042-.738 1.705-.738.662 0 1.221.246 1.676.738.473.474.71 1.042.71 1.705v22.643c0 .644-.237 1.202-.71 1.676-.474.473-1.032.71-1.676.71-.644 0-1.203-.237-1.677-.71-.473-.474-.71-1.032-.71-1.676v-1.875l-4.148 2.699c-1.629 1.041-3.276 1.562-4.943 1.562h-2.216c-1.951 0-3.627-.682-5.029-2.045-1.401-1.364-2.149-3.031-2.244-5l-.682-17.984c-.038-.625.18-1.174.654-1.648.492-.492 1.07-.738 1.733-.738.644 0 1.193.236 1.647.71.474.473.72 1.032.739 1.676l.625 17.643c.057 1.704 1.032 2.556 2.926 2.556h2.898Zm43.013-19.262v-11.279c0-.662.227-1.221.682-1.676a2.201 2.201 0 0 1 1.647-.71c.663 0 1.232.237 1.705.71.493.455.739 1.014.739 1.676v32.984c0 .663-.237 1.232-.711 1.705a2.337 2.337 0 0 1-1.676.682c-.682 0-1.25-.227-1.704-.682a2.372 2.372 0 0 1-.682-1.705v-1.051c-2.33 2.292-4.508 3.438-6.534 3.438h-4.063c-1.629 0-3.258-.701-4.887-2.102l-1.988-1.677c-.455-.435-.89-1.164-1.307-2.187-.398-1.023-.597-1.979-.597-2.87v-9.716c0-1.079.228-2.121.682-3.125.455-1.023.985-1.79 1.591-2.301l1.96-1.676c1.402-1.212 3.05-1.819 4.944-1.819h3.437c1.875 0 3.58.663 5.114 1.989l1.648 1.392Zm-6.932 1.449h-3.324c-.701 0-1.335.256-1.904.767l-1.534 1.335c-.53.474-.795 1.08-.795 1.819v10.114c0 .663.312 1.259.937 1.79l1.563 1.335c.492.435 1.013.653 1.562.653h3.893c.511 0 1.117-.293 1.818-.88l3.778-3.126c.625-.549.938-1.231.938-2.045v-5.171c0-1.155-.332-2.007-.995-2.557l-3.892-3.324c-.511-.473-1.193-.71-2.045-.71Zm46.905 4.205v5.767c0 .644-.237 1.203-.71 1.676-.474.474-1.033.711-1.677.711h-16.875v1.392c0 .814.35 1.505 1.051 2.074l1.392 1.164c.758.588 1.477.881 2.159.881h12.273c.644 0 1.203.237 1.677.71.473.455.71 1.014.71 1.677 0 .644-.246 1.202-.739 1.676-.473.473-1.023.71-1.648.71h-12.585c-.834 0-1.714-.17-2.642-.511-.91-.36-1.582-.73-2.018-1.108l-2.13-1.875c-.663-.531-1.222-1.269-1.676-2.216-.436-.947-.654-1.819-.654-2.614v-10.938c0-.625.237-1.468.71-2.528.493-1.061 1.108-1.885 1.847-2.472l1.989-1.563c1.307-1.06 2.755-1.591 4.346-1.591h6.705c1.686 0 3.277.701 4.773 2.103l1.79 1.704c1.288 1.156 1.932 2.879 1.932 5.171Zm-19.205-.369v3.693h14.489v-3.324c0-.89-.275-1.572-.824-2.046l-1.392-1.221c-.72-.587-1.364-.881-1.932-.881h-5.995c-.738 0-1.411.256-2.017.767l-1.392 1.165c-.625.473-.937 1.089-.937 1.847Zm30.313.823v-1.846c0-.947.483-1.705 1.449-2.273l18.807-11.108c.512-.341 1.023-.512 1.535-.512.606 0 1.145.237 1.619.71.492.474.739 1.052.739 1.734 0 .89-.351 1.543-1.052 1.96l-17.585 10.398 17.585 10.37c.701.454 1.052 1.126 1.052 2.017 0 .681-.247 1.259-.739 1.733-.474.473-1.013.71-1.619.71-.474 0-.985-.171-1.535-.512l-18.807-11.108c-.966-.53-1.449-1.288-1.449-2.273Zm48.24 13.211h8.608c.663 0 1.232.237 1.705.71.493.455.739 1.014.739 1.676 0 .663-.246 1.232-.739 1.705a2.372 2.372 0 0 1-1.705.682h-8.92c-1.137 0-2.311-.36-3.523-1.08-1.212-.719-2.055-1.524-2.529-2.415l-5.511-10.653c-.739-1.534-1.108-3.106-1.108-4.716 0-1.781.35-3.324 1.051-4.631l5.568-10.54c.531-.985 1.355-1.847 2.472-2.586 1.118-.757 2.197-1.136 3.239-1.136h9.432c.663 0 1.222.237 1.676.71.474.474.71 1.033.71 1.676 0 .663-.236 1.241-.71 1.733a2.23 2.23 0 0 1-1.676.711h-9.091c-.758 0-1.373.445-1.847 1.335l-5.284 9.887c-.417.776-.625 1.695-.625 2.755 0 1.118.227 2.103.682 2.955l5.057 9.716c.473 1.004 1.25 1.506 2.329 1.506Zm22.188 1.449 9.66-32.643c.379-1.193 1.174-1.79 2.386-1.79 1.175 0 1.913.502 2.216 1.506l9.518 33.154c.075.246.113.483.113.71 0 .663-.227 1.232-.682 1.705-.454.455-.975.682-1.562.682-1.25 0-2.046-.578-2.387-1.733l-1.931-6.478h-10.881l-2.103 6.932c-.057.304-.293.597-.71.881a2.493 2.493 0 0 1-1.364.398c-.701 0-1.278-.237-1.733-.71-.454-.474-.682-1.051-.682-1.733 0-.284.048-.578.142-.881Zm11.989-23.381-4.091 13.665h8.04l-3.949-13.665Zm32.558 11.648h4.83c.644 0 1.203.237 1.676.71a2.23 2.23 0 0 1 .71 1.676v4.063c0 .663-.236 1.24-.71 1.733a2.233 2.233 0 0 1-1.676.71h-4.887a2.326 2.326 0 0 1-1.704-.71 2.339 2.339 0 0 1-.682-1.676v-4.12c0-.663.237-1.221.71-1.676a2.36 2.36 0 0 1 1.733-.71Zm25.541 12.671v-32.984c0-.644.227-1.193.682-1.648a2.37 2.37 0 0 1 1.704-.682c.663 0 1.222.237 1.677.71.473.455.71 1.014.71 1.677v12.045l3.835-2.5c1.743-1.098 3.296-1.647 4.659-1.647h2.955c1.951 0 3.627.7 5.029 2.102 1.401 1.383 2.13 3.068 2.187 5.057l.597 17.87a2.228 2.228 0 0 1-.682 1.704 2.374 2.374 0 0 1-1.705.682 2.234 2.234 0 0 1-1.676-.71c-.454-.492-.691-1.051-.71-1.676l-.597-17.927c-.019-.644-.265-1.203-.738-1.676a2.324 2.324 0 0 0-1.705-.71h-2.671c-.606 0-1.269.236-1.988.71l-6.79 4.432v15.171c0 .663-.237 1.231-.71 1.704-.455.455-1.014.682-1.677.682a2.37 2.37 0 0 1-1.704-.682 2.37 2.37 0 0 1-.682-1.704ZM505 185.029v1.846c0 .966-.464 1.724-1.392 2.273L484.8 200.256c-.549.341-1.07.512-1.562.512-.606 0-1.155-.227-1.648-.682-.473-.455-.71-1.032-.71-1.733 0-.909.36-1.572 1.079-1.989l17.558-10.426-17.558-10.341c-.719-.455-1.079-1.137-1.079-2.046 0-.701.237-1.278.71-1.733.493-.454 1.042-.682 1.648-.682.473 0 .994.171 1.562.512l18.808 11.108c.928.549 1.392 1.307 1.392 2.273ZM50.081 353.597H70.69c1.587 0 2.947.567 4.08 1.7 1.18 1.089 1.77 2.426 1.77 4.013 0 1.587-.59 2.947-1.77 4.081-1.133 1.088-2.493 1.632-4.08 1.632H49.333c-2.72 0-5.531-.861-8.433-2.584s-4.92-3.65-6.053-5.781l-13.195-25.505c-1.768-3.672-2.652-7.436-2.652-11.29 0-4.262.839-7.957 2.516-11.086l13.33-25.232c1.27-2.358 3.243-4.421 5.918-6.189 2.675-1.814 5.26-2.721 7.753-2.721h22.58c1.587 0 2.925.567 4.013 1.701 1.133 1.133 1.7 2.471 1.7 4.012 0 1.587-.567 2.97-1.7 4.149-1.088 1.133-2.426 1.7-4.013 1.7H49.333c-1.813 0-3.287 1.066-4.42 3.197l-12.65 23.668c-.998 1.859-1.497 4.058-1.497 6.597 0 2.675.544 5.033 1.632 7.073l12.106 23.26c1.134 2.404 2.993 3.605 5.577 3.605Zm53.118 3.469 23.124-78.146c.907-2.856 2.811-4.285 5.713-4.285 2.811 0 4.579 1.202 5.305 3.605l22.784 79.37c.181.589.272 1.156.272 1.7 0 1.587-.544 2.947-1.633 4.081-1.088 1.088-2.335 1.632-3.74 1.632-2.993 0-4.897-1.383-5.713-4.149l-4.625-15.506h-26.049l-5.032 16.595c-.136.725-.703 1.428-1.701 2.108a5.957 5.957 0 0 1-3.264.952c-1.678 0-3.061-.567-4.149-1.7-1.088-1.134-1.632-2.517-1.632-4.149 0-.68.113-1.383.34-2.108Zm28.701-55.974-9.794 32.714h19.247l-9.453-32.714Zm60.666-26.457h46.248c1.497 0 2.812.567 3.945 1.701 1.179 1.133 1.768 2.471 1.768 4.012 0 1.587-.566 2.97-1.7 4.149-1.133 1.133-2.471 1.7-4.013 1.7h-17.275v67.4h17.275c1.587 0 2.925.567 4.013 1.7 1.134 1.089 1.7 2.426 1.7 4.013 0 1.587-.566 2.947-1.7 4.081-1.133 1.088-2.471 1.632-4.013 1.632h-46.248c-1.587 0-2.947-.544-4.08-1.632-1.089-1.134-1.633-2.494-1.633-4.081 0-1.587.544-2.924 1.633-4.013 1.133-1.133 2.493-1.7 4.08-1.7h17.547v-67.4h-17.547c-1.587 0-2.947-.567-4.08-1.7-1.089-1.134-1.633-2.471-1.633-4.013 0-1.632.544-3.015 1.633-4.148 1.133-1.134 2.493-1.701 4.08-1.701Zm136.092 5.849v84.539h-15.37l-30.742-70.188v64.475c0 1.587-.567 2.947-1.7 4.081-1.088 1.088-2.426 1.632-4.013 1.632-1.587 0-2.947-.544-4.081-1.632-1.088-1.134-1.632-2.494-1.632-4.081v-84.675h15.167l30.809 70.053v-64.204c0-1.587.567-2.947 1.701-4.08 1.178-1.179 2.561-1.769 4.148-1.769 1.587 0 2.925.567 4.013 1.701 1.133 1.133 1.7 2.516 1.7 4.148Zm26.593 78.826v-84.675h51.825c1.496 0 2.811.567 3.945 1.701 1.179 1.133 1.768 2.471 1.768 4.012 0 1.587-.567 2.97-1.7 4.149-1.134 1.133-2.471 1.7-4.013 1.7h-40.399v17.955h28.973c1.587 0 2.924.567 4.013 1.701 1.133 1.088 1.7 2.425 1.7 4.012 0 1.587-.567 2.948-1.7 4.081-1.089 1.088-2.426 1.632-4.013 1.632h-28.973v43.732c0 1.587-.567 2.947-1.7 4.081-1.089 1.088-2.426 1.632-4.013 1.632-1.587 0-2.947-.544-4.081-1.632-1.088-1.134-1.632-2.494-1.632-4.081Zm126.434-76.309 12.582 25.64c1.769 3.492 2.653 7.277 2.653 11.358 0 3.99-.884 7.754-2.653 11.29l-12.582 25.369c-2.675 5.577-7.209 8.365-13.602 8.365-3.038 0-5.781-.793-8.23-2.38-2.403-1.587-4.217-3.582-5.441-5.985l-12.65-25.369c-1.678-3.31-2.516-7.073-2.516-11.29 0-4.217.838-8.003 2.516-11.358l12.65-25.64c2.857-5.577 7.414-8.366 13.671-8.366 6.347 0 10.882 2.789 13.602 8.366Zm-17.411 5.713L452.44 312.79c-1.088 2.403-1.632 4.761-1.632 7.073 0 2.494.544 4.874 1.632 7.141l12.174 24.349c.635 1.496 1.791 2.244 3.469 2.244 1.451 0 2.561-.748 3.332-2.244l12.242-24.349c1.134-2.403 1.701-4.783 1.701-7.141 0-2.494-.567-4.851-1.701-7.073l-11.97-24.076c-.771-1.769-1.972-2.653-3.604-2.653-1.633 0-2.902.884-3.809 2.653Z"/><path fill="#fff" stroke="#fff" d="m267.032 535.914-7.331-4.06 5.674-10.085h4.717l2.486 4.313-5.546 9.832Zm4.972-24.675h-23.331l11.156-19.791 12.175 19.791Zm-26.454 2.276h.291l.144-.253 14.279-25.183.144-.255-.151-.251-4.144-6.85-.442-.732-.421.744-13.944 24.676h-31.143l.397.737 3.824 7.104.142.263h31.024Z"/><path fill="#fff" stroke="#fff" d="M271.048 520.056h-29.259l3.952-6.914h29.45L291 538.959 286.793 546l-15.745-25.944ZM283.223 461h-8.351l-15.043 26.832 15.426 25.246h8.159l-15.362-25.436L283.223 461Z"/><path fill="#fff" stroke="#fff" d="M272.45 491.638c-.153 0-1.636-2.707-2.358-4.06l2.358-4.25h11.538v8.31H272.45Zm-36.781 12.56-5.545-9.896 7.203-4.059 5.673 9.895-2.486 4.06h-4.845Z"/></svg>