<svg xmlns="http://www.w3.org/2000/svg" width="755" height="743" fill="none"><path stroke="#fff" stroke-linejoin="round" stroke-width="11" d="M178.5 25v234h159V21H496m-238 0v159"/><path stroke="#fff" stroke-linejoin="round" stroke-width="11" d="M181.5 338H496v237M257.5 417.5h159m0-161.5V100.5H654V23m79 234v81H575v263.5m-475-187V98m-79.5 78.5V335"/><path stroke="#fff" stroke-linejoin="round" stroke-width="11" d="M733.5 100.5v79H496V257m77.5 1.5H652"/><circle cx="179" cy="21" r="21" fill="#fff"/><circle cx="258" cy="21" r="21" fill="#fff"/><circle cx="258" cy="179" r="21" fill="#fff"/><circle cx="178" cy="338" r="21" fill="#fff"/><circle cx="258" cy="417" r="21" fill="#fff"/><circle cx="100" cy="417" r="21" fill="#fff"/><circle cx="21" cy="338" r="21" fill="#fff"/><circle cx="21" cy="180" r="21" fill="#fff"/><circle cx="100" cy="100" r="21" fill="#fff"/><circle cx="417" cy="417" r="21" fill="#fff"/><circle cx="496" cy="576" r="21" fill="#fff"/><circle cx="575" cy="602" r="21" fill="#fff"/><circle cx="496" cy="21" r="21" fill="#fff"/><circle cx="417" cy="259" r="21" fill="#fff"/><circle cx="496" cy="259" r="21" fill="#fff"/><circle cx="496" cy="259" r="21" fill="#fff"/><circle cx="575" cy="259" r="21" fill="#fff"/><circle cx="654" cy="259" r="21" fill="#fff"/><circle cx="654" cy="21" r="21" fill="#fff"/><circle cx="734" cy="101" r="21" fill="#fff"/><circle cx="733" cy="259" r="21" fill="#fff"/><path stroke="#fff" stroke-width="11" d="M624 735.5h24c19 0 22.5-31-3.5-31-25 0-24-30.5-.5-30.5h21.5M563 741v-31m42.5 31v-31m-42.5 0v-17.5c0-9.5 9.5-19.5 21.5-19.5s21 10.5 21 19.5V710m-42.5 0h42.5m-104-36v61.5H520c16 0 22.5-11 22.5-22.5v-17c0-9.5-5-22-22.5-22h-18.5ZM438 741v-31m42.5 31v-31m-42.5 0v-17.5c0-9.5 9.5-19.5 21.5-19.5s21 10.5 21 19.5V710m-42.5 0h42.5M405 741v-67m0 0h-25m25 0h25.5"/><path stroke="#fff" stroke-miterlimit="4.069" stroke-width="11" d="M368.501 686.687C358.5 667.688 336.75 669.689 329 685.188c-1.5 3.001-2 3.001-2 19 0 16-.063 15.875 2 20 7.751 15.5 29.501 18 39.501-1"/><path stroke="#fff" stroke-width="11" d="M315.5 674H275v30.75m40.5 30.75H275v-30.75m0 0h36m-99 36.249V696c0-20 15.5-23 21.5-23s21 4 21 23v44.999M149 691.5c0-4.833 7.5-18.5 21.5-18.5s20.911 13.5 20.911 18.5v26c0 5.853-7.411 19-20.911 19-13.5 0-21.5-11.893-21.5-19v-26Z"/><path stroke="#fff" stroke-miterlimit="4.069" stroke-width="11" d="M130.501 686.499C120.5 667.5 99.25 669.5 91.5 684.999 90 688 89 688 89 704s-.063 15.874 2 20c7.751 15.5 29.501 18 39.501-1"/></svg>