<svg xmlns="http://www.w3.org/2000/svg" width="731" height="287" fill="none"><path fill="#fff" stroke="#fff" d="M414.5 223.5h-75V220l6-3.5 9-7.5 4-11.5 21.5-114 2-17.5 3-2.5 39-8 3.5-16L386 48l-1-1.5V35l2-3.5v-8l-2-5-5-4-6.5-2 3-3 70.5-2 3 2v3l-8 4-6 7-3.5 8V35l19.5-3.5 35-5.5 32.5-4.5 27-3 31.5-2h70.5l22 2L692 23l17.5 5 7.5 5 7 6.5 4 8.5 2 5v17.5L726.5 81l-5 9.5-12 17-30 30-31 21.5-28 16 6.5-36 21.5-15 17.5-16.5 9-14 3.5-17-3.5-9-9-8-11.5-6.5-29.5-6.5-28-3.5h-47l-45 3.5-50.5 6.5-27 5L405 197.5v15l4 4 5.5 3.5v3.5Z"/><path fill="#fff" stroke="#fff" d="m579.824 189.032-.324.121v2.268l-4.944 15.326-7.395 8.381-5.455 3.968-.072.052-.05.075-2 3-.518.777h2.727l1.353 1.354.147.146h63.516l.138-.276 1.5-3 .161-.323-.254-.255-1.5-1.5-.042-.041-.05-.031-6.393-3.934-3.369-5.775v-15.32l3.492-19.457.155-.865-.823.309-40 15Z"/><mask id="a" width="631" height="287" x="0" y="0" fill="#000" maskUnits="userSpaceOnUse"><path fill="#fff" d="M0 0h631v287H0z"/><path d="M332 7.5h-37l-1.5 2v3l6 3.5 3.5 3.5 1.5 7L303 38l-2 16-4 18-2 12h-1.5l-3.5-4-9.5-4.5-10-5.5-14-2.5H227L213 70l-15.5 4-12.5 6-14 9-11.5 9-9 10-8.5 12.5-4 9.5-4 2-20 8-23 10-29 14-23 16-17.5 15-12 16.5-5 12-2.5 10L4.5 244l9.5 11 10.5 8 16 8.5 17 6.5 15.5 3.5 26.5 4H194l59-6 18.5-2.5 37-5.5 69-14L451 238l45.5-14.5h5.5l1.5-2-1.5-4-9-8V198l3.5-18 1-6 1-8.5 1-4.5 1.5-9.5 1-6 1.5-12L508 119l5.5-12 9.5-9 10.5-3.5 13-2h10l6.5.5 7.5 3 4.5 2 3 2.5 5.5 5 5 9.5v28l-1.5 9.5-3.5 18-1.5 10-2 9 40.5-14.5 7-36.5 2.5-15v-21l-4-9.5-7.5-11.5-9-6.5-11-4.5-11-1.5-11-2h-15l-14 2-14 4-12.5 8.5-7.5 6-1.5 2-1.5-2 3-3.5v-7.5L516 69l-2.5-2h-3l-4 2-7 1.5h-36L461 74l2.5 2.5 6 5 2.5 4V103l-8.5 47.5-2.5 17-3.5 23-3.5 10-5.5 10.5-6.5 6.5-14 4-25.5 6.5-40.5 8.5-67.5 12-23 3L238 255l-20 2h-2.5l-40 1.5-29-1.5-15.5-2-11.5-3-15.5-5.5-8-6-6.5-7L86 227v-10.5l3.5-10.5 6.5-9.5 6.5-6.5 11.5-11 17-12.5v8.5l3 8.5 6 10 10 12.5 11.5 8 14 7.5 20 4 7.5 1.5h33l4.5-1.5 23-25 4.5-5-1-2h-3.5l-5 3-9.5 4-8.5 1.5H224l-6-1.5-7.5-1.5-7.5-2.5-5.5-3-8-5.5-4.5-4.5-5.5-7.5-3-9.5-1-10.5 1-14.5 3-9.5 7-11.5 16.5-18 15-7 16-4h8.5L253 93l10.5 4 11 5.5 6 5.5 4 7.5 1.5 10V138l-3.5 20-4.5 27-5 26-1.5 10.5 1.5 1.5h51.5v-3.5l-5-4.5-4-9.5v-12l31-189L346 1h-3l-4 4.5-7 2Z"/></mask><path fill="#fff" d="M332 7.5h-37l-1.5 2v3l6 3.5 3.5 3.5 1.5 7L303 38l-2 16-4 18-2 12h-1.5l-3.5-4-9.5-4.5-10-5.5-14-2.5H227L213 70l-15.5 4-12.5 6-14 9-11.5 9-9 10-8.5 12.5-4 9.5-4 2-20 8-23 10-29 14-23 16-17.5 15-12 16.5-5 12-2.5 10L4.5 244l9.5 11 10.5 8 16 8.5 17 6.5 15.5 3.5 26.5 4H194l59-6 18.5-2.5 37-5.5 69-14L451 238l45.5-14.5h5.5l1.5-2-1.5-4-9-8V198l3.5-18 1-6 1-8.5 1-4.5 1.5-9.5 1-6 1.5-12L508 119l5.5-12 9.5-9 10.5-3.5 13-2h10l6.5.5 7.5 3 4.5 2 3 2.5 5.5 5 5 9.5v28l-1.5 9.5-3.5 18-1.5 10-2 9 40.5-14.5 7-36.5 2.5-15v-21l-4-9.5-7.5-11.5-9-6.5-11-4.5-11-1.5-11-2h-15l-14 2-14 4-12.5 8.5-7.5 6-1.5 2-1.5-2 3-3.5v-7.5L516 69l-2.5-2h-3l-4 2-7 1.5h-36L461 74l2.5 2.5 6 5 2.5 4V103l-8.5 47.5-2.5 17-3.5 23-3.5 10-5.5 10.5-6.5 6.5-14 4-25.5 6.5-40.5 8.5-67.5 12-23 3L238 255l-20 2h-2.5l-40 1.5-29-1.5-15.5-2-11.5-3-15.5-5.5-8-6-6.5-7L86 227v-10.5l3.5-10.5 6.5-9.5 6.5-6.5 11.5-11 17-12.5v8.5l3 8.5 6 10 10 12.5 11.5 8 14 7.5 20 4 7.5 1.5h33l4.5-1.5 23-25 4.5-5-1-2h-3.5l-5 3-9.5 4-8.5 1.5H224l-6-1.5-7.5-1.5-7.5-2.5-5.5-3-8-5.5-4.5-4.5-5.5-7.5-3-9.5-1-10.5 1-14.5 3-9.5 7-11.5 16.5-18 15-7 16-4h8.5L253 93l10.5 4 11 5.5 6 5.5 4 7.5 1.5 10V138l-3.5 20-4.5 27-5 26-1.5 10.5 1.5 1.5h51.5v-3.5l-5-4.5-4-9.5v-12l31-189L346 1h-3l-4 4.5-7 2Z"/><path stroke="#fff" stroke-width="2" d="M332 7.5h-37l-1.5 2v3l6 3.5 3.5 3.5 1.5 7L303 38l-2 16-4 18-2 12h-1.5l-3.5-4-9.5-4.5-10-5.5-14-2.5H227L213 70l-15.5 4-12.5 6-14 9-11.5 9-9 10-8.5 12.5-4 9.5-4 2-20 8-23 10-29 14-23 16-17.5 15-12 16.5-5 12-2.5 10L4.5 244l9.5 11 10.5 8 16 8.5 17 6.5 15.5 3.5 26.5 4H194l59-6 18.5-2.5 37-5.5 69-14L451 238l45.5-14.5h5.5l1.5-2-1.5-4-9-8V198l3.5-18 1-6 1-8.5 1-4.5 1.5-9.5 1-6 1.5-12L508 119l5.5-12 9.5-9 10.5-3.5 13-2h10l6.5.5 7.5 3 4.5 2 3 2.5 5.5 5 5 9.5v28l-1.5 9.5-3.5 18-1.5 10-2 9 40.5-14.5 7-36.5 2.5-15v-21l-4-9.5-7.5-11.5-9-6.5-11-4.5-11-1.5-11-2h-15l-14 2-14 4-12.5 8.5-7.5 6-1.5 2-1.5-2 3-3.5v-7.5L516 69l-2.5-2h-3l-4 2-7 1.5h-36L461 74l2.5 2.5 6 5 2.5 4V103l-8.5 47.5-2.5 17-3.5 23-3.5 10-5.5 10.5-6.5 6.5-14 4-25.5 6.5-40.5 8.5-67.5 12-23 3L238 255l-20 2h-2.5l-40 1.5-29-1.5-15.5-2-11.5-3-15.5-5.5-8-6-6.5-7L86 227v-10.5l3.5-10.5 6.5-9.5 6.5-6.5 11.5-11 17-12.5v8.5l3 8.5 6 10 10 12.5 11.5 8 14 7.5 20 4 7.5 1.5h33l4.5-1.5 23-25 4.5-5-1-2h-3.5l-5 3-9.5 4-8.5 1.5H224l-6-1.5-7.5-1.5-7.5-2.5-5.5-3-8-5.5-4.5-4.5-5.5-7.5-3-9.5-1-10.5 1-14.5 3-9.5 7-11.5 16.5-18 15-7 16-4h8.5L253 93l10.5 4 11 5.5 6 5.5 4 7.5 1.5 10V138l-3.5 20-4.5 27-5 26-1.5 10.5 1.5 1.5h51.5v-3.5l-5-4.5-4-9.5v-12l31-189L346 1h-3l-4 4.5-7 2Z" mask="url(#a)"/></svg>