<svg width="472" height="470" viewBox="0 0 472 470" fill="none" xmlns="http://www.w3.org/2000/svg">
<g filter="url(#filter0_iiii_34_2)">
<path d="M300.5 461.5L322.5 453L332.5 448.5L342 444L301.5 347L260 248.5L158.5 457.5L168.5 461.5L181.5 464.5L193.5 467L205 468.5L216.5 469.5L229 470H240.5L252.5 469.5L265 468.5L276.5 466.5L300.5 461.5Z" fill="white"/>
<path d="M87.5 418.5L221 165.5L199 115L192 101L185.5 89L181 81.5L177 76L168.5 66L158 60L146.5 55.5L133.5 53H123L112.25 53.75L101.5 54.5L89.5 56.5L79.5 60L71 66L63 73L55 81.5L45.5 93.5L35 110.5L23 132.5L11.5 158L3.5 189L0 218.5V248.5L2 272L7 295.5L14 318L24.5 342L37.5 363.5L51.5 382.5L67 400.5L77 411L87.5 418.5Z" fill="white"/>
<path d="M428 102.5L405.5 73.5L376.5 48L345.5 27.5L308 11.5L286.5 6L267.5 2.5L247 0H228L206.5 2.5L188 6L203 10.5L217 16.5L229.5 24.5L241.5 34L251.5 44.5L261.5 57L269.5 69L276.5 81.5L283.5 94.5L290 109L302 135.5L324 188.5L368 290.5L411 391L424.5 373.5L434 360L450 332L462 299L468.5 264.5L471.5 231L467 197.5L459 163.5L453 146.5L446 131.5L437 116L428 102.5Z" fill="white"/>
</g>
<path d="M423.695 372.907L411.249 389.04L368.919 290.107L368.918 290.104L324.924 188.117L324.918 188.104L302.924 135.117L302.918 135.102L302.911 135.087L290.913 108.591L290.911 108.587L284.413 94.0909L284.398 94.0578L284.38 94.0259L277.38 81.0259L277.377 81.0186L277.372 81.0114L270.372 68.5114L270.354 68.4776L270.332 68.4453L262.332 56.4453L262.308 56.4092L262.281 56.3753L252.281 43.8753L252.254 43.8416L252.224 43.8103L242.224 33.3103L242.176 33.2595L242.121 33.216L230.121 23.716L230.081 23.6848L230.039 23.6577L217.539 15.6577L217.47 15.6133L217.394 15.5809L203.394 9.58086L203.342 9.55849L203.287 9.54217L192.215 6.22037L206.651 3.48919L228.058 1H246.939L267.349 3.48897L286.285 6.97726L307.678 12.4498L345.024 28.3841L375.891 48.7963L404.768 74.1881L427.188 103.085L436.151 116.529L445.113 131.963L452.073 146.879L458.039 163.782L466.015 197.682L470.494 231.022L467.508 264.363L461.032 298.735L449.089 331.578L433.155 359.463L423.695 372.907ZM332.072 447.596L322.114 452.077L300.216 460.538L276.312 465.518L264.874 467.507L252.439 468.502L240.479 469H229.02L216.563 468.502L205.108 467.506L193.667 466.013L181.725 463.526L181.704 463.521L168.8 460.543L159.869 456.971L259.935 250.922L300.577 347.385L300.578 347.388L340.71 443.505L332.09 447.588L332.072 447.596ZM219.891 165.459L87.1498 417.021L77.6587 410.242L67.7413 399.828L52.2825 381.876L38.3321 362.944L25.3898 341.539L14.9384 317.65L7.96853 295.247L2.9911 271.853L1 248.458V218.559L4.4851 189.185L12.4468 158.333L23.896 132.946L35.865 111.003L46.3202 94.0751L55.7575 82.1542L63.695 73.7207L71.6193 66.7869L79.9624 60.8976L89.7492 57.4723L101.617 55.4942L112.32 54.7476L123.035 54H133.405L146.221 56.4647L157.567 60.9046L167.852 66.7812L176.214 76.6188L180.165 82.0523L184.631 89.4958L191.113 101.462L198.094 115.424L219.891 165.459Z" stroke="white" stroke-width="2"/>
<defs>
<filter id="filter0_iiii_34_2" x="-4" y="-4" width="479.5" height="478" filterUnits="userSpaceOnUse" color-interpolation-filters="sRGB">
<feFlood flood-opacity="0" result="BackgroundImageFix"/>
<feBlend mode="normal" in="SourceGraphic" in2="BackgroundImageFix" result="shape"/>
<feColorMatrix in="SourceAlpha" type="matrix" values="0 0 0 0 0 0 0 0 0 0 0 0 0 0 0 0 0 0 127 0" result="hardAlpha"/>
<feOffset dx="-4"/>
<feGaussianBlur stdDeviation="2"/>
<feComposite in2="hardAlpha" operator="arithmetic" k2="-1" k3="1"/>
<feColorMatrix type="matrix" values="0 0 0 0 0 0 0 0 0 0 0 0 0 0 0 0 0 0 0.25 0"/>
<feBlend mode="normal" in2="shape" result="effect1_innerShadow_34_2"/>
<feColorMatrix in="SourceAlpha" type="matrix" values="0 0 0 0 0 0 0 0 0 0 0 0 0 0 0 0 0 0 127 0" result="hardAlpha"/>
<feOffset dy="-4"/>
<feGaussianBlur stdDeviation="2"/>
<feComposite in2="hardAlpha" operator="arithmetic" k2="-1" k3="1"/>
<feColorMatrix type="matrix" values="0 0 0 0 0 0 0 0 0 0 0 0 0 0 0 0 0 0 0.25 0"/>
<feBlend mode="normal" in2="effect1_innerShadow_34_2" result="effect2_innerShadow_34_2"/>
<feColorMatrix in="SourceAlpha" type="matrix" values="0 0 0 0 0 0 0 0 0 0 0 0 0 0 0 0 0 0 127 0" result="hardAlpha"/>
<feOffset dx="4"/>
<feGaussianBlur stdDeviation="2"/>
<feComposite in2="hardAlpha" operator="arithmetic" k2="-1" k3="1"/>
<feColorMatrix type="matrix" values="0 0 0 0 0 0 0 0 0 0 0 0 0 0 0 0 0 0 0.25 0"/>
<feBlend mode="normal" in2="effect2_innerShadow_34_2" result="effect3_innerShadow_34_2"/>
<feColorMatrix in="SourceAlpha" type="matrix" values="0 0 0 0 0 0 0 0 0 0 0 0 0 0 0 0 0 0 127 0" result="hardAlpha"/>
<feOffset dy="4"/>
<feGaussianBlur stdDeviation="2"/>
<feComposite in2="hardAlpha" operator="arithmetic" k2="-1" k3="1"/>
<feColorMatrix type="matrix" values="0 0 0 0 0 0 0 0 0 0 0 0 0 0 0 0 0 0 0.25 0"/>
<feBlend mode="normal" in2="effect3_innerShadow_34_2" result="effect4_innerShadow_34_2"/>
</filter>
</defs>
</svg>
