<svg width="1309" height="477" viewBox="0 0 1309 477" fill="none" xmlns="http://www.w3.org/2000/svg">
<path d="M1120.5 376H1136V430H1120.5H1146.5H1150.5" stroke="white" stroke-width="10"/>
<path d="M1149.19 470H1144.77L1144.8 467.716H1149.19C1150.71 467.716 1151.97 467.4 1152.98 466.77C1153.98 466.129 1154.74 465.237 1155.25 464.092C1155.76 462.938 1156.02 461.59 1156.02 460.047V458.752C1156.02 457.54 1155.87 456.463 1155.58 455.522C1155.29 454.571 1154.86 453.771 1154.3 453.121C1153.74 452.461 1153.05 451.962 1152.23 451.622C1151.43 451.283 1150.5 451.113 1149.45 451.113H1144.68V448.814H1149.45C1150.84 448.814 1152.11 449.047 1153.25 449.513C1154.4 449.968 1155.38 450.633 1156.21 451.506C1157.04 452.369 1157.68 453.417 1158.13 454.649C1158.57 455.871 1158.8 457.249 1158.8 458.781V460.047C1158.8 461.58 1158.57 462.962 1158.13 464.194C1157.68 465.417 1157.03 466.459 1156.19 467.323C1155.36 468.186 1154.35 468.85 1153.16 469.316C1151.99 469.772 1150.67 470 1149.19 470ZM1146.27 448.814V470H1143.46V448.814H1146.27ZM1169.14 470.291C1168.05 470.291 1167.05 470.107 1166.16 469.738C1165.28 469.36 1164.51 468.831 1163.87 468.152C1163.24 467.473 1162.76 466.668 1162.42 465.737C1162.08 464.805 1161.91 463.787 1161.91 462.681V462.07C1161.91 460.789 1162.1 459.65 1162.48 458.65C1162.86 457.642 1163.37 456.788 1164.02 456.089C1164.67 455.391 1165.41 454.862 1166.23 454.503C1167.06 454.144 1167.91 453.965 1168.79 453.965C1169.92 453.965 1170.89 454.159 1171.7 454.547C1172.53 454.935 1173.2 455.478 1173.72 456.177C1174.25 456.865 1174.64 457.68 1174.89 458.621C1175.14 459.553 1175.27 460.571 1175.27 461.677V462.885H1163.51V460.688H1172.58V460.484C1172.54 459.785 1172.39 459.106 1172.14 458.447C1171.9 457.787 1171.51 457.244 1170.97 456.817C1170.44 456.39 1169.71 456.177 1168.79 456.177C1168.18 456.177 1167.62 456.308 1167.1 456.57C1166.59 456.822 1166.15 457.2 1165.78 457.705C1165.41 458.209 1165.13 458.825 1164.92 459.553C1164.72 460.28 1164.62 461.119 1164.62 462.07V462.681C1164.62 463.428 1164.72 464.131 1164.92 464.791C1165.13 465.441 1165.44 466.013 1165.84 466.508C1166.25 467.003 1166.74 467.391 1167.31 467.672C1167.89 467.953 1168.55 468.094 1169.29 468.094C1170.24 468.094 1171.04 467.9 1171.7 467.512C1172.36 467.124 1172.94 466.605 1173.43 465.955L1175.06 467.25C1174.72 467.764 1174.29 468.254 1173.77 468.72C1173.24 469.185 1172.6 469.563 1171.83 469.854C1171.08 470.146 1170.18 470.291 1169.14 470.291ZM1187.58 465.824C1187.58 465.436 1187.49 465.077 1187.32 464.747C1187.15 464.408 1186.81 464.102 1186.28 463.83C1185.77 463.549 1184.99 463.307 1183.95 463.103C1183.08 462.919 1182.29 462.7 1181.58 462.448C1180.88 462.196 1180.29 461.89 1179.79 461.531C1179.31 461.173 1178.93 460.751 1178.67 460.266C1178.41 459.781 1178.28 459.213 1178.28 458.563C1178.28 457.942 1178.41 457.355 1178.69 456.802C1178.97 456.25 1179.36 455.76 1179.87 455.333C1180.38 454.906 1181 454.571 1181.71 454.329C1182.43 454.086 1183.23 453.965 1184.11 453.965C1185.38 453.965 1186.45 454.188 1187.34 454.634C1188.24 455.081 1188.92 455.677 1189.4 456.424C1189.87 457.161 1190.11 457.981 1190.11 458.883H1187.42C1187.42 458.447 1187.29 458.025 1187.02 457.617C1186.77 457.2 1186.4 456.856 1185.9 456.584C1185.42 456.313 1184.82 456.177 1184.11 456.177C1183.37 456.177 1182.76 456.293 1182.3 456.526C1181.84 456.749 1181.5 457.035 1181.29 457.384C1181.09 457.734 1180.99 458.102 1180.99 458.49C1180.99 458.781 1181.03 459.043 1181.13 459.276C1181.24 459.499 1181.42 459.708 1181.68 459.902C1181.95 460.086 1182.31 460.261 1182.79 460.426C1183.27 460.59 1183.87 460.755 1184.61 460.92C1185.9 461.211 1186.96 461.561 1187.8 461.968C1188.63 462.375 1189.25 462.875 1189.66 463.467C1190.07 464.058 1190.27 464.776 1190.27 465.62C1190.27 466.309 1190.12 466.939 1189.83 467.512C1189.55 468.084 1189.14 468.579 1188.6 468.996C1188.06 469.403 1187.42 469.724 1186.67 469.956C1185.94 470.179 1185.11 470.291 1184.19 470.291C1182.8 470.291 1181.63 470.044 1180.67 469.549C1179.71 469.054 1178.98 468.414 1178.48 467.628C1177.99 466.842 1177.74 466.013 1177.74 465.14H1180.45C1180.49 465.877 1180.7 466.464 1181.09 466.901C1181.48 467.328 1181.95 467.633 1182.51 467.817C1183.08 467.992 1183.63 468.079 1184.19 468.079C1184.92 468.079 1185.54 467.982 1186.03 467.788C1186.54 467.594 1186.92 467.328 1187.18 466.988C1187.45 466.648 1187.58 466.26 1187.58 465.824ZM1203.73 466.944V447.65H1206.43V470H1203.96L1203.73 466.944ZM1193.14 462.303V461.997C1193.14 460.794 1193.28 459.703 1193.57 458.723C1193.87 457.734 1194.29 456.885 1194.84 456.177C1195.39 455.469 1196.05 454.925 1196.8 454.547C1197.57 454.159 1198.42 453.965 1199.36 453.965C1200.35 453.965 1201.22 454.14 1201.95 454.489C1202.7 454.828 1203.33 455.328 1203.84 455.988C1204.37 456.638 1204.78 457.423 1205.08 458.345C1205.38 459.266 1205.59 460.309 1205.71 461.473V462.812C1205.6 463.966 1205.39 465.004 1205.08 465.926C1204.78 466.847 1204.37 467.633 1203.84 468.283C1203.33 468.933 1202.7 469.433 1201.95 469.782C1201.21 470.121 1200.33 470.291 1199.33 470.291C1198.41 470.291 1197.57 470.092 1196.8 469.694C1196.05 469.297 1195.39 468.739 1194.84 468.021C1194.29 467.303 1193.87 466.459 1193.57 465.489C1193.28 464.51 1193.14 463.447 1193.14 462.303ZM1195.84 461.997V462.303C1195.84 463.088 1195.92 463.826 1196.07 464.514C1196.24 465.203 1196.49 465.809 1196.83 466.333C1197.17 466.857 1197.6 467.269 1198.13 467.57C1198.65 467.861 1199.28 468.007 1200 468.007C1200.9 468.007 1201.63 467.817 1202.2 467.439C1202.78 467.061 1203.25 466.561 1203.6 465.94C1203.95 465.319 1204.22 464.645 1204.41 463.918V460.411C1204.3 459.878 1204.13 459.363 1203.9 458.869C1203.69 458.364 1203.41 457.918 1203.06 457.53C1202.72 457.132 1202.3 456.817 1201.79 456.584C1201.3 456.351 1200.71 456.235 1200.03 456.235C1199.3 456.235 1198.66 456.39 1198.13 456.701C1197.6 457.001 1197.17 457.418 1196.83 457.952C1196.49 458.476 1196.24 459.087 1196.07 459.785C1195.92 460.474 1195.84 461.211 1195.84 461.997ZM1217.16 470.291C1216.06 470.291 1215.07 470.107 1214.18 469.738C1213.29 469.36 1212.53 468.831 1211.89 468.152C1211.26 467.473 1210.78 466.668 1210.44 465.737C1210.1 464.805 1209.93 463.787 1209.93 462.681V462.07C1209.93 460.789 1210.12 459.65 1210.49 458.65C1210.87 457.642 1211.39 456.788 1212.04 456.089C1212.69 455.391 1213.42 454.862 1214.25 454.503C1215.07 454.144 1215.93 453.965 1216.81 453.965C1217.93 453.965 1218.9 454.159 1219.72 454.547C1220.54 454.935 1221.22 455.478 1221.74 456.177C1222.27 456.865 1222.65 457.68 1222.91 458.621C1223.16 459.553 1223.28 460.571 1223.28 461.677V462.885H1211.53V460.688H1220.59V460.484C1220.55 459.785 1220.41 459.106 1220.16 458.447C1219.91 457.787 1219.53 457.244 1218.99 456.817C1218.46 456.39 1217.73 456.177 1216.81 456.177C1216.2 456.177 1215.64 456.308 1215.12 456.57C1214.61 456.822 1214.17 457.2 1213.8 457.705C1213.43 458.209 1213.14 458.825 1212.94 459.553C1212.74 460.28 1212.63 461.119 1212.63 462.07V462.681C1212.63 463.428 1212.74 464.131 1212.94 464.791C1213.15 465.441 1213.46 466.013 1213.86 466.508C1214.26 467.003 1214.75 467.391 1215.33 467.672C1215.91 467.953 1216.57 468.094 1217.3 468.094C1218.25 468.094 1219.06 467.9 1219.72 467.512C1220.38 467.124 1220.96 466.605 1221.45 465.955L1223.08 467.25C1222.74 467.764 1222.31 468.254 1221.79 468.72C1221.26 469.185 1220.62 469.563 1219.85 469.854C1219.09 470.146 1218.2 470.291 1217.16 470.291Z" fill="white"/>
<path d="M1211.31 392C1211 367.5 1176 372 1169.31 388C1160.31 411 1174 422 1174 422C1184 431.5 1195 430 1195 430C1206.5 429 1213.5 422.5 1215.5 421.5" stroke="white" stroke-width="10"/>
<g filter="url(#filter0_iiii_34_6)">
<path d="M300.5 461.5L322.5 453L332.5 448.5L342 444L301.5 347L260 248.5L158.5 457.5L168.5 461.5L181.5 464.5L193.5 467L205 468.5L216.5 469.5L229 470H240.5L252.5 469.5L265 468.5L276.5 466.5L300.5 461.5Z" fill="white"/>
<path d="M87.5 418.5L221 165.5L199 115L192 101L185.5 89L181 81.5L177 76L168.5 66L158 60L146.5 55.5L133.5 53H123L112.25 53.75L101.5 54.5L89.5 56.5L79.5 60L71 66L63 73L55 81.5L45.5 93.5L35 110.5L23 132.5L11.5 158L3.5 189L0 218.5V248.5L2 272L7 295.5L14 318L24.5 342L37.5 363.5L51.5 382.5L67 400.5L77 411L87.5 418.5Z" fill="white"/>
<path d="M428 102.5L405.5 73.5L376.5 48L345.5 27.5L308 11.5L286.5 6L267.5 2.5L247 0H228L206.5 2.5L188 6L203 10.5L217 16.5L229.5 24.5L241.5 34L251.5 44.5L261.5 57L269.5 69L276.5 81.5L283.5 94.5L290 109L302 135.5L324 188.5L368 290.5L411 391L424.5 373.5L434 360L450 332L462 299L468.5 264.5L471.5 231L467 197.5L459 163.5L453 146.5L446 131.5L437 116L428 102.5Z" fill="white"/>
</g>
<path d="M423.695 372.907L411.249 389.04L368.919 290.107L368.918 290.104L324.924 188.117L324.918 188.104L302.924 135.117L302.918 135.102L302.911 135.087L290.913 108.591L290.911 108.587L284.413 94.0909L284.398 94.0578L284.38 94.0259L277.38 81.0259L277.377 81.0186L277.372 81.0114L270.372 68.5114L270.354 68.4776L270.332 68.4453L262.332 56.4453L262.308 56.4092L262.281 56.3753L252.281 43.8753L252.254 43.8416L252.224 43.8103L242.224 33.3103L242.176 33.2595L242.121 33.216L230.121 23.716L230.081 23.6848L230.039 23.6577L217.539 15.6577L217.47 15.6133L217.394 15.5809L203.394 9.58086L203.342 9.55849L203.287 9.54217L192.215 6.22037L206.651 3.48919L228.058 1H246.939L267.349 3.48897L286.285 6.97726L307.678 12.4498L345.024 28.3841L375.891 48.7963L404.768 74.1881L427.188 103.085L436.151 116.529L445.113 131.963L452.073 146.879L458.039 163.782L466.015 197.682L470.494 231.022L467.508 264.363L461.032 298.735L449.089 331.578L433.155 359.463L423.695 372.907ZM332.072 447.596L322.114 452.077L300.216 460.538L276.312 465.518L264.874 467.507L252.439 468.502L240.479 469H229.02L216.563 468.502L205.108 467.506L193.667 466.013L181.725 463.526L181.704 463.521L168.8 460.543L159.869 456.971L259.935 250.922L300.577 347.385L300.578 347.388L340.71 443.505L332.09 447.588L332.072 447.596ZM219.891 165.459L87.1498 417.021L77.6587 410.242L67.7413 399.828L52.2825 381.876L38.3321 362.944L25.3898 341.539L14.9384 317.65L7.96853 295.247L2.9911 271.853L1 248.458V218.559L4.4851 189.185L12.4468 158.333L23.896 132.946L35.865 111.003L46.3202 94.0751L55.7575 82.1542L63.695 73.7207L71.6193 66.7869L79.9624 60.8976L89.7492 57.4723L101.617 55.4942L112.32 54.7476L123.035 54H133.405L146.221 56.4647L157.567 60.9046L167.852 66.7812L176.214 76.6188L180.165 82.0523L184.631 89.4958L191.113 101.462L198.094 115.424L219.891 165.459Z" stroke="white" stroke-width="2"/>
<path d="M1290 469V449H1289C1288.6 452.6 1284.5 454.5 1283 454.5" stroke="white" stroke-width="3"/>
<path d="M1242 469.5V449.5H1241C1240.6 453.1 1236.5 455 1235 455" stroke="white" stroke-width="3"/>
<path d="M1267 464.721C1267 465.221 1268 466.721 1268 466.721C1269.23 467.57 1269.61 468.273 1271.5 468.221L1274.5 467.721L1277 465.721L1277.5 461.221L1277.5 457.221M1277.5 457.221C1276.5 460.221 1273.22 460.806 1270.5 460.721C1266.51 459.61 1266.94 455.277 1267.5 452.221C1268.06 449.165 1275.57 449.7 1276.5 451.221C1277.43 452.742 1277.5 454.221 1277.5 454.221C1277.5 454.221 1277.5 456.221 1277.5 457.221Z" stroke="white" stroke-width="3"/>
<path d="M1251 465C1251 465.5 1252 467 1252 467C1253.23 467.849 1253.61 468.552 1255.5 468.5L1258.5 468L1261 466L1261.5 461.5L1261.5 457.5M1261.5 457.5C1260.5 460.5 1257.22 461.085 1254.5 461C1250.51 459.889 1250.94 455.556 1251.5 452.5C1252.06 449.444 1259.57 449.979 1260.5 451.5C1261.43 453.021 1261.5 454.5 1261.5 454.5C1261.5 454.5 1261.5 456.5 1261.5 457.5Z" stroke="white" stroke-width="3"/>
<path d="M847 430.5H832.5M847 430.5H863.5M847 430.5C847 430.5 846.714 404.375 847 400.875M847 400.875C846.899 395.603 847 385 847 385C847 385 848 375.5 837 375.5H832.5M847 400.875C860.741 383.375 861 375.5 877 375.5M917.5 430.5H900.75M900.75 430.5H885H900.5C900.342 423.297 900.153 412.671 900.085 403.5M900.75 430.5L900.085 403.5M900.085 403.5C900.009 393.362 900.5 385 900.5 385C900.5 385 900.75 375.5 889.5 375.5H885M900.085 403.5C905 363.5 943.5 372.5 943.5 391C943.5 409.5 943.5 400.875 943.5 400.875M958.5 430.5H943.5V410.75V400.875M943.5 400.875C957 357.5 983 381 983 391C983 401 983 430.5 983 430.5H998" stroke="white" stroke-width="10"/>
<path d="M1013 381C1031.23 371.688 1044 372.5 1051 384L1053 390.5V398.5M1067.5 430C1061 430 1051 430.5 1053 424.5L1052 415M1052 415C1040.89 427.677 1033.5 433 1020.5 430C1008 422 1011 412.5 1015.5 406C1020 399.5 1040.5 397 1053 398.5M1052 415C1052 415 1053 401 1053 398.5" stroke="white" stroke-width="10"/>
<path d="M1089 353.5V374.5M1110 429C1098.49 428.901 1090.03 427.941 1089 414.5V374.5M1089 374.5H1107.5H1072M1135 348V359" stroke="white" stroke-width="10"/>
<path d="M1038.5 363H1027.5L1039.5 348H1053.5L1038.5 363Z" fill="white" stroke="white"/>
<path d="M818 403C818 418.393 805.311 431 789.5 431C773.689 431 761 418.393 761 403C761 387.607 773.689 375 789.5 375C805.311 375 818 387.607 818 403Z" stroke="white" stroke-width="10"/>
<path d="M1233.4 381.37C1251.62 372.058 1264.4 372.87 1271.4 384.37L1273.4 390.87V398.87M1287.9 430.37C1281.4 430.37 1271.4 430.87 1273.4 424.87L1272.4 415.37M1272.4 415.37C1261.29 428.047 1253.9 433.37 1240.9 430.37C1228.4 422.37 1231.4 412.87 1235.9 406.37C1240.4 399.87 1260.9 397.37 1273.4 398.87M1272.4 415.37C1272.4 415.37 1273.4 401.37 1273.4 398.87" stroke="white" stroke-width="10"/>
<path d="M580 352H598M616 352H598M598 352V430H616H595.864H580" stroke="white" stroke-width="10"/>
<path d="M627 375.5C627 375.5 640 374.5 641.5 375.5C643 376.5 643 390.5 642.5 394.5M641.5 429.5H657M641.5 429.5H627M641.5 429.5C641.513 415.926 642.519 407.821 642.5 394.5M642.5 394.5C644.5 389 658 377 664.5 375.5C671 374 675 374.5 680.5 378C686 381.5 687.5 388 687 410.5C686.5 433 687 429.5 687 429.5H701.5M745.5 351C745.5 351 726 347 727.5 375.5M727.5 375.5L712 375.5H748L727.5 375.5ZM727.5 375.5L727.75 429.5M727.5 429.5H712H727.75M743.5 429.5H727.75" stroke="white" stroke-width="10"/>
<path d="M1076 112V54H1277V112" stroke="white" stroke-width="30"/>
<path d="M1176 54.5V293.5H1229" stroke="white" stroke-width="30"/>
<path d="M1175.5 293.5L1124 294" stroke="white" stroke-width="30"/>
<path d="M829 54.5H1006.75V101.5" stroke="white" stroke-width="30"/>
<path d="M878 54V295H1013V244" stroke="white" stroke-width="30"/>
<path d="M878 295H829" stroke="white" stroke-width="30"/>
<path d="M878 173H995" stroke="white" stroke-width="30"/>
<path d="M579 293.5H632.5M684 293.5H632.5M632.5 293.5V191M632.5 52L578.5 51.5M632.5 52V191M632.5 52C672.75 52 674.5 52 714 52C753.5 52 770 85.5 774.5 94.5C779 103.5 779 137 773.5 148.5C768 160 752.5 191 714 191C675.5 191 632.5 191 632.5 191" stroke="white" stroke-width="31"/>
<defs>
<filter id="filter0_iiii_34_6" x="-4" y="-4" width="479.5" height="478" filterUnits="userSpaceOnUse" color-interpolation-filters="sRGB">
<feFlood flood-opacity="0" result="BackgroundImageFix"/>
<feBlend mode="normal" in="SourceGraphic" in2="BackgroundImageFix" result="shape"/>
<feColorMatrix in="SourceAlpha" type="matrix" values="0 0 0 0 0 0 0 0 0 0 0 0 0 0 0 0 0 0 127 0" result="hardAlpha"/>
<feOffset dx="-4"/>
<feGaussianBlur stdDeviation="2"/>
<feComposite in2="hardAlpha" operator="arithmetic" k2="-1" k3="1"/>
<feColorMatrix type="matrix" values="0 0 0 0 0 0 0 0 0 0 0 0 0 0 0 0 0 0 0.25 0"/>
<feBlend mode="normal" in2="shape" result="effect1_innerShadow_34_6"/>
<feColorMatrix in="SourceAlpha" type="matrix" values="0 0 0 0 0 0 0 0 0 0 0 0 0 0 0 0 0 0 127 0" result="hardAlpha"/>
<feOffset dy="-4"/>
<feGaussianBlur stdDeviation="2"/>
<feComposite in2="hardAlpha" operator="arithmetic" k2="-1" k3="1"/>
<feColorMatrix type="matrix" values="0 0 0 0 0 0 0 0 0 0 0 0 0 0 0 0 0 0 0.25 0"/>
<feBlend mode="normal" in2="effect1_innerShadow_34_6" result="effect2_innerShadow_34_6"/>
<feColorMatrix in="SourceAlpha" type="matrix" values="0 0 0 0 0 0 0 0 0 0 0 0 0 0 0 0 0 0 127 0" result="hardAlpha"/>
<feOffset dx="4"/>
<feGaussianBlur stdDeviation="2"/>
<feComposite in2="hardAlpha" operator="arithmetic" k2="-1" k3="1"/>
<feColorMatrix type="matrix" values="0 0 0 0 0 0 0 0 0 0 0 0 0 0 0 0 0 0 0.25 0"/>
<feBlend mode="normal" in2="effect2_innerShadow_34_6" result="effect3_innerShadow_34_6"/>
<feColorMatrix in="SourceAlpha" type="matrix" values="0 0 0 0 0 0 0 0 0 0 0 0 0 0 0 0 0 0 127 0" result="hardAlpha"/>
<feOffset dy="4"/>
<feGaussianBlur stdDeviation="2"/>
<feComposite in2="hardAlpha" operator="arithmetic" k2="-1" k3="1"/>
<feColorMatrix type="matrix" values="0 0 0 0 0 0 0 0 0 0 0 0 0 0 0 0 0 0 0.25 0"/>
<feBlend mode="normal" in2="effect3_innerShadow_34_6" result="effect4_innerShadow_34_6"/>
</filter>
</defs>
</svg>
