<svg xmlns="http://www.w3.org/2000/svg" width="1309" height="477" fill="none"><path stroke="#fff" stroke-width="10" d="M1120.5 376h15.5v54h-15.5 30"/><path fill="#fff" d="M1149.19 470h-4.42l.03-2.284h4.39c1.52 0 2.78-.316 3.79-.946 1-.641 1.76-1.533 2.27-2.678.51-1.154.77-2.502.77-4.045v-1.295c0-1.212-.15-2.289-.44-3.23-.29-.951-.72-1.751-1.28-2.401a5.366 5.366 0 0 0-2.07-1.499c-.8-.339-1.73-.509-2.78-.509h-4.77v-2.299h4.77c1.39 0 2.66.233 3.8.699a8.176 8.176 0 0 1 2.96 1.993c.83.863 1.47 1.911 1.92 3.143.44 1.222.67 2.6.67 4.132v1.266c0 1.533-.23 2.915-.67 4.147-.45 1.223-1.1 2.265-1.94 3.129-.83.863-1.84 1.527-3.03 1.993-1.17.456-2.49.684-3.97.684Zm-2.92-21.186V470h-2.81v-21.186h2.81Zm22.87 21.477c-1.09 0-2.09-.184-2.98-.553a6.806 6.806 0 0 1-2.29-1.586c-.63-.679-1.11-1.484-1.45-2.415-.34-.932-.51-1.95-.51-3.056v-.611c0-1.281.19-2.42.57-3.42.38-1.008.89-1.862 1.54-2.561a6.654 6.654 0 0 1 2.21-1.586 6.375 6.375 0 0 1 2.56-.538c1.13 0 2.1.194 2.91.582.83.388 1.5.931 2.02 1.63.53.688.92 1.503 1.17 2.444.25.932.38 1.95.38 3.056v1.208h-11.76v-2.197h9.07v-.204a6.814 6.814 0 0 0-.44-2.037 3.606 3.606 0 0 0-1.17-1.63c-.53-.427-1.26-.64-2.18-.64-.61 0-1.17.131-1.69.393-.51.252-.95.63-1.32 1.135-.37.504-.65 1.12-.86 1.848-.2.727-.3 1.566-.3 2.517v.611c0 .747.1 1.45.3 2.11.21.65.52 1.222.92 1.717.41.495.9.883 1.47 1.164.58.281 1.24.422 1.98.422.95 0 1.75-.194 2.41-.582a5.91 5.91 0 0 0 1.73-1.557l1.63 1.295a7.66 7.66 0 0 1-1.29 1.47c-.53.465-1.17.843-1.94 1.134-.75.292-1.65.437-2.69.437Zm18.44-4.467c0-.388-.09-.747-.26-1.077-.17-.339-.51-.645-1.04-.917-.51-.281-1.29-.523-2.33-.727a18.62 18.62 0 0 1-2.37-.655 7.251 7.251 0 0 1-1.79-.917c-.48-.358-.86-.78-1.12-1.265-.26-.485-.39-1.053-.39-1.703 0-.621.13-1.208.41-1.761.28-.552.67-1.042 1.18-1.469.51-.427 1.13-.762 1.84-1.004.72-.243 1.52-.364 2.4-.364 1.27 0 2.34.223 3.23.669.9.447 1.58 1.043 2.06 1.79.47.737.71 1.557.71 2.459h-2.69c0-.436-.13-.858-.4-1.266-.25-.417-.62-.761-1.12-1.033-.48-.271-1.08-.407-1.79-.407-.74 0-1.35.116-1.81.349-.46.223-.8.509-1.01.858-.2.35-.3.718-.3 1.106 0 .291.04.553.14.786.11.223.29.432.55.626.27.184.63.359 1.11.524.48.164 1.08.329 1.82.494 1.29.291 2.35.641 3.19 1.048.83.407 1.45.907 1.86 1.499.41.591.61 1.309.61 2.153a4.13 4.13 0 0 1-.44 1.892 4.195 4.195 0 0 1-1.23 1.484c-.54.407-1.18.728-1.93.96-.73.223-1.56.335-2.48.335-1.39 0-2.56-.247-3.52-.742s-1.69-1.135-2.19-1.921c-.49-.786-.74-1.615-.74-2.488h2.71c.04.737.25 1.324.64 1.761.39.427.86.732 1.42.916.57.175 1.12.262 1.68.262.73 0 1.35-.097 1.84-.291.51-.194.89-.46 1.15-.8.27-.34.4-.728.4-1.164Zm16.15 1.12V447.65h2.7V470h-2.47l-.23-3.056Zm-10.59-4.641v-.306c0-1.203.14-2.294.43-3.274.3-.989.72-1.838 1.27-2.546a5.746 5.746 0 0 1 1.96-1.63c.77-.388 1.62-.582 2.56-.582.99 0 1.86.175 2.59.524.75.339 1.38.839 1.89 1.499.53.65.94 1.435 1.24 2.357.3.921.51 1.964.63 3.128v1.339c-.11 1.154-.32 2.192-.63 3.114-.3.921-.71 1.707-1.24 2.357a5.11 5.11 0 0 1-1.89 1.499c-.74.339-1.62.509-2.62.509-.92 0-1.76-.199-2.53-.597a5.987 5.987 0 0 1-1.96-1.673c-.55-.718-.97-1.562-1.27-2.532-.29-.979-.43-2.042-.43-3.186Zm2.7-.306v.306c0 .785.08 1.523.23 2.211.17.689.42 1.295.76 1.819s.77.936 1.3 1.237c.52.291 1.15.437 1.87.437.9 0 1.63-.19 2.2-.568a4.262 4.262 0 0 0 1.4-1.499c.35-.621.62-1.295.81-2.022v-3.507a6.992 6.992 0 0 0-.51-1.542 4.64 4.64 0 0 0-.84-1.339 3.617 3.617 0 0 0-1.27-.946c-.49-.233-1.08-.349-1.76-.349-.73 0-1.37.155-1.9.466-.53.3-.96.717-1.3 1.251-.34.524-.59 1.135-.76 1.833-.15.689-.23 1.426-.23 2.212Zm21.32 8.294c-1.1 0-2.09-.184-2.98-.553a6.708 6.708 0 0 1-2.29-1.586c-.63-.679-1.11-1.484-1.45-2.415-.34-.932-.51-1.95-.51-3.056v-.611c0-1.281.19-2.42.56-3.42.38-1.008.9-1.862 1.55-2.561a6.555 6.555 0 0 1 2.21-1.586 6.34 6.34 0 0 1 2.56-.538c1.12 0 2.09.194 2.91.582.82.388 1.5.931 2.02 1.63.53.688.91 1.503 1.17 2.444.25.932.37 1.95.37 3.056v1.208h-11.75v-2.197h9.06v-.204a6.8 6.8 0 0 0-.43-2.037 3.682 3.682 0 0 0-1.17-1.63c-.53-.427-1.26-.64-2.18-.64-.61 0-1.17.131-1.69.393-.51.252-.95.63-1.32 1.135-.37.504-.66 1.12-.86 1.848-.2.727-.31 1.566-.31 2.517v.611c0 .747.11 1.45.31 2.11.21.65.52 1.222.92 1.717.4.495.89.883 1.47 1.164.58.281 1.24.422 1.97.422.95 0 1.76-.194 2.42-.582a5.91 5.91 0 0 0 1.73-1.557l1.63 1.295a7.66 7.66 0 0 1-1.29 1.47c-.53.465-1.17.843-1.94 1.134-.76.292-1.65.437-2.69.437Z"/><path stroke="#fff" stroke-width="10" d="M1211.31 392c-.31-24.5-35.31-20-42-4-9 23 4.69 34 4.69 34 10 9.5 21 8 21 8 11.5-1 18.5-7.5 20.5-8.5"/><g fill="#fff" filter="url(#a)"><path d="m300.5 461.5 22-8.5 10-4.5 9.5-4.5-40.5-97-41.5-98.5-101.5 209 10 4 13 3 12 2.5 11.5 1.5 11.5 1 12.5.5h11.5l12-.5 12.5-1 11.5-2 24-5Zm-213-43 133.5-253-22-50.5-7-14-6.5-12-4.5-7.5-4-5.5-8.5-10-10.5-6-11.5-4.5-13-2.5H123l-10.75.75-10.75.75-12 2-10 3.5-8.5 6-8 7-8 8.5-9.5 12-10.5 17-12 22L11.5 158l-8 31L0 218.5v30L2 272l5 23.5 7 22.5 10.5 24 13 21.5 14 19 15.5 18L77 411l10.5 7.5Zm340.5-316-22.5-29-29-25.5-31-20.5-37.5-16L286.5 6l-19-3.5L247 0h-19l-21.5 2.5L188 6l15 4.5 14 6 12.5 8 12 9.5 10 10.5 10 12.5 8 12 7 12.5 7 13L290 109l12 26.5 22 53 44 102L411 391l13.5-17.5L434 360l16-28 12-33 6.5-34.5 3-33.5-4.5-33.5-8-34-6-17-7-15-9-15.5-9-13.5Z"/></g><path stroke="#fff" stroke-width="2" d="m423.695 372.907-12.446 16.133-42.33-98.933-.001-.003-43.994-101.987-.006-.013-21.994-52.987-.006-.015-.007-.015-11.998-26.496-.002-.004-6.498-14.496-.015-.033-.018-.032-7-13-.003-.007-.005-.008-7-12.5-.018-.033-.022-.033-8-12-.024-.036-.027-.034-10-12.5-.027-.033-.03-.032-10-10.5-.048-.05-.055-.044-12-9.5-.04-.031-.042-.027-12.5-8-.069-.045-.076-.032-14-6-.052-.023-.055-.016-11.072-3.322 14.436-2.73L228.058 1h18.881l20.41 2.489 18.936 3.488 21.393 5.473 37.346 15.934 30.867 20.412 28.877 25.392 22.42 28.897 8.963 13.444 8.962 15.434 6.96 14.916 5.966 16.903 7.976 33.9 4.479 33.34-2.986 33.341-6.476 34.372-11.943 32.843-15.934 27.885-9.46 13.444Zm-91.623 74.689-9.958 4.481-21.898 8.461-23.904 4.98-11.438 1.989-12.435.995-11.96.498H229.02l-12.457-.498-11.455-.996-11.441-1.493-11.942-2.487-.021-.005-12.904-2.978-8.931-3.572 100.066-206.049 40.642 96.463.001.003 40.132 96.117-8.62 4.083-.018.008ZM219.891 165.459 87.15 417.021l-9.491-6.779-9.918-10.414-15.459-17.952-13.95-18.932-12.942-21.405-10.452-23.889-6.97-22.403-4.977-23.394L1 248.458v-29.899l3.485-29.374 7.962-30.852 11.449-25.387 11.969-21.943L46.32 94.075l9.438-11.92 7.937-8.434 7.924-6.934 8.343-5.89 9.787-3.425 11.868-1.978 10.703-.746L123.035 54h10.37l12.816 2.465 11.346 4.44 10.285 5.876 8.362 9.838 3.951 5.433 4.466 7.444 6.482 11.966 6.981 13.962 21.797 50.035Z"/><path stroke="#fff" stroke-width="3" d="M1290 469v-20h-1c-.4 3.6-4.5 5.5-6 5.5m-41 15v-20h-1c-.4 3.6-4.5 5.5-6 5.5m32 9.721c0 .5 1 2 1 2 1.23.849 1.61 1.552 3.5 1.5l3-.5 2.5-2 .5-4.5v-4m0 0c-1 3-4.28 3.585-7 3.5-3.99-1.111-3.56-5.444-3-8.5s8.07-2.521 9-1c.93 1.521 1 3 1 3v3ZM1251 465c0 .5 1 2 1 2 1.23.849 1.61 1.552 3.5 1.5l3-.5 2.5-2 .5-4.5v-4m0 0c-1 3-4.28 3.585-7 3.5-3.99-1.111-3.56-5.444-3-8.5s8.07-2.521 9-1c.93 1.521 1 3 1 3v3Z"/><path stroke="#fff" stroke-width="10" d="M847 430.5h-14.5m14.5 0h16.5m-16.5 0s-.286-26.125 0-29.625m0 0c-.101-5.272 0-15.875 0-15.875s1-9.5-10-9.5h-4.5m14.5 25.375c13.741-17.5 14-25.375 30-25.375m40.5 55h-16.75m0 0H885h15.5c-.158-7.203-.347-17.829-.415-27m.665 27-.665-27m0 0c-.076-10.138.415-18.5.415-18.5s.25-9.5-11-9.5H885m15.085 28c4.915-40 43.415-31 43.415-12.5v9.875m15 29.625h-15v-29.625m0 0C957 357.5 983 381 983 391v39.5h15m15-49.5c18.23-9.312 31-8.5 38 3l2 6.5v8m14.5 31.5c-6.5 0-16.5.5-14.5-5.5l-1-9.5m0 0c-11.11 12.677-18.5 18-31.5 15-12.5-8-9.5-17.5-5-24s25-9 37.5-7.5m-1 16.5s1-14 1-16.5m36-45v21m21 54.5c-11.51-.099-19.97-1.059-21-14.5v-40m0 0h18.5-35.5m63-26.5v11"/><path fill="#fff" stroke="#fff" d="M1038.5 363h-11l12-15h14l-15 15Z"/><path stroke="#fff" stroke-width="10" d="M818 403c0 15.393-12.689 28-28.5 28S761 418.393 761 403s12.689-28 28.5-28 28.5 12.607 28.5 28Zm415.4-21.63c18.22-9.312 31-8.5 38 3l2 6.5v8m14.5 31.5c-6.5 0-16.5.5-14.5-5.5l-1-9.5m0 0c-11.11 12.677-18.5 18-31.5 15-12.5-8-9.5-17.5-5-24s25-9 37.5-7.5m-1 16.5s1-14 1-16.5M580 352h18m18 0h-18m0 0v78h18-36m47-54.5s13-1 14.5 0 1.5 15 1 19m-1 35H657m-15.5 0H627m14.5 0c.013-13.574 1.019-21.679 1-35m0 0c2-5.5 15.5-17.5 22-19s10.5-1 16 2.5 7 10 6.5 32.5 0 19 0 19h14.5m44-78.5s-19.5-4-18 24.5m0 0H712h36-20.5Zm0 0 .25 54m-.25 0H712h15.75m15.75 0h-15.75"/><path stroke="#fff" stroke-width="30" d="M1076 112V54h201v58"/><path stroke="#fff" stroke-width="30" d="M1176 54.5v239h53m-53.5 0-51.5.5M829 54.5h177.75v47"/><path stroke="#fff" stroke-width="30" d="M878 54v241h135v-51m-135 51h-49m49-122h117"/><path stroke="#fff" stroke-width="31" d="M579 293.5h53.5m51.5 0h-51.5m0 0V191m0-139-54-.5m54 .5v139m0-139H714c39.5 0 56 33.5 60.5 42.5s4.5 42.5-1 54-21 42.5-59.5 42.5h-81.5"/><defs><filter id="a" width="479.5" height="478" x="-4" y="-4" color-interpolation-filters="sRGB" filterUnits="userSpaceOnUse"><feFlood flood-opacity="0" result="BackgroundImageFix"/><feBlend in="SourceGraphic" in2="BackgroundImageFix" result="shape"/><feColorMatrix in="SourceAlpha" result="hardAlpha" values="0 0 0 0 0 0 0 0 0 0 0 0 0 0 0 0 0 0 127 0"/><feOffset dx="-4"/><feGaussianBlur stdDeviation="2"/><feComposite in2="hardAlpha" k2="-1" k3="1" operator="arithmetic"/><feColorMatrix values="0 0 0 0 0 0 0 0 0 0 0 0 0 0 0 0 0 0 0.25 0"/><feBlend in2="shape" result="effect1_innerShadow_34_6"/><feColorMatrix in="SourceAlpha" result="hardAlpha" values="0 0 0 0 0 0 0 0 0 0 0 0 0 0 0 0 0 0 127 0"/><feOffset dy="-4"/><feGaussianBlur stdDeviation="2"/><feComposite in2="hardAlpha" k2="-1" k3="1" operator="arithmetic"/><feColorMatrix values="0 0 0 0 0 0 0 0 0 0 0 0 0 0 0 0 0 0 0.25 0"/><feBlend in2="effect1_innerShadow_34_6" result="effect2_innerShadow_34_6"/><feColorMatrix in="SourceAlpha" result="hardAlpha" values="0 0 0 0 0 0 0 0 0 0 0 0 0 0 0 0 0 0 127 0"/><feOffset dx="4"/><feGaussianBlur stdDeviation="2"/><feComposite in2="hardAlpha" k2="-1" k3="1" operator="arithmetic"/><feColorMatrix values="0 0 0 0 0 0 0 0 0 0 0 0 0 0 0 0 0 0 0.25 0"/><feBlend in2="effect2_innerShadow_34_6" result="effect3_innerShadow_34_6"/><feColorMatrix in="SourceAlpha" result="hardAlpha" values="0 0 0 0 0 0 0 0 0 0 0 0 0 0 0 0 0 0 127 0"/><feOffset dy="4"/><feGaussianBlur stdDeviation="2"/><feComposite in2="hardAlpha" k2="-1" k3="1" operator="arithmetic"/><feColorMatrix values="0 0 0 0 0 0 0 0 0 0 0 0 0 0 0 0 0 0 0.25 0"/><feBlend in2="effect3_innerShadow_34_6" result="effect4_innerShadow_34_6"/></filter></defs></svg>