<svg width="646" height="688" viewBox="0 0 646 688" fill="none" xmlns="http://www.w3.org/2000/svg">
<path d="M452.356 605.602L393.436 572.837L439.035 491.439H476.949L496.931 526.251L452.356 605.602Z" fill="white" stroke="white"/>
<path d="M492.32 406.457H304.799L394.461 246.731L492.32 406.457Z" fill="white" stroke="white"/>
<path d="M279.694 421.291H279.986L280.129 421.037L394.896 217.797L395.039 217.543L394.889 217.293L361.586 162.003L361.143 161.268L360.722 162.016L247.636 362.954H2H1.1646L1.55934 363.69L32.3004 421.027L32.4418 421.291H32.741H279.694Z" fill="white" stroke="white"/>
<path d="M484.634 477.616H249.465L281.231 421.815H517.937L645 630.175L611.185 687L484.634 477.616Z" fill="white" stroke="white"/>
<path d="M582.493 1H515.375L394.461 217.551L518.449 421.303H584.03L460.554 216.015L582.493 1Z" fill="white" stroke="white"/>
<path d="M495.906 248.267C494.676 248.267 482.756 226.425 476.949 215.503L495.906 181.203H588.641V248.267H495.906Z" fill="white" stroke="white"/>
<path d="M200.28 349.631L155.705 269.769L213.601 237.004L259.2 316.867L239.218 349.631H200.28Z" fill="white" stroke="white"/>
</svg>
