<svg xmlns="http://www.w3.org/2000/svg" width="646" height="688" fill="none"><path fill="#fff" stroke="#fff" d="m452.356 605.602-58.92-32.765 45.599-81.398h37.914l19.982 34.812-44.575 79.351Zm39.964-199.145H304.799l89.662-159.726 97.859 159.726Zm-212.626 14.834h.292l.143-.254 114.767-203.24.143-.254-.15-.25-33.303-55.29-.443-.735-.421.748-113.086 200.938H1.165l.394.736L32.3 421.027l.142.264h247.252Z"/><path fill="#fff" stroke="#fff" d="M484.634 477.616H249.465l31.766-55.801h236.706L645 630.175 611.185 687 484.634 477.616ZM582.493 1h-67.118L394.461 217.551l123.988 203.752h65.581L460.554 216.015 582.493 1Z"/><path fill="#fff" stroke="#fff" d="M495.906 248.267c-1.23 0-13.15-21.842-18.957-32.764l18.957-34.3h92.735v67.064h-92.735ZM200.28 349.631l-44.575-79.862 57.896-32.765 45.599 79.863-19.982 32.764H200.28Z"/></svg>